<?xml version="1.0" standalone="no"?>
<!DOCTYPE svg PUBLIC "-//W3C//DTD SVG 1.1//EN" "http://www.w3.org/Graphics/SVG/1.1/DTD/svg11.dtd" >
<svg xmlns="http://www.w3.org/2000/svg" xmlns:xlink="http://www.w3.org/1999/xlink" version="1.1">
<metadata>
Created by FontForge 20170924 at Tue Jan 14 05:08:51 2020
 By www-data
Copyright (c) 2019 by Hendra Pratama &#38; Fajar Abdul Fatah.. All rights reserved.
</metadata>
<defs>
<font id="Birthland" horiz-adv-x="705" >
  <font-face 
    font-family="Birthland"
    font-weight="400"
    font-stretch="normal"
    units-per-em="1000"
    panose-1="2 0 5 3 0 0 0 0 0 0"
    ascent="750"
    descent="-250"
    x-height="316"
    cap-height="738"
    bbox="-414.561 -419 1072.52 933.5"
    underline-thickness="50"
    underline-position="-175"
    unicode-range="U+0020-E03D"
  />
<missing-glyph horiz-adv-x="500" 
d="M100 50h300v433h-300v-433zM50 0v533h400v-533h-400z" />
    <glyph glyph-name="cc" unicode="cc" horiz-adv-x="797" 
d="M245 218v-2q-15 9 -6 24q8 15 8 29q0 18 -13.5 29.5t-36.5 11.5q-53 0 -107 -64t-55 -151q0 -87 69 -92q62 -4 126 51.5t150 164.5q48 93 131 101q67 6 104 -20.5t37 -64.5q0 -23 -12 -46q-9 -15 -24 -6t-6 24q8 15 8 29q0 18 -13.5 29.5t-36.5 11.5q-47 0 -88.5 -54.5
t-46.5 -116.5q-7 -85 69 -91q69 -5 140 57.5t166 185.5q10 14 25 3q14 -10 3 -25q-49 -62 -82 -100.5t-79 -82t-91 -63.5t-90 -19q-70 2 -109.5 37t-35.5 100q0 7 2 21q-144 -172 -255 -168q-69 2 -107.5 37t-37.5 100q1 108 59.5 179t129.5 78q67 6 104 -20.5t37 -64.5
q0 -24 -12 -46q-9 -15 -24 -6z" />
    <glyph glyph-name="ee" unicode="ee" horiz-adv-x="757" 
d="M204 220q-30 -34 -68.5 -52.5t-73.5 -18.5q-16 0 -31 5q-6 -24 -6 -48q0 -79 52 -92q12 -2 19 -2q58 -4 116 43t128 139q23 55 66 93.5t91 39.5q52 2 80 -21q23 -20 23 -54q0 -33 -19 -53q-56 -62 -133 -62q-20 0 -41 7q-6 -26 -6 -47q0 -63 51 -76q12 -2 19 -2
q69 -5 137 57t157 186q11 15 25 4q15 -11 4 -25q-44 -62 -78 -102.5t-77.5 -82.5t-88 -61.5t-89.5 -16.5q-73 4 -107 42t-32 95q-128 -151 -238 -145q-71 4 -105 43.5t-34 98.5q0 53 24 107t65 91t86 38q52 2 80 -21q23 -20 23 -54q0 -33 -19 -53zM44 188h-2q24 -9 64.5 6
t71.5 49q13 14 13 29.5t-8 21.5q-7 7 -22 7q-32 0 -64.5 -33t-52.5 -80zM420 177h-2q9 -4 28 -4q63 0 108 49q13 14 13 29.5t-8 21.5q-7 7 -22 7q-33 0 -65.5 -29t-51.5 -74z" />
    <glyph glyph-name="ff" unicode="ff" horiz-adv-x="531" 
d="M325 116l8 4q53 11 113.5 48t106.5 94q11 13 24 2t2 -24q-48 -59 -110 -98t-120 -53q27 -67 27 -161q0 -62 -15 -108.5t-45 -58.5q-7 -5 -32.5 -3t-44.5 14q-42 28 -42 126q0 78 26 180l8 28q-9 8 -6 21q3 12 16 19l9 33q-82 -70 -171 -92q27 -67 27 -168
q0 -67 -15 -116.5t-45 -61.5q-7 -5 -32.5 -3t-44.5 14q-42 28 -42 136q0 86 26 188l8 28q-9 8 -6 21q3 12 16 19q44 158 110 293t121 147q25 6 39 2.5t19 -9t5 -11.5q0 -8 -5.5 -13t-12.5 -5q-27 -1 -91 -132.5t-109 -287.5l11 -12q51 10 110 45t104 90q43 118 95.5 199.5
t98.5 91.5q25 6 39 2.5t19 -9t5 -11.5q0 -8 -5.5 -13t-12.5 -5q-29 -1 -91.5 -114t-105.5 -264zM30 80l1 -1q-34 -133 -34 -223q0 -71 22 -82q5 -2 9 0q15 7 25 53.5t10 104.5q0 95 -26 148h-7zM299 79l1 -1q-34 -133 -34 -213q0 -63 22 -74q5 -2 9 0q15 7 25 50t10 97
q0 88 -26 141h-7z" />
    <glyph glyph-name="ll" unicode="ll" horiz-adv-x="598" 
d="M106 324h-3q-15 -45 -35.5 -130.5t-20.5 -134.5q0 -38 15 -41q25 -6 89.5 56.5t145.5 171.5q12 43 36 113q41 114 73 180.5t82 117.5q38 39 97 39q21 0 36 -5q34 -12 34 -56q0 -23 -11 -60q-27 -81 -88 -149t-151 -102q-15 -45 -35.5 -130.5t-20.5 -134.5q0 -38 15 -41
q25 -6 93 61t152 181q11 15 25 4q15 -11 4 -25q-93 -127 -163.5 -197.5t-120.5 -65.5q-40 3 -61 32t-22 64t9 90q-152 -192 -227 -186q-40 3 -61 32t-22 64q-2 97 65 287q86 240 179 336q38 39 97 39q21 0 36 -5q34 -12 34 -56q0 -23 -11 -60q-28 -83 -101.5 -169
t-162.5 -120zM337 696q-33 11 -97 -87t-117 -240q71 37 131 112t83 143q8 23 9 40t-1.5 23.5t-7.5 8.5zM419 369q140 73 189 217q8 23 9 40t-1.5 23.5t-7.5 8.5q-33 11 -84.5 -68t-104.5 -221z" />
    <glyph glyph-name="oo" unicode="oo" horiz-adv-x="716" 
d="M589 165l3 -1q48 7 76 28.5t61 66.5q11 14 25 2q12 -10 1 -25q-38 -51 -75.5 -76.5t-94.5 -31.5q-17 -69 -67.5 -119t-111.5 -35q-94 24 -94 121q0 32 10 65q-38 -25 -93 -32q-17 -69 -67.5 -119t-111.5 -35q-49 13 -75.5 47t-26.5 82q0 31 12 67q22 66 47 97
q11 42 42 63q35 24 78 24q50 0 80 -36q31 -36 31 -107q0 -3 -3 -45q46 7 73.5 27.5t57.5 61.5q6 36 38 58q26 18 59 18q49 0 90 -38q45 -41 36 -128zM47 168h-2q-11 -23 -13 -27q-11 -31 -11 -55q0 -27 10.5 -45.5t27.5 -24.5q41 -15 78 17.5t55 92.5q-87 0 -145 42z
M410 166h-1q-8 -16 -11 -24q-13 -35 -13 -65q0 -49 31 -60q41 -15 78 17.5t55 92.5q-86 0 -139 39zM61 196h1l3 -3q48 -36 136 -32q4 34 4 54q0 53 -20 76q-22 25 -59 25q-16 0 -39 -7l-9 -3q14 -7 25 -27q8 -16 -1 -25q-5 -5 -13 -16t-16.5 -24.5t-11.5 -17.5zM460 235
q-9 -9 -32 -39l3 -3q47 -35 127 -32q10 74 -24 105q-44 39 -89 24l-9 -3q14 -7 25 -27q8 -16 -1 -25z" />
    <glyph glyph-name="rr" unicode="rr" horiz-adv-x="611" 
d="M17 270q16 20 29.5 66.5t5.5 52.5q-13 0 -24.5 -31t-13.5 -57.5t3 -30.5zM58 268h3q54 3 84 -3q18 -4 26 -13.5t3 -19.5q-32 -71 -52 -134.5t-15 -80.5q22 -1 78 61.5t119 156.5q-49 12 -46 62q2 53 29 81t59 21q42 -9 42 -66q0 -24 -24 -64q54 3 84 -3q18 -4 26 -13.5
t3 -19.5q-32 -71 -52 -134.5t-15 -80.5q23 -1 85 69.5t128 172.5q9 14 24 5q14 -9 5 -24q-39 -60 -68.5 -101t-65 -83.5t-66 -61t-54.5 -11.5q-66 18 -66 73q0 13 5 35q13 49 54 142q-12 0 -48 -2q-80 -123 -142 -192t-106 -56q-66 18 -66 73q0 13 5 35q13 49 54 142
q-7 0 -30 -1t-36 -1q-28 0 -52.5 19.5t-23.5 60.5q2 66 36 96t69 22q42 -9 42 -66q0 -12 -13 -46t-22 -50zM323 270q16 20 24 50.5t0 36.5q-8 -1 -16.5 -23.5t-10.5 -41.5t3 -22z" />
    <glyph glyph-name="ss" unicode="ss" horiz-adv-x="478" 
d="M-15 -52h-5q-33 0 -51 21q-15 18 -15 41q0 40 39.5 80t71.5 55l-9 39t-10 46t-4 37q-3 76 48 94q12 4 25 -0.5t18 -15.5q3 -5 3 -12t-0.5 -12.5t-3.5 -13.5t-4.5 -11.5t-5.5 -11.5t-4 -9q2 -13 11 -47t13 -53q82 34 142 83v9q-2 52 37 68q11 5 25 -0.5t18 -15.5
q7 -19 -4 -43q2 -13 11 -47t13 -53q84 36 146 88q8 7 17.5 2.5t11 -13t-5.5 -16.5q-66 -55 -162 -96q4 -36 4 -50q0 -63 -30 -94.5t-97 -31.5q-33 0 -51 21q-16 19 -16 41q0 36 37 69.5t72 49.5q-2 12 -8.5 36.5t-8.5 36.5q-62 -46 -142 -79q3 -26 3 -48q0 -144 -129 -144z
M-28 -14q30 0 45.5 38.5t12.5 82.5q-23 -13 -57.5 -55t-17.5 -60q6 -6 17 -6zM216 1q30 0 44 31.5t11 73.5q-25 -12 -57.5 -46.5t-14.5 -52.5q6 -6 17 -6z" />
    <glyph glyph-name="t_t" unicode="tt" horiz-adv-x="457" 
d="M209 638l1 4q13 -6 17.5 -17t-0.5 -17q-47 -88 -97 -209q41 2 89 6l65 6q53 131 105 231q11 20 51 0q13 -6 17.5 -17t-0.5 -17q-41 -77 -90 -193q42 -2 65 -11q11 -5 12 -12t-8 -13q-20 -13 -50 -2q-14 0 -35 -1q-41 -105 -65 -184q-20 -66 -27 -116t-1 -59q5 -2 16 3.5
t29.5 22.5t40.5 44q28 35 123 173q11 14 25 5q15 -9 4 -24q-96 -140 -124 -175q-67 -83 -107 -85t-63 21t-21 63q1 28 13 73q-32 -46 -54 -74q-67 -83 -107 -85t-63 21t-21 63q2 46 35 154q18 61 49 141q-49 5 -65 24q-6 7 -1.5 14t17.5 10q29 6 46 -9q4 -2 18 -2
q55 138 110 243q11 20 51 0zM115 361h-1q-33 -84 -59 -166q-20 -66 -27 -116t-1 -59q5 -2 16 3.5t29.5 22.5t40.5 44q30 37 112 156q20 64 45 128l-41 -3q-105 -10 -114 -10z" />
    <glyph glyph-name="th" unicode="th" horiz-adv-x="725" 
d="M207 638l5 4q13 -6 17.5 -17t-0.5 -17q-44 -84 -86 -184l15 -6q62 -21 126 -24q138 347 291 347q30 0 53 -20.5t21 -42.5q-2 -35 -24 -83.5t-58.5 -98t-93 -88t-119.5 -48.5q-53 -143 -80 -270q146 243 241 224q30 -6 55.5 -26.5t25.5 -49.5q0 -28 -19 -83t-32.5 -95.5
t-4.5 -44.5q3 -2 16.5 8t38.5 36t51 62q27 37 93 137q9 14 24 5q14 -9 5 -24q-66 -99 -96 -139q-22 -30 -35 -46.5t-37 -39.5t-44 -33q-14 -7 -31 -7q-26 0 -45 15.5t-18 40.5q1 35 30.5 118t29.5 101q0 27 -16 30q-37 7 -108.5 -76t-138.5 -204v-6q1 -15 -27 -11
q-34 4 -42 27q-1 4 -1 8q-1 52 18 141q-44 -62 -69 -93q-67 -83 -107 -85t-63 21t-21 63q2 46 35 154q25 79 63 176q-87 0 -109 -22q-10 -9 -17 -6t-7 13q0 20 26 37q33 22 89 22q11 0 35 -2q46 112 94 202q11 20 51 0zM236 260l-3 1q15 50 35 103q-55 4 -119 21
q-13 4 -23 5q-46 -115 -70 -196q-20 -66 -27 -116t-1 -59q5 -2 16 3.5t29.5 22.5t40.5 44q32 39 122 171zM366 404q54 11 101.5 47t76.5 79.5t46 83t18 63.5q1 10 -1.5 13t-11.5 3q-52 0 -113 -77.5t-116 -211.5z" />
    <glyph glyph-name=".notdef" horiz-adv-x="500" 
d="M100 50h300v433h-300v-433zM50 0v533h400v-533h-400z" />
    <glyph glyph-name=".null" horiz-adv-x="0" 
 />
    <glyph glyph-name="nonmarkingreturn" horiz-adv-x="333" 
 />
    <glyph glyph-name="space" unicode=" " horiz-adv-x="300" 
 />
    <glyph glyph-name="space" horiz-adv-x="300" 
 />
    <glyph glyph-name="exclam" unicode="!" horiz-adv-x="374" 
d="M309 733v1q17 -5 23 -17.5t2 -20.5q-29 -70 -57 -148.5t-80 -230t-79 -229.5q-5 -16 -21 -13q-7 1 -11 7.5t-2 13.5q111 437 179 627q7 22 46 10zM40 9q0 17 12 28.5t28 11.5t28 -11.5t12 -28.5t-12 -28.5t-28 -11.5t-28 11.5t-12 28.5z" />
    <glyph glyph-name="quotedbl" unicode="&#x22;" horiz-adv-x="330" 
d="M144 731v-1q20 5 30 1.5t13 -8t2 -10.5q-3 -53 -61 -124q-17 -19 -33 -8q-14 9 -5 24q11 17 22.5 51t12.5 58q1 13 19 17zM245 730v-1q20 5 30 1.5t13 -8t2 -10.5q-3 -53 -61 -124q-17 -19 -33 -8q-14 9 -5 24q11 17 22.5 51t12.5 58q1 13 19 17z" />
    <glyph glyph-name="numbersign" unicode="#" horiz-adv-x="684" 
d="M358 722l-3 -1q20 -1 31.5 -6t14 -10t0.5 -10l-77 -242l123 -1l82 259q4 13 23 11q20 -1 31.5 -6t14 -10t0.5 -10l-77 -244l105 -1q8 0 13 -5.5t5 -12.5t-5 -12.5t-13 -5.5l-116 1l-46 -147h123q7 0 12.5 -5.5t5.5 -12.5t-5.5 -12.5t-12.5 -5.5h-134l-70 -223
q-5 -15 -27 -15q-14 0 -29 8q-17 7 -12 22l66 208h-124l-70 -223q-5 -15 -27 -15q-14 0 -29 8q-17 7 -12 22l66 208h-128q-7 0 -12.5 5.5t-5.5 12.5t5.5 12.5t12.5 5.5h139l47 149l-127 1q-8 0 -13 5.5t-5 12.5t5 12.5t13 5.5l138 -1l81 257q4 13 23 11zM313 417l-48 -148
h124l47 147z" />
    <glyph glyph-name="dollar" unicode="$" horiz-adv-x="525" 
d="M439 551v-1q-13 12 0 25q11 13 11 31q0 28 -19 50q-14 16 -28 21l-78 -249q24 -38 59 -76q61 -68 61 -150q0 -18 -3 -36q-17 -87 -89 -134t-164 -42l-13 -42q-6 -16 -22 -11q-16 6 -11 22l11 36q-81 14 -104 78q-9 23 -9 49q0 48 26 92t61 57q16 5 22 -11q2 -7 -1 -13.5
t-10 -8.5q-23 -8 -43 -45t-20 -74q0 -19 6 -35q18 -46 80 -56h3l111 357q-68 97 -68 175q0 74 62 126q44 37 109 30l8 25q2 7 8.5 10t13.5 1q16 -6 11 -22l-7 -23q30 -11 45 -29q27 -34 27 -72q0 -33 -21 -55q-12 -13 -25 0zM201 25l1 -1q66 1 113 43.5t57 103.5
q14 87 -50 158l-19 22zM367 679q-17 -4 -38 -22q-50 -42 -50 -101q0 -39 23 -87z" />
    <glyph glyph-name="percent" unicode="%" 
d="M654 726v-1q20 -15 7 -33l-554 -714q-14 -17 -45 -2q-34 17 -17 40l554 714q6 8 18.5 9.5t36.5 -13.5zM179 625q6 43 41 72.5t92 29.5q44 0 74.5 -33.5t24.5 -74.5t-41 -69t-86 -32q-53 -4 -82 30t-23 77zM214 620q-4 -27 11.5 -45.5t42.5 -18.5q28 0 51.5 20.5
t28.5 48.5q4 27 -11.5 45.5t-42.5 18.5q-28 0 -51.5 -20.5t-28.5 -48.5zM289 87q6 43 41 72.5t92 29.5q44 0 74.5 -33.5t24.5 -74.5t-41 -69t-86 -32q-53 -4 -82 30t-23 77zM324 82q-4 -27 11.5 -45.5t42.5 -18.5q28 0 51.5 20.5t28.5 48.5q4 27 -11.5 45.5t-42.5 18.5
q-28 0 -51.5 -20.5t-28.5 -48.5z" />
    <glyph glyph-name="ampersand" unicode="&#x26;" horiz-adv-x="607" 
d="M303 387v2h-27q-72 -6 -118 -72t-46 -146q0 -67 34 -109.5t102 -42.5q73 0 105 51.5t29 126.5q-2 63 -35 96q-19 -4 -35 -14q-14 -7 -21 7q-6 12 7 23q28 25 92 25q23 0 34 -1q12 -1 31 -6.5t33.5 -10t30.5 -4.5t25 8q12 11 22 -5q8 -12 -4 -24q-32 -33 -66 -33
q-28 0 -72 25l-12 6q21 -32 24 -77q3 -53 -15 -106t-63.5 -92.5t-109.5 -39.5q-58 0 -99.5 17t-63.5 46t-32 62t-10 71q0 86 54.5 162.5t148.5 84.5q-31 14 -47 47t-16 74q0 43 16 83.5t44 65.5q61 54 130 54q43 0 76 -21.5t45 -57.5q9 -26 9 -56q0 -61 -31 -99
q-14 -17 -35 -21t-26 1q-8 2 -10.5 11.5t3.5 12.5q33 17 49 63.5t6 76.5q-14 43 -57 43q-21 0 -44 -8q-39 -12 -69.5 -58.5t-36.5 -99.5q-10 -78 34 -101q9 -5 21 -6h5q16 -2 16 -17q0 -7 -5.5 -12.5t-13.5 -4.5h-6z" />
    <glyph glyph-name="quotesingle" unicode="'" horiz-adv-x="228" 
d="M144 731v-1q20 5 30 1.5t13 -8t2 -10.5q-3 -53 -61 -124q-17 -19 -33 -8q-14 9 -5 24q11 17 22.5 51t12.5 58q1 13 19 17z" />
    <glyph glyph-name="parenleft" unicode="(" horiz-adv-x="463" 
d="M423 728l-2 -1q2 -17 -15 -19q-84 -8 -150 -98.5t-107 -240.5q-35 -128 -35 -237q0 -114 39 -140q6 -4 7 -11.5t-4 -12.5q-9 -11 -24 -2q-92 52 -92 224q0 90 28 193q46 163 133 261.5t203 100.5q17 0 19 -17z" />
    <glyph glyph-name="parenright" unicode=")" horiz-adv-x="463" 
d="M40 -21l2 1q-2 17 15 19q84 8 150 98.5t107 240.5q35 128 35 237q0 115 -39 140q-6 4 -7 11.5t4 12.5q9 11 24 2q92 -52 92 -224q0 -90 -28 -193q-46 -163 -133 -261.5t-203 -100.5q-17 0 -19 17z" />
    <glyph glyph-name="asterisk" unicode="*" horiz-adv-x="319" 
d="M207 731l1 -1q7 -1 11 -7.5t2 -13.5l-10 -46l43 24q15 9 24 -6t-6 -24l-62 -34l48 -48q12 -13 0 -25t-25 0l-39 39l-12 -53q-1 -7 -7.5 -11t-13.5 -2q-7 1 -11 7.5t-2 13.5l12 52l-45 -25q-15 -9 -24 6t6 24l54 30l-45 45q-12 12 0 25t25 0l42 -42l13 59q1 7 7.5 11
t13.5 2z" />
    <glyph glyph-name="plus" unicode="+" horiz-adv-x="465" 
d="M78 231l-1 1q0 8 5.5 13t12.5 5h124l42 133q4 15 30 15q19 0 33.5 -8.5t10.5 -20.5l-38 -120h111q8 0 13 -5.5t5 -12.5t-5 -12.5t-13 -5.5h-122l-47 -148q-6 -17 -30 -17q-18 0 -32.5 9.5t-10.5 21.5l43 134h-113q-8 0 -13 5.5t-5 12.5z" />
    <glyph glyph-name="comma" unicode="," horiz-adv-x="160" 
d="M14 8l-1 2q0 16 11.5 28t28.5 12t28.5 -12t11.5 -28q0 -23 -15 -48t-34 -39q-15 -11 -25 -2q-12 11 -1 24q11 11 22 25q-26 10 -26 38z" />
    <glyph glyph-name="hyphenminus" unicode="-" horiz-adv-x="422" 
d="M82 242q5 14 13.5 23.5t15.5 9.5h263q7 0 9.5 -9.5t-2.5 -23.5t-13.5 -23.5t-15.5 -9.5h-263q-7 0 -9.5 9.5t2.5 23.5z" />
    <glyph glyph-name="period" unicode="." horiz-adv-x="158" 
d="M13 8q0 16 11.5 28t28.5 12t28.5 -12t11.5 -28t-11.5 -28t-28.5 -12t-28.5 12t-11.5 28z" />
    <glyph glyph-name="slash" unicode="/" horiz-adv-x="722" 
d="M678 714l-563 -735q-8 -12 -34 -12q-21 0 -34 8t-4 20l565 735q8 11 38 11q20 0 31 -7t1 -20z" />
    <glyph glyph-name="zero" unicode="0" horiz-adv-x="491" 
d="M357 739v1q65 -6 95.5 -65t30.5 -147q0 -108 -34.5 -233.5t-99 -220.5t-137.5 -96q-86 -1 -129 61.5t-43 151.5q0 64 14 139.5t42 149.5t65 133.5t88.5 95t107.5 30.5zM360 697v-1q-54 0 -112.5 -82.5t-95.5 -202.5t-37 -224q0 -81 24.5 -125t72.5 -44q53 0 109 82.5
t91.5 202.5t35.5 225q0 81 -22.5 125t-65.5 44z" />
    <glyph glyph-name="one" unicode="1" horiz-adv-x="241" 
d="M111 625h-1q-11 15 3 25l102 78q9 7 32 0q36 -10 29 -32l-213 -714q-3 -8 -19 -10.5t-36 7.5q-16 10 -11 26l198 662l-59 -45q-15 -11 -25 3z" />
    <glyph glyph-name="two" unicode="2" horiz-adv-x="524" 
d="M-3 -2l1 -3q-6 -1 -10.5 3.5t-5.5 9.5q-1 7 3 13.5t12 8.5q98 15 208.5 115.5t179 229t54.5 218.5q-9 57 -54 84q-22 13 -48 13q-40 0 -81 -29t-70 -78q-23 -40 -23 -101q0 -45 12.5 -85t34.5 -58q5 -5 1.5 -12.5t-10.5 -10.5q-9 -4 -31.5 5.5t-35.5 32.5q-24 44 -24 98
q0 76 44 150q33 56 87 93.5t116 37.5q41 0 83 -19q30 -14 55 -58q21 -36 21 -89q0 -130 -118.5 -292t-257.5 -239q76 -3 150 10.5t91 32.5q11 13 25 -1q12 -12 0 -25q-63 -73 -159 -73q-31 0 -100.5 10t-107.5 10q-28 0 -42 -2z" />
    <glyph glyph-name="three" unicode="3" horiz-adv-x="432" 
d="M226 381l3 -3q67 -10 112 -60.5t45 -122.5q0 -45 -19 -93q-18 -44 -55 -73t-75.5 -39.5t-81.5 -10.5q-33 0 -60 6q-49 10 -79.5 40.5t-21.5 73.5q2 10 11.5 12.5t17 -3.5t5.5 -16q-5 -24 14.5 -44.5t58.5 -28.5q24 -4 36 -4q97 0 148 101q19 38 19 82q0 65 -40 112.5
t-109 48.5q-16 0 -16.5 16.5t15.5 18.5q69 5 136 74t61 139q-2 27 -19 50q-28 37 -64 37q-29 0 -62 -24q-31 -23 -44 -52t-2 -52q5 -9 -1 -17t-16 -7.5t-15 9.5q-9 19 -9 39q0 61 65 109q51 37 112 37q65 0 98 -46q31 -41 31 -94q0 -72 -56.5 -134.5t-142.5 -80.5z" />
    <glyph glyph-name="four" unicode="4" horiz-adv-x="429" 
d="M433 736h-1q20 -5 29.5 -14.5t6.5 -17.5l-116 -364l13 -3q7 -1 11 -7.5t2 -13.5q-1 -7 -7.5 -11t-13.5 -2l-16 3l-98 -306q-2 -6 -7 -11.5t-18.5 -9.5t-33.5 4q-16 5 -11 22l99 309q-45 3 -98 3q-84 0 -139 -7q-6 0 -10 3q-17 10 -6 25q116 168 210 383q8 18 39 9
q42 -11 30 -38q-78 -178 -184 -340q42 3 82 3q53 0 89 -4l118 369q7 22 30 16z" />
    <glyph glyph-name="five" unicode="5" horiz-adv-x="440" 
d="M-32 75l1 1q15 9 24 -5q33 -52 94 -52q18 0 44 7q68 20 119.5 85.5t51.5 149.5q0 33 -11 72q-6 20 -15 34.5t-22.5 23.5t-24.5 15t-30 8.5t-29 3.5t-32 1.5t-29 0.5q-8 1 -12.5 7.5t-2.5 14.5q38 143 96 280q5 11 16 11h234q8 0 13 -5.5t5 -12.5t-5 -12.5t-13 -5.5h-182
q-49 -116 -85 -243q27 0 41 -1t42 -7t45.5 -17t36 -33t27.5 -54q13 -43 13 -88q0 -97 -56 -172t-134 -94q-47 -11 -81 -11q-97 0 -144 74q-9 15 5 24z" />
    <glyph glyph-name="six" unicode="6" horiz-adv-x="469" 
d="M462 691q-11 5 -30 5q-68 0 -153.5 -84t-152.5 -253q36 23 81 23q40 0 76 -17.5t56 -46.5q32 -48 32 -111q0 -45 -18 -95q-23 -62 -76.5 -98.5t-108.5 -36.5q-20 0 -38 6q-58 18 -90 69.5t-32 128.5t30 163q10 28 16 42q68 170 162.5 261t188.5 91q35 0 69 -14
q50 -23 32 -43q-11 -13 -24 -2q-8 7 -20 12zM99 284l1 -2q-20 -71 -20 -126q0 -56 18.5 -90t46.5 -45q37 -13 74.5 13.5t61.5 93.5q15 40 15 80q0 73 -40 113q-22 22 -56 22q-56 0 -101 -59z" />
    <glyph glyph-name="seven" unicode="7" horiz-adv-x="414" 
d="M84 716h2q1 7 6.5 11.5t12.5 3.5q54 -6 149 -6q96 0 157 6q18 2 31 -11q22 -22 17 -30q-103 -128 -205 -312h41q7 0 12.5 -5t5.5 -13t-5.5 -13t-12.5 -5l-60 1q-98 -183 -164 -363q-9 -27 -55 3q-15 9 -11 22q59 162 150 338l-54 1q-7 0 -12.5 5t-5.5 13t5.5 13t12.5 5
l72 -1q94 176 199 315q-54 -3 -120 -3q-96 0 -153 6q-7 1 -11.5 6.5t-3.5 12.5z" />
    <glyph glyph-name="eight" unicode="8" horiz-adv-x="512" 
d="M302 254l-2 2q-11 28 -47.5 76t-45.5 64q-66 -51 -103 -152q-20 -51 -20 -102q0 -96 74 -124q21 -7 37 -7q14 0 32 6q41 17 68 55.5t27 90.5q0 44 -20 91zM190 428l1 3q-14 35 -14 75q0 69 40 131t91 88q26 13 64 13q40 0 74.5 -16.5t50.5 -49.5q26 -51 26 -107
q0 -71 -43.5 -136t-125.5 -113q29 -61 29 -123q0 -68 -35 -121t-97 -78q-32 -13 -65 -13q-19 0 -42 5q-68 16 -103 65t-35 114q0 41 16 86q27 72 72.5 115t95.5 62zM264 450l-2 -1q10 -17 37.5 -51t36.5 -49q113 131 113 233q0 40 -18 77q-23 45 -64 45q-20 0 -44 -11
q-39 -20 -62.5 -59.5t-23.5 -86.5q0 -50 27 -97z" />
    <glyph glyph-name="nine" unicode="9" horiz-adv-x="481" 
d="M20 27q11 -5 30 -5q67 0 152.5 84.5t152.5 252.5q-36 -23 -81 -23q-39 0 -75 17.5t-56 46.5q-32 48 -32 111q0 45 18 95q23 62 76.5 98.5t108.5 36.5q20 0 38 -6q58 -18 90 -69.5t32 -128.5t-30 -163q-10 -28 -16 -42q-68 -170 -162.5 -261t-188.5 -91q-35 0 -69 14
q-50 23 -32 43q11 13 24 2q8 -7 20 -12zM383 434l-1 2q20 71 20 126q0 56 -18.5 90t-46.5 45q-37 13 -74.5 -13.5t-61.5 -93.5q-15 -40 -15 -80q0 -73 40 -113q22 -22 56 -22q56 0 101 59z" />
    <glyph glyph-name="colon" unicode=":" horiz-adv-x="233" 
d="M40 40q0 16 12 28t28 12t28 -12t12 -28t-12 -28t-28 -12t-28 12t-12 28zM113 336q0 16 11.5 28t28.5 12t28.5 -12t11.5 -28t-11.5 -28t-28.5 -12t-28.5 12t-11.5 28z" />
    <glyph glyph-name="semicolon" unicode=";" horiz-adv-x="233" 
d="M113 336q0 16 11.5 28t28.5 12t28.5 -12t11.5 -28t-11.5 -28t-28.5 -12t-28.5 12t-11.5 28zM40 40l-1 2q0 16 11.5 28t28.5 12t28.5 -12t11.5 -28q0 -23 -15 -48t-34 -39q-15 -11 -25 -2q-12 11 -1 24q11 11 22 25q-26 10 -26 38z" />
    <glyph glyph-name="less" unicode="&#x3c;" horiz-adv-x="399" 
d="M352 329l-202 -125l163 -92q14 -9 5 -24q-9 -14 -24 -5l-186 106q-10 6 -23 26t-3 27l225 139q17 11 41 -13q22 -22 8 -36z" />
    <glyph glyph-name="equal" unicode="=" horiz-adv-x="484" 
d="M110 329q5 14 13.5 23.5t15.5 9.5h297q7 0 9.5 -10t-2.5 -23q-5 -14 -13.5 -23.5t-15.5 -9.5h-297q-7 0 -9.5 10t2.5 23zM80 203q5 14 13.5 23.5t15.5 9.5h297q7 0 9.5 -10t-2.5 -23q-5 -14 -13.5 -23.5t-15.5 -9.5h-297q-7 0 -9.5 10t2.5 23z" />
    <glyph glyph-name="greater" unicode="&#x3e;" horiz-adv-x="361" 
d="M48 136l202 125l-163 92q-14 9 -5 24q9 14 24 5l186 -106q10 -6 23 -26t3 -27l-225 -139q-17 -11 -41 13q-22 22 -8 36q2 2 4 3z" />
    <glyph glyph-name="question" unicode="?" horiz-adv-x="492" 
d="M122 95h-3q-3 -10 -12.5 -11.5t-16 5.5t-4.5 17q14 67 38.5 112t54 69.5t59 44t61.5 51t54 74.5q27 53 27 110q0 50 -22 86t-65 45q-64 13 -102 -30.5t-38 -106.5q0 -69 42 -106q15 -14 6.5 -23.5t-28.5 -9.5q-19 0 -31 9q-48 35 -48 109q0 58 29 111q55 98 167 85
q74 -9 118.5 -65t44.5 -130q0 -49 -21 -96q-24 -53 -59 -88.5t-68.5 -55.5t-67 -41.5t-64.5 -62t-51 -102.5zM37 9q0 17 11.5 28.5t28.5 11.5t28.5 -11.5t11.5 -28.5t-11.5 -28.5t-28.5 -11.5t-28.5 11.5t-11.5 28.5z" />
    <glyph glyph-name="at" unicode="@" horiz-adv-x="770" 
d="M499 457v3q7 -8 2.5 -17t-13 -10.5t-16.5 5.5q-11 13 -24 19q-30 15 -66 -12.5t-64 -83.5q-19 -38 -19 -76q0 -41 19 -48q29 -11 62 27.5t65 111.5q0 1 2.5 7.5t4.5 10.5t5.5 9t9 7t12.5 1q25 -3 42 -15.5t11 -31.5q-23 -80 -23 -132q0 -34 8.5 -52t20.5 -16
q38 4 65.5 43t44.5 135q7 44 7 74q0 105 -54 173t-155 63q-146 -7 -238 -116.5t-96 -289.5q-2 -115 76.5 -185t183.5 -70q99 0 168 63q8 7 17.5 3t11.5 -12.5t-5 -16.5q-76 -70 -197 -70q-59 0 -115.5 20t-103 57t-76 97.5t-31.5 134.5q-5 169 104 286.5t300 132.5
q130 10 208 -75t78 -214q0 -34 -6 -70q-13 -72 -53 -122t-84 -67t-79 -6q-71 22 -71 107q0 30 10 64q-62 -108 -125 -108q-15 0 -30 6q-67 27 -67 109q0 35 14 68q26 59 70 91t93 32q33 0 62 -15q19 -10 34 -29z" />
    <glyph glyph-name="A" unicode="A" horiz-adv-x="687" 
d="M-28 -30l1 -4q1 7 7.5 11t13.5 2q57 -14 150 72.5t200 239.5q-28 -3 -54 -3q-94 0 -112 50q-6 16 11 22q17 5 22 -11q10 -24 81 -24q31 0 79 5q128 191 227 399q6 14 30 12q18 -1 29 -6t13.5 -10t1.5 -9q-36 -160 -62 -360q40 -2 58 -18q12 -12 0 -25t-25 0q-7 7 -39 7
q-18 -154 -18 -240q0 -77 14 -90q16 -3 14 -19q-1 -7 -17.5 -10t-40.5 0q-29 5 -38 37q-13 42 -13 112q0 84 17 206l-77 -10l-47 -6q-255 -415 -385 -372q-20 7 -31.5 20.5t-9.5 21.5zM528 352q8 52 43 248q-83 -155 -148 -264l18 3z" />
    <glyph glyph-name="B" unicode="B" horiz-adv-x="512" 
d="M58 335l1 1q-8 -2 -26.5 12.5t-24.5 32.5q-7 23 -7 41q0 50 31.5 107.5t82 105.5t122 80t144.5 31q76 -1 127.5 -54t55.5 -121q4 -67 -19.5 -126t-74 -97.5t-117.5 -38.5q-13 0 -41 4q50 -25 76 -67t26 -91q0 -83 -66.5 -146.5t-176.5 -63.5q-79 0 -158 28q-14 5 -18 15
t1.5 17.5t14.5 6.5q15 -1 32 25t34 71.5t31 88.5t29 94.5t22 71.5q98 287 158 331q5 6 24.5 2.5t33.5 -17.5q5 -5 3.5 -12.5t-7.5 -12.5q-19 -14 -61.5 -103t-79.5 -195h6q29 -7 60 -7q79 0 127 48.5t65 122.5q7 29 7 61q0 49 -21 83t-64 43q-15 3 -33 3q-65 1 -125 -33
t-99 -84.5t-62 -106.5t-23 -102q0 -16 3 -29q4 -16 -13 -20zM220 326h-1q-9 -26 -23 -76.5t-25.5 -89.5t-26 -79t-31.5 -63.5t-35 -26.5q30 -7 59 -7q83 0 143.5 57.5t60.5 130.5q0 76 -72 128q-15 11 -43 22q-4 2 -6 4z" />
    <glyph glyph-name="C" unicode="C" horiz-adv-x="548" 
d="M375 508h1q5 -3 5.5 -13t1.5 -12q7 -19 26 -19q36 0 78 49.5t42 104.5q0 92 -72 95q-37 2 -77 -12t-84.5 -46.5t-88 -97.5t-76.5 -155q-52 -143 -52 -239q0 -101 56 -137q25 -17 66 -17q82 0 184.5 68.5t174.5 181.5q9 14 24 5q14 -9 5 -24q-76 -120 -195.5 -202
t-217.5 -82q-48 0 -82 22q-94 60 -94 213q0 104 49 241q27 75 65.5 134.5t78 95.5t82.5 59t81 30.5t72 4.5q135 -13 135 -140q0 -81 -49.5 -151t-103.5 -70q-18 0 -33 9q-35 20 -35 61q0 20 8 38q3 6 11 7.5t14 -2.5z" />
    <glyph glyph-name="D" unicode="D" horiz-adv-x="578" 
d="M339 5v3q-72 -56 -193 -56q-72 0 -135 22q-14 5 -18 15t1.5 17.5t14.5 6.5q15 -1 32 25t34 71.5t31 88.5t29 94.5t22 71.5q98 287 158 331q5 6 24.5 2.5t33.5 -17.5q5 -5 3.5 -12.5t-7.5 -12.5q-19 -14 -66 -117.5t-78 -194.5q-6 -17 -37 -127t-56.5 -165t-54.5 -59
q20 -5 44 -5q89 0 148 48q97 77 161.5 220.5t64.5 289.5q0 21 -1 31q-5 114 -84 132q-15 3 -33 3q-65 1 -125 -33t-99 -84.5t-62 -106.5t-23 -102q0 -16 3 -29q4 -16 -13 -20q-8 -2 -26.5 12.5t-24.5 32.5q-7 23 -7 41q0 50 31.5 107.5t82 105.5t122 80t144.5 31
q75 -1 126 -54t56 -121q2 -32 2 -48q0 -163 -70.5 -307t-154.5 -211z" />
    <glyph glyph-name="E" unicode="E" horiz-adv-x="499" 
d="M317 446l2 1q3 14 21 12q49 -3 99 63t50 126q0 58 -57 67q-95 13 -159 -51.5t-80 -150.5q-4 -19 -4 -42q0 -47 20.5 -79t58.5 -39q18 -4 13 -22q-3 -13 -17 -13q-82 0 -132.5 -63t-50.5 -141q0 -53 25.5 -86t74.5 -33q154 0 332 264q9 14 24 5q14 -9 5 -24
q-193 -287 -371 -287q-75 0 -122.5 40.5t-47.5 122.5q0 81 50 150.5t152 79.5q-43 15 -66 55t-23 94q0 88 53 159q40 54 95.5 82t112.5 28q19 0 37 -3q59 -10 88.5 -49.5t29.5 -92.5q0 -74 -48.5 -136t-118.5 -62q-18 0 -33 4q-7 1 -11 7.5t-2 13.5z" />
    <glyph glyph-name="F" unicode="F" horiz-adv-x="403" 
d="M460 671l-3 3q-52 -40 -91.5 -121t-79.5 -205l-6 -21q51 -4 68 8q9 6 17.5 1t9.5 -14t-7 -16q-24 -17 -64 -17q-10 0 -34 2q-50 -164 -74 -214q-59 -109 -144 -112q-37 0 -49 21q-7 11 4 13h4q62 -4 106 83q24 49 76 217q-46 3 -72 -12q-9 -5 -17.5 0.5t-8.5 14.5t8 15
q36 21 101 16q2 8 8 24q75 233 154 317q-36 -1 -105 2.5t-95 3.5q-100 0 -117 -33q-8 -15 -23 -11t-11 20q21 81 129 81q43 0 133.5 -15.5t126.5 -15.5q26 18 53 25q37 11 79 11q46 0 51 -20q3 -15 -10 -26t-33 -16q-26 -7 -84 -9z" />
    <glyph glyph-name="G" unicode="G" horiz-adv-x="521" 
d="M350 419v2q-32 0 -44 23q-9 16 4 20h3q20 1 57 32t66.5 79t25.5 86q-3 32 -21 46.5t-60 8.5q-94 -12 -196 -153q-50 -70 -79 -150t-29 -146q0 -87 49 -119q32 -20 90.5 12.5t118.5 107t92 160.5q5 14 36.5 2.5t29.5 -25.5q-21 -219 -128 -368q-34 -49 -85 -77t-102 -28
q-48 0 -86 27q-8 6 -6.5 16t9.5 14t17 -1q25 -17 51 -17q69 0 141 101q68 95 101 233q-55 -89 -128.5 -149t-140.5 -60q-40 0 -72 23q-65 47 -65 151q0 74 32 160.5t83 157.5q112 158 244 172q62 6 98 -22.5t41 -75.5q4 -46 -17 -103.5t-57.5 -98.5t-72.5 -41z" />
    <glyph glyph-name="H" unicode="H" horiz-adv-x="635" 
d="M43 384l-2 1q-16 4 -30 25.5t-13 39.5q2 78 70 151t148.5 110.5t130.5 30.5q31 -5 57.5 -24.5t25.5 -54.5q-4 -103 -76 -312l39 -6q59 -10 101 -14q82 268 152 401q7 13 22 10q16 -4 27.5 -10t15.5 -12t2 -10q-67 -128 -143 -376l7 3q15 11 26 -4q11 -14 -4 -25
q-16 -12 -41 -15l-25 -87q-21 -76 -29.5 -143t-1.5 -77q9 -13 -2 -24q-4 -6 -24 0t-33 19q-13 14 -13 54q0 65 34 191l20 69q-10 1 -95 15l-44 6l-36 -97q-43 -113 -80.5 -176.5t-79.5 -75.5q-21 -6 -37 -6q-29 0 -31 11q-2 7 2 13.5t11 7.5q24 6 63.5 72.5t77.5 166.5
l33 88q-32 -3 -44 -14q-13 -13 -26 0q-12 12 0 25q27 23 83 25q73 210 79 325q1 13 -2.5 17t-14.5 6q-27 4 -76.5 -21.5t-97.5 -67t-81 -101t-27 -114.5q1 -7 -5 -12t-13 -4z" />
    <glyph glyph-name="I" unicode="I" horiz-adv-x="397" 
d="M48 390l1 -3q-16 4 -32 24.5t-16 34.5q-2 77 66.5 150.5t151 111t132.5 30.5q31 -5 57.5 -24.5t25.5 -54.5q-5 -132 -124 -442q-43 -113 -80.5 -176.5t-79.5 -75.5q-21 -6 -37 -6q-29 0 -31 11q-2 7 2 13.5t11 7.5q24 6 63.5 72.5t77.5 166.5q117 305 125 451
q1 13 -2.5 17t-14.5 6q-27 4 -76 -20.5t-96 -65t-79.5 -99t-26.5 -113.5q1 -7 -5 -12t-13 -4z" />
    <glyph glyph-name="J" unicode="J" horiz-adv-x="621" 
d="M346 462h1q7 -8 3.5 -16t-12.5 -9.5t-19 4.5q-22 15 -33 43q-16 43 26 106.5t115.5 110t136.5 43.5q36 -2 62.5 -20.5t27.5 -53.5q3 -93 -117 -446q-49 -142 -140 -227t-197 -85q-60 0 -120 30q-35 18 -57.5 59.5t-22.5 91.5q0 47 22 92q25 50 63.5 75.5t81.5 25.5
q29 0 53 -10q26 -10 43.5 -45.5t8.5 -64.5q-13 -43 -33 -43q-13 0 -12 18q0 3 1 7q3 12 -7 41t-28 35q-22 6 -35 6q-68 0 -107 -77q-19 -38 -19 -73q0 -36 17.5 -65t44.5 -42q33 -17 72 -17q87 0 170.5 81.5t127.5 208.5q56 163 90.5 297t22.5 157q-3 7 -21 7
q-59 -1 -118 -52t-85.5 -109.5t-6.5 -83.5z" />
    <glyph glyph-name="K" unicode="K" horiz-adv-x="701" 
d="M790 736l2 -2q23 -5 22 -88q0 -43 -74.5 -120.5t-181 -146t-187.5 -82.5q18 -49 38.5 -94t49.5 -96t63.5 -81.5t68.5 -30.5q9 0 17 3q16 7 23 -9q6 -15 -22 -33q-29 -18 -59 -18q-41 0 -77.5 30t-64 80t-47 102t-34.5 110l-18 -45q-43 -113 -80.5 -176.5t-79.5 -75.5
q-21 -6 -37 -6q-29 0 -31 11q-2 7 2 13.5t11 7.5q24 6 63.5 72.5t77.5 166.5q117 305 125 451q1 13 -2.5 17t-14.5 6q-27 4 -76 -20.5t-96 -65t-79.5 -99t-26.5 -113.5q1 -7 -5 -12t-13 -4q-16 4 -32 24.5t-16 34.5q-2 77 66.5 150.5t151 111t132.5 30.5q31 -5 57.5 -24.5
t25.5 -54.5q-4 -105 -81 -327q67 4 170.5 84.5t177.5 172.5t71 132q-1 7 6 11.5t14 2.5z" />
    <glyph glyph-name="L" unicode="L" horiz-adv-x="582" 
d="M392 373v-1q132 71 202 198q23 42 23 78q0 34 -17 47q-10 5 -23 6t-36 -14.5t-47 -47.5q-6 -8 -12 -18t-12.5 -24t-11 -24.5t-11.5 -29.5t-11 -30t-11.5 -34t-10.5 -33t-11 -37t-11 -36zM378 326q-36 -111 -75 -188t-98 -119q137 -42 217 -42q44 0 60 15q13 11 26 2
t3 -23q-40 -59 -107 -59q-49 0 -137.5 38.5t-105.5 42.5q-41 -16 -75 -20q-28 -3 -55.5 4t-28.5 27q0 5 1 9.5t4 7.5l5.5 5.5t8 4t8.5 2.5t9.5 1.5t9 0.5t8.5 0.5t7 0.5q23 1 56 -5q59 28 96.5 94t72.5 171q-50 -16 -90 -16q-74 0 -110 49q-6 9 -1.5 17.5t13.5 10t16 -6.5
q24 -34 84 -34q48 0 102 22q3 9 15.5 50t17 55t16 48.5t18.5 51.5t17.5 42t20.5 42t20 31q27 37 68 57t78 20q30 0 47 -13q31 -24 31 -73q0 -45 -27 -96q-42 -77 -107 -135.5t-139 -91.5z" />
    <glyph glyph-name="M" unicode="M" horiz-adv-x="698" 
d="M87 400l-1 3q4 -19 -12 -18q-24 2 -42 31q-10 18 -12 37q-4 59 40 118t107 97.5t126.5 59.5t98.5 13q19 -2 36.5 -12.5t21.5 -28.5q11 -47 11 -136q0 -141 -20 -266q122 228 172 306q38 60 85 122q10 13 38 -4.5t22 -31.5q-67 -140 -120.5 -352t-53.5 -324q0 -33 6 -51
t-18 -19q-32 -1 -54 20q-6 5 -9 12q-5 13 -5 37q0 76 39.5 240t94.5 320q-75 -119 -206 -376q-17 -32 -50 -32q-12 0 -20 5t-7 12q40 244 46 380q-41 -131 -96.5 -263t-122.5 -234.5t-116 -105.5q-24 -1 -43.5 9t-21.5 19q-2 7 2 13.5t11 7.5q66 11 149 133.5t145.5 272.5
t88.5 269q2 13 0 16.5t-11 5.5q-48 8 -125.5 -39.5t-132.5 -125t-41 -140.5z" />
    <glyph glyph-name="N" unicode="N" horiz-adv-x="638" 
d="M87 400v1q4 -19 -12 -18q-24 2 -42 31q-10 18 -12 37q-4 59 40 118t107 97.5t126.5 59.5t98.5 13q14 -1 46 -17.5t31 -33.5q-1 -42 -6.5 -94t-15 -125.5t-13.5 -110.5q-18 -153 -18 -231q0 -38 3 -64.5t6 -36t6 -9.5q32 0 151 491q32 129 75.5 186.5t113.5 53.5
q19 -2 21 -16q1 -7 -4 -12.5t-12 -6.5q-79 -10 -170 -330q-106 -375 -159 -413q-19 -14 -49 2t-38 44q-13 45 -13 111q0 80 18 235l16 140q-43 -128 -95.5 -245.5t-114 -206.5t-106.5 -91q-24 -1 -43.5 9t-21.5 19q-2 7 2 13.5t11 7.5q66 11 149 133.5t145.5 272.5t88.5 269
q2 13 0 16.5t-11 5.5q-48 8 -125.5 -39.5t-132.5 -125t-41 -140.5z" />
    <glyph glyph-name="O" unicode="O" horiz-adv-x="512" 
d="M217 625v-1q65 117 175 117q65 0 95.5 -51.5t30.5 -132.5q0 -111 -45.5 -246t-126.5 -236t-168 -101q-178 1 -178 200q0 120 63 284q43 113 91 170q5 7 28 7q21 0 35 -10zM188 558l-1 1q-29 -46 -55 -113q-56 -148 -56 -273q0 -132 66 -157q18 -6 36 -6q68 0 140.5 91.5
t118 220t45.5 235.5q0 149 -91 149q-53 0 -91 -47t-54.5 -109.5t-16.5 -129.5q0 -91 29 -125q14 -17 1 -25q-17 -6 -33.5 -0.5t-24.5 12.5q-37 33 -37 129q0 73 24 147z" />
    <glyph glyph-name="P" unicode="P" horiz-adv-x="480" 
d="M82 -14l-1 4q-21 -13 -43 -13q-18 0 -30 6q-14 6 -17 14t3 13.5t15 4.5q15 -1 32 25t34 71.5t31 88.5t29 94.5t22 71.5q98 287 158 331q5 6 24.5 2.5t33.5 -17.5q5 -5 3.5 -12.5t-7.5 -12.5q-19 -14 -65 -119.5t-82 -220.5q24 -6 47 -6q77 0 137.5 58.5t80.5 152.5
q7 29 7 61q0 49 -21 83t-64 43q-15 3 -33 3q-65 1 -125 -33t-99 -84.5t-62 -106.5t-23 -102q0 -16 3 -29q4 -16 -13 -20q-8 -2 -26.5 12.5t-24.5 32.5q-7 23 -7 41q0 50 31.5 107.5t82 105.5t122 80t144.5 31q76 -1 127.5 -54t55.5 -121q3 -49 -12.5 -100.5t-46 -97.5
t-83.5 -75.5t-118 -29.5q-43 0 -91 13q-9 -27 -26 -86t-27.5 -91t-31 -68t-44.5 -51z" />
    <glyph glyph-name="Q" unicode="Q" horiz-adv-x="529" 
d="M427 -23q-34 -62 -105 -62q-44 0 -109.5 25t-114.5 41.5t-69 0.5q-14 -11 -25 2t2 24q19 16 53 18q-44 51 -44 147q0 121 63 285q43 113 91 170q5 7 28 7q21 0 35 -10q65 117 175 117q65 0 95.5 -51.5t30.5 -132.5q0 -96 -35 -213.5t-99.5 -218t-137.5 -135.5
q40 -7 66 -7q50 0 80 22q15 10 21 -3.5t-1 -25.5zM205 559l-1 1q-29 -46 -55 -113q-56 -148 -56 -273q0 -132 66 -157q18 -6 36 -6q68 0 140.5 91.5t118 220t45.5 235.5q0 149 -91 149q-53 0 -91 -47t-54.5 -109.5t-16.5 -129.5q0 -91 29 -125q14 -17 1 -25
q-17 -6 -33.5 -0.5t-24.5 12.5q-37 33 -37 129q0 74 24 147z" />
    <glyph glyph-name="R" unicode="R" horiz-adv-x="547" 
d="M82 -14l-2 3q-21 -13 -43 -13q-18 0 -30 6q-14 6 -17 14t3 13.5t15 4.5q15 -1 32 25t34 71.5t31 88.5t29 94.5t22 71.5q98 287 158 331q5 6 24.5 2.5t33.5 -17.5q5 -5 3.5 -12.5t-7.5 -12.5q-19 -14 -65 -119.5t-82 -220.5q24 -6 47 -6q77 0 137.5 58.5t80.5 152.5
q7 29 7 61q0 49 -21 83t-64 43q-15 3 -33 3q-65 1 -125 -33t-99 -84.5t-62 -106.5t-23 -102q0 -16 3 -29q4 -16 -13 -20q-8 -2 -26.5 12.5t-24.5 32.5q-7 23 -7 41q0 50 31.5 107.5t82 105.5t122 80t144.5 31q76 -1 127.5 -54t55.5 -121q3 -51 -13.5 -104.5t-50 -100.5
t-91 -74.5t-128.5 -22.5q21 -28 44.5 -80t39.5 -91t41.5 -68t55.5 -27q7 1 12.5 -3.5t6.5 -11.5q2 -20 -59 -30q-50 -8 -86.5 38t-53 106.5t-34.5 116.5t-34 63q-9 -27 -26 -86t-27.5 -91t-31 -68t-44.5 -51z" />
    <glyph glyph-name="S" unicode="S" horiz-adv-x="577" 
d="M516 490v-1q77 45 102 128q7 22 7 38q0 30 -19 37q-15 5 -36 -10.5t-32 -52.5q-20 -67 -22 -139zM516 449l-3 1q3 -102 3 -106q0 -87 -19 -158q-31 -119 -109.5 -183.5t-177.5 -64.5q-51 0 -102 18q-49 18 -79.5 60t-30.5 97q0 27 7 52t18 45q22 44 58 66t74 22
q28 0 54 -13q51 -27 51 -81q0 -25 -14 -53q-6 -9 -15 -9.5t-15 8t-1 17.5q10 20 10 38q0 33 -32 48q-20 9 -38 9q-65 0 -101 -70q-9 -16 -15 -39q-6 -21 -6 -42q0 -42 24 -74t65 -43q22 -6 47 -6q79 0 151 56t99 161q21 82 21 147q0 17 -2 65q-45 -15 -90 -15
q-44 0 -76.5 15.5t-42.5 45.5q-5 11 -2 23t15 13q8 0 13 -5.5t5 -12.5q0 -4 2 -10q6 -15 30.5 -25t58.5 -10q42 0 86 17q0 124 23 198q14 45 44.5 66t67.5 20q45 -1 66 -25t21 -61q0 -19 -7 -44q-34 -107 -136 -158z" />
    <glyph glyph-name="T" unicode="T" horiz-adv-x="384" 
d="M58 618l-2 -2q-15 9 -6 24q68 116 303 116q59 0 165.5 -8.5t143.5 -8.5q77 0 99 22q13 13 25 0q11 -11 0 -25q-45 -59 -169 -59q-37 0 -119 8q-45 -14 -83 -84t-61 -152.5t-57.5 -191.5t-66.5 -174q-29 -59 -70.5 -91t-83.5 -32q-35 0 -67 23q-14 11 -8 24q7 16 24 9
q18 -9 33 -9q49 0 94 92q26 53 55.5 150t51.5 177t59.5 158.5t81.5 112.5q-67 8 -122 8q-148 0 -196 -81q-9 -15 -24 -6z" />
    <glyph glyph-name="U" unicode="U" horiz-adv-x="703" 
d="M582 -77l-1 2q-12 -17 -56 16q-31 24 -31 85q0 60 35 187q-53 -109 -107 -168.5t-120 -59.5q-49 0 -81 30t-32 84q0 61 43 174t86 229t43 185v5.5v5v4t-1.5 3.5l-3 2t-5 1.5t-7.5 0.5q-30 2 -79.5 -24t-96.5 -66.5t-78.5 -99.5t-25.5 -115q1 -7 -5 -12t-14 -5
q-10 0 -27 20t-18 43q-2 56 37.5 113t96 95.5t115.5 62.5t96 22q28 -2 57.5 -22t29.5 -50q0 -62 -27 -154t-59.5 -169.5t-59.5 -157.5t-27 -120q0 -51 42 -51q166 0 400 712q4 14 18 10q28 -5 39.5 -20t8.5 -26q-8 -26 -74 -213.5t-99 -304.5t-33 -181q0 -35 11 -49
q14 -18 10 -24z" />
    <glyph glyph-name="V" unicode="V" horiz-adv-x="593" 
d="M60 404h1q2 -20 -14 -19q-21 1 -36 31q-7 15 -9 33q-8 77 60.5 150t153.5 110.5t135 30.5q29 -5 57.5 -23t25.5 -41q-24 -152 -48 -352t-28 -299q39 79 100 216t99.5 220t89.5 162t95 105q26 15 52 0q20 -12 4 -26q-2 -2 -5 -3q-27 -16 -59 -53t-70.5 -101t-71 -122
t-80 -154.5t-76 -156t-79.5 -167.5q-10 -21 -35 -9t-32 39q-4 13 -4 49q0 172 75 657q2 13 -1 17.5t-15 6.5q-48 7 -118.5 -38.5t-122 -121t-44.5 -141.5z" />
    <glyph glyph-name="W" unicode="W" horiz-adv-x="924" 
d="M59 391l-3 -3q0 -24 -18 -17q-23 9 -35 46q-4 15 -5 29q-3 59 37.5 117t98 96.5t117.5 60.5t96 17q31 -5 60.5 -28.5t25.5 -60.5q-8 -76 -50 -201t-79 -234.5t-37 -159.5q0 -23 5 -30.5t15 -7.5q21 0 43 15.5t43 44.5t41 62.5t39.5 79t35.5 83.5t33 86.5t27 78t22 68
t15 46.5q6 9 23.5 6.5t35 -14t14.5 -20.5q0 -1 -9.5 -33t-19.5 -67t-23 -87t-23 -99t-16.5 -97t-6.5 -86q0 -40 11 -66.5t29 -16.5q74 40 136 156t93 236.5t46 217.5t6 110q-7 11 10 17q29 9 54 -19q7 -7 12 -16q6 -11 6 -36q0 -59 -31.5 -170t-80 -225.5t-117 -204
t-132.5 -101.5q-55 -10 -87.5 31t-32.5 95q0 51 13 129q-48 -107 -98 -172t-109 -65q-36 0 -65.5 24t-29.5 68q0 71 79 299.5t88 308.5q1 13 -2 17.5t-14 5.5q-38 3 -88 -23t-94 -69.5t-74 -103.5t-30 -118z" />
    <glyph glyph-name="X" unicode="X" horiz-adv-x="670" 
d="M25 406h-1q-7 -2 -13.5 2t-7.5 11q-3 13 -3 27q0 53 37 123t92.5 121.5t103.5 51.5q28 0 46 -5t38.5 -22.5t35.5 -51.5t31.5 -92t33.5 -145q13 19 41.5 64t42.5 66t39 56.5t42 53.5t38.5 38.5t41.5 29t39 8.5q21 0 42 -12q14 -9 4 -25q-7 -11 -24 -4q-26 11 -109.5 -81
t-185.5 -244q17 -88 31.5 -150t33 -120t39 -86t42.5 -25q7 1 12.5 -3.5t6.5 -11.5q1 -5 -2.5 -10t-16.5 -11t-35 -10q-23 -4 -43 6t-36 35t-29 54.5t-25 73t-20.5 80.5t-18.5 87q-36 -56 -52 -80.5t-47 -69.5t-50 -65.5t-45.5 -46t-49.5 -35.5t-46 -10q-18 0 -34 6
q-7 2 -9.5 9t0.5 14q5 12 23 10q37 -4 115.5 81.5t184.5 238.5l-12 59q-61 309 -113 309q-32 0 -79.5 -45.5t-82.5 -108t-35 -106.5q0 -8 2 -18q2 -7 -2 -13.5t-11 -7.5z" />
    <glyph glyph-name="Y" unicode="Y" horiz-adv-x="683" 
d="M60 398l-2 1q2 -19 -13 -18q-20 3 -36 30q-10 17 -10 34q1 83 78.5 160t168.5 114q46 18 96 18q41 0 65 -17t19 -56q-14 -102 -63.5 -245.5t-48.5 -169.5q1 -39 31 -39q28 0 60 27q70 59 147 216t112 282q5 9 22 8.5t35 -10t16 -19.5q-6 -32 -11.5 -61t-19 -88.5
t-27.5 -110.5t-36 -117.5t-45 -120t-55 -108t-65.5 -91t-76 -59.5t-87.5 -23q-50 0 -81 31.5t-25 66.5q2 10 11.5 13t17.5 -3t6 -16q-1 -6 1.5 -14.5t12.5 -17.5t27 -9q56 -1 108 44t93 123t72 162t56 180q-98 -217 -181 -285q-49 -39 -104 -39q-35 0 -57.5 20.5t-23.5 62.5
q-1 48 53 200t59 226q1 27 -27 27q-24 0 -73 -21q-82 -34 -144.5 -116t-54.5 -172z" />
    <glyph glyph-name="Z" unicode="Z" horiz-adv-x="712" 
d="M220 558l-1 2q-12 1 -14 19q-7 48 7.5 81.5t48 51t73.5 24.5t94 7t161 -9t148 -9q45 0 72 7q21 6 39.5 -21.5t-2.5 -45.5q-109 -90 -304 -283q40 2 57 7q16 5 22 -11q5 -16 -11 -22q-31 -10 -105 -10q-107 -105 -195 -179.5t-191 -137.5q6 0 18 0.5t18 0.5q45 0 132 -4.5
t124 -4.5q144 0 171 52q9 15 24 6q14 -9 7 -25q-45 -99 -172 -99q-43 0 -153 16.5t-172 16.5q-40 0 -79 -6q-20 -3 -33 22t6 36q164 91 390 306q-73 4 -94 3q-7 -1 -12.5 4t-6.5 13q-1 7 4 12.5t13 6.5q9 1 32 1q17 0 55.5 -1.5t44.5 -1.5q250 243 322 306q-43 -3 -109 -4
t-114.5 -1t-104.5 -5t-93 -15.5t-64 -33.5t-33 -57q-4 -17 -20 -15z" />
    <glyph glyph-name="bracketleft" unicode="[" horiz-adv-x="477" 
d="M419 744q16 0 18 -17q0 -7 -5.5 -12.5t-12.5 -5.5h-74l-226 -702l60 -1q7 0 12.5 -5t5.5 -13t-5.5 -13t-12.5 -5l-84 1q-10 0 -23.5 2.5t-23.5 8t-8 12.5l237 737q4 13 55 13h87z" />
    <glyph glyph-name="backslash" unicode="\" horiz-adv-x="567" 
d="M131 714l395 -735q6 -10 -12 -12q-33 -3 -66 15q-11 7 -15 13l-393 735q-3 7 9 9q31 7 63 -9q14 -7 19 -16z" />
    <glyph glyph-name="bracketright" unicode="]" horiz-adv-x="477" 
d="M58 -30q-7 0 -12.5 5t-5.5 12t5 12.5t13 5.5h74l226 702l-60 1q-8 0 -13 5t-5 13t5 13t13 5l84 -1q10 0 23.5 -2.5t23.5 -8t8 -12.5l-237 -737q-4 -13 -55 -13h-87z" />
    <glyph glyph-name="asciicircum" unicode="^" horiz-adv-x="343" 
d="M45 585l2 -1q-13 12 0 25l116 117q6 7 26.5 11.5t25.5 -1.5l86 -117q11 -14 -4 -25q-18 -14 -33 -14.5t-18 6.5l-74 101l-102 -102q-12 -13 -25 0z" />
    <glyph glyph-name="underscore" unicode="_" horiz-adv-x="407" 
d="M16 9q5 10 15 17.5t18 7.5h308q8 0 10.5 -7t-2.5 -18q-13 -25 -33 -25h-308q-8 0 -10.5 7t2.5 18z" />
    <glyph glyph-name="grave" unicode="`" horiz-adv-x="170" 
d="M64 729q18 4 24 -6l40 -66q9 -15 -6 -24q-12 -8 -24 6l-57 64q-4 6 2.5 14.5t20.5 11.5z" />
    <glyph glyph-name="a" unicode="a" horiz-adv-x="424" 
d="M211 234v-1q19 -2 35 -9.5t13 -14.5q-47 -115 -54 -154t5 -39q41 -6 223 242q11 15 25 4q15 -11 4 -25q-49 -67 -78.5 -104.5t-67.5 -80t-66.5 -60t-51.5 -14.5q-37 6 -54 30.5t-13 51.5l3 12q-73 -103 -120 -88q-81 26 -81 98q0 20 8 50q20 73 75.5 137t125.5 64
q25 0 53 -11q23 -8 38 -26q11 -13 -2 -24t-24 2t-23 16q-36 12 -90 -45.5t-78 -131.5q-10 -31 -10 -55q0 -33 19 -39q27 -9 160 196l3 9q5 12 23 10z" />
    <glyph glyph-name="b" unicode="b" horiz-adv-x="472" 
d="M120 368q95 62 168 161.5t73 148.5q0 10 -2.5 13t-11.5 3q-51 0 -114 -93.5t-113 -232.5zM57 25l-1 -2q24 -11 44 -11q39 0 73.5 31t59.5 82q28 56 28 108q0 37 -13 42q-74 28 -191 -250zM41 -9v-2q-11 -10 -38.5 0t-28.5 31q-4 61 14 157t53 198q122 360 277 360
q30 0 54 -20.5t24 -42.5q0 -70 -89.5 -184.5t-203.5 -175.5q-37 -117 -51 -215q43 97 86.5 154.5t92.5 57.5q14 0 29 -6q74 -29 74 -102q0 -44 -24 -102q-10 -24 -19 -39q93 62 193 197q4 6 12 7t13 -4q13 -11 2 -25q-69 -91 -138 -154.5t-158 -97.5q-35 -18 -73 -18
q-47 0 -101 26z" />
    <glyph glyph-name="c" unicode="c" horiz-adv-x="398" 
d="M217 185v-1q-15 9 -6 24q8 15 8 29q0 18 -13.5 29.5t-36.5 11.5q-47 0 -88.5 -54.5t-46.5 -116.5q-7 -85 69 -91q69 -5 140 57.5t166 185.5q10 14 25 3q14 -10 3 -25q-49 -62 -82 -100.5t-79 -82t-91 -63.5t-90 -19q-70 2 -109.5 37t-35.5 100q5 83 51 145t111 68
q67 6 104 -20.5t37 -64.5q0 -23 -12 -46q-9 -15 -24 -6z" />
    <glyph glyph-name="d" unicode="d" horiz-adv-x="503" 
d="M310 324l-2 1q-15 -45 -35.5 -130.5t-20.5 -134.5q0 -38 15 -41q25 -6 93 61t152 181q11 15 25 4q15 -11 4 -25q-93 -127 -163.5 -197.5t-120.5 -65.5q-40 3 -61 32t-22 64q-1 34 7 83q-59 -97 -96 -140q-23 -26 -38.5 -34.5t-37.5 -6.5q-38 3 -56.5 34.5t-18.5 73.5
q0 24 7 50q17 57 51.5 110t75.5 70q23 10 50 10q30 0 56.5 -11.5t38.5 -28.5q6 20 26 76q86 240 179 336q38 39 97 39q21 0 36 -5q34 -12 34 -56q0 -23 -11 -60q-28 -83 -101.5 -169t-162.5 -120zM541 696q-33 11 -97 -87t-117 -240q71 37 131 112t83 143q8 23 9 40
t-1.5 23.5t-7.5 8.5zM192 246h-1q-1 11 -11.5 20t-19.5 12q-33 10 -78.5 -40t-66.5 -119q-10 -31 -10 -56q0 -38 22 -45q18 1 67.5 70.5t97.5 157.5z" />
    <glyph glyph-name="e" unicode="e" horiz-adv-x="381" 
d="M44 176h-2q9 -4 28 -4q63 0 108 49q13 14 13 29.5t-8 21.5q-7 7 -22 7q-33 0 -65.5 -29t-51.5 -74zM30 143q-6 -25 -6 -47q0 -63 51 -76q12 -2 19 -2q69 -5 137 57t157 186q11 15 25 4q15 -11 4 -25q-44 -62 -78 -102.5t-77.5 -82.5t-88 -61.5t-89.5 -16.5
q-71 4 -105 40.5t-34 91.5q0 76 53.5 146t121.5 71q52 2 80 -21q23 -20 23 -54q0 -33 -19 -53q-56 -62 -133 -62q-20 0 -41 7z" />
    <glyph glyph-name="f" unicode="f" horiz-adv-x="263" 
d="M56 117l5 2q53 11 113.5 48t106.5 94q11 13 24 2t2 -24q-48 -59 -110 -98t-120 -53q27 -67 27 -168q0 -67 -15 -116.5t-45 -61.5q-7 -5 -32.5 -3t-44.5 14q-42 28 -42 136q0 86 26 188l8 28q-9 7 -6 21q3 12 16 19q44 158 110 293t121 147q25 6 39 2.5t19 -9t5 -11.5
q0 -7 -5.5 -12.5t-12.5 -5.5q-27 -1 -91 -132.5t-109 -287.5zM30 80l1 -1q-34 -133 -34 -223q0 -71 22 -82q5 -2 9 0q15 7 25 53.5t10 104.5q0 95 -26 148h-7z" />
    <glyph glyph-name="g" unicode="g" horiz-adv-x="419" 
d="M217 310l1 3q4 10 19.5 10t33.5 -9t17 -20q-9 -110 -43 -229q88 80 186 199q7 8 16.5 5.5t13 -10.5t-2.5 -17q-106 -130 -233 -242q-68 -203 -130 -282q-47 -59 -92 -95q-46 -37 -106 -37q-51 0 -71 26q-14 17 -14 40q0 73 111 161q119 93 227 189q28 87 49 189
q-76 -127 -116 -173q-23 -26 -38.5 -34.5t-37.5 -6.5q-38 3 -56.5 34.5t-18.5 73.5q0 24 7 50q17 57 51.5 110t75.5 70q24 9 49 9q31 0 58.5 -12t38.5 -30l3 6q2 16 2 22zM124 -67l1 2q-80 -69 -182 -150q-28 -22 -48 -44t-29.5 -39t-14 -32t-4 -24t4.5 -14t13.5 -6.5
t31 7.5t48.5 30q42 34 85 89q50 63 94 181zM191 245h-1q-1 11 -11.5 20t-19.5 12q-33 10 -78.5 -40t-66.5 -119q-10 -31 -10 -56q0 -38 22 -45q18 1 67.5 70.5t97.5 157.5z" />
    <glyph glyph-name="h" unicode="h" horiz-adv-x="491" 
d="M42 -1l2 1v-6q1 -14 -26 -12q-34 4 -43 28q-2 4 -2 8q-4 61 14.5 161t53.5 202q122 360 277 360q30 0 54 -20.5t24 -42.5q0 -70 -89.5 -184.5t-203.5 -175.5q-39 -124 -54 -235q60 111 118.5 176t111.5 55q30 -6 55.5 -26.5t25.5 -49.5q0 -28 -19 -83t-32.5 -95.5
t-4.5 -44.5q3 -2 16.5 8t38.5 36t51 62q27 37 93 137q9 14 24 5q14 -9 5 -24q-66 -99 -96 -139q-22 -30 -35 -46.5t-37 -39.5t-44 -33q-14 -7 -31 -7q-26 0 -45 15.5t-18 40.5q1 35 30.5 118t29.5 101q0 27 -16 30q-37 7 -101.5 -75.5t-126.5 -204.5zM117 368
q95 62 168 161.5t73 148.5q0 10 -2.5 13t-11.5 3q-51 0 -114 -93.5t-113 -232.5z" />
    <glyph glyph-name="i" unicode="i" horiz-adv-x="243" 
d="M70 316h2q14 -4 21.5 -12.5t4.5 -15.5q-26 -54 -49.5 -121t-26.5 -100q-5 -50 11 -50q22 -2 78 65q102 122 142 177q11 15 25 4q15 -11 4 -25q-68 -92 -143 -180q-69 -83 -123 -80q-40 2 -58 30t-15 62q3 38 27 107t52 126q11 25 48 13zM67 424q0 18 12.5 30.5t30.5 12.5
t30.5 -12.5t12.5 -30.5t-12.5 -30.5t-30.5 -12.5t-30.5 12.5t-12.5 30.5z" />
    <glyph glyph-name="j" unicode="j" horiz-adv-x="204" 
d="M-98 -67l1 2q-80 -69 -182 -150q-28 -22 -48 -44t-29.5 -39t-14 -32t-4 -24t4.5 -14t13.5 -6.5t31 7.5t48.5 30q42 34 85 89q50 63 94 181zM14 309l-1 2q5 10 22 10t34.5 -9t15.5 -19q-11 -52 -62 -228q116 107 193 199q7 8 16.5 5.5t13 -10.5t-2.5 -17
q-88 -107 -240 -242q-68 -203 -130 -282q-47 -59 -92 -95q-46 -37 -107 -37q-52 0 -72 26q-14 17 -14 40q0 73 111 161q119 93 227 189q56 169 88 307zM46 428q0 18 12.5 30.5t30.5 12.5t30.5 -12.5t12.5 -30.5t-12.5 -30.5t-30.5 -12.5t-30.5 12.5t-12.5 30.5z" />
    <glyph glyph-name="k" unicode="k" horiz-adv-x="512" 
d="M39 -2v-4q1 -14 -26 -12q-34 4 -43 28q-2 4 -2 8q-4 61 14.5 161t53.5 202q122 360 277 360q30 0 54 -20.5t24 -42.5q0 -70 -89.5 -184.5t-203.5 -175.5q-40 -128 -53 -237q38 66 87 125q40 46 76 76q23 18 56.5 30.5t62.5 12.5q33 0 47 -17q7 -9 9 -20q6 -42 -58.5 -85
t-116.5 -50q17 -19 26 -51.5t15 -56.5t16 -27q21 -6 101.5 70.5t156.5 172.5q11 13 24 2t2 -24q-204 -260 -284 -260q-62 0 -86 36q-13 20 -20 75.5t-18 73.5q-60 -76 -102 -166zM114 368q95 62 168 161.5t73 148.5q0 10 -2.5 13t-11.5 3q-51 0 -114 -93.5t-113 -232.5z
M175 201q41 6 87.5 36t44.5 44q0 2 -1 4q-4 2 -11 3.5t-25 -7.5t-40 -27q-28 -23 -55 -53z" />
    <glyph glyph-name="l" unicode="l" horiz-adv-x="298" 
d="M106 324h-2q-15 -45 -35.5 -130.5t-20.5 -134.5q0 -38 15 -41q25 -6 93 61t152 181q11 15 25 4q15 -11 4 -25q-93 -127 -163.5 -197.5t-120.5 -65.5q-40 3 -61 32t-22 64q-2 97 65 287q86 240 179 336q38 39 97 39q21 0 36 -5q34 -12 34 -56q0 -23 -11 -60
q-28 -83 -101.5 -169t-162.5 -120zM337 696q-33 11 -97 -87t-117 -240q71 37 131 112t83 143q8 23 9 40t-1.5 23.5t-7.5 8.5z" />
    <glyph glyph-name="m" unicode="m" horiz-adv-x="608" 
d="M48 317l2 -4q19 -3 30.5 -10t14.5 -13.5t1 -11.5q-11 -27 -20 -56q62 98 112 91q37 -5 57.5 -25t27.5 -62q1 -9 0 -21l12 19q28 45 51.5 66t50.5 20q37 -2 59.5 -26.5t22.5 -64.5q0 -14 -3 -29q-6 -32 -19.5 -76t-20.5 -70t-4 -32q2 0 6 3q36 19 97 103q34 47 96 139
q9 14 24 5q14 -9 5 -24q-68 -102 -97 -141q-73 -99 -112 -122q-23 -10 -50.5 -0.5t-36.5 23.5q-6 10 -6 28q0 20 7.5 50t19.5 68t16 55q6 24 6 42q0 19 -5.5 28.5t-12.5 7.5q-25 -6 -65 -71q-27 -45 -84 -165l-17 -47q-3 -7 -20 -5.5t-34 9.5q-10 5 -16 14.5t-3 16.5
q60 151 60 199q0 50 -17 50q-28 -1 -78 -77.5t-96 -193.5l-6 -18q-7 -22 -46 -12q-13 3 -22.5 11t-7.5 15q57 211 95 304q5 12 26 10z" />
    <glyph glyph-name="n" unicode="n" horiz-adv-x="453" 
d="M45 317q19 -3 30.5 -10t14.5 -13.5t1 -11.5q-16 -40 -44 -131q110 178 191 163q30 -6 55.5 -26.5t25.5 -49.5q0 -28 -19 -83t-32.5 -95.5t-4.5 -44.5q3 -2 16.5 8t38.5 36t51 62q27 37 93 137q9 14 24 5q14 -9 5 -24q-66 -99 -96 -139q-22 -30 -35 -46.5t-37 -39.5
t-44 -33q-14 -7 -31 -7q-26 0 -45 15.5t-18 40.5q1 35 30.5 118t29.5 101q0 27 -16 30q-37 7 -102.5 -77t-126.5 -207v-6q-7 -22 -46 -12q-13 3 -21 11t-6 15q57 211 95 304q5 12 23 10z" />
    <glyph glyph-name="o" unicode="o" horiz-adv-x="352" 
d="M226 165l2 1q48 7 76 28.5t61 66.5q11 14 25 2q12 -10 1 -25q-38 -51 -75.5 -76.5t-94.5 -31.5q-17 -69 -67.5 -119t-111.5 -35q-94 24 -94 122q0 36 13 74q16 47 42 81q6 38 38 60q26 18 59 18q49 0 90 -38q45 -41 36 -128zM46 168h-1q-8 -16 -11 -24q-13 -35 -13 -65
q0 -49 31 -60q41 -15 78 17.5t55 92.5q-86 0 -139 39zM96 237q-9 -9 -32 -39l3 -3q47 -35 127 -32q10 74 -24 105q-44 39 -89 24l-9 -3q14 -7 25 -27q8 -16 -1 -25z" />
    <glyph glyph-name="p" unicode="p" horiz-adv-x="403" 
d="M58 324v-4q13 -6 18.5 -16t3.5 -17l-14 -41q49 64 98 64q14 0 29 -6q74 -29 74 -102q0 -44 -24 -102q-6 -16 -17 -36q34 24 70.5 59.5t58 60t62.5 74.5q11 13 24 2t2 -24q-41 -48 -52.5 -61.5t-49 -53.5t-60.5 -57.5t-59.5 -41.5t-73.5 -38q-32 -18 -73 -18q-46 0 -95 23
l-12 -39q-60 -200 -60 -299q0 -21 3 -38q2 -8 -8 -9q-12 0 -28 9q-31 16 -34 31t-3 34q0 91 60 286q29 95 71 216.5t46 137.5q3 8 14 10.5t29 -4.5zM-4 35l-6 -15q21 -10 43 -10q39 0 73.5 30.5t59.5 80.5q28 56 28 108q0 37 -13 42q-38 15 -85.5 -49t-99.5 -187z" />
    <glyph glyph-name="q" unicode="q" horiz-adv-x="433" 
d="M199 19v1q57 26 124.5 90t121.5 149q9 14 24 5q14 -9 5 -24q-55 -87 -124 -153.5t-131 -96.5q14 -32 14 -88q0 -92 -33.5 -190t-75.5 -116q-16 -6 -40.5 0.5t-41.5 27.5q-16 20 -16 64q0 83 68 285q17 52 38 108q-27 -40 -48 -64q-23 -26 -38.5 -34.5t-37.5 -6.5
q-38 3 -56.5 34.5t-18.5 73.5q0 24 7 50q17 57 51.5 110t75.5 70q24 9 49 9q31 0 58.5 -12t38.5 -30l16 35q4 8 19 9t37 -12q15 -11 9 -24q-55 -119 -106 -262q6 -3 11 -8zM192 246h-1q-1 11 -11.5 20t-19.5 12q-33 10 -78.5 -40t-66.5 -119q-10 -31 -10 -56q0 -38 22 -45
q18 1 67.5 70.5t97.5 157.5zM169 -25q-73 -211 -73 -308q0 -23 7 -34q4 -6 7 -4q26 11 56.5 107t30.5 175q0 43 -11 66q-12 -2 -17 -2z" />
    <glyph glyph-name="r" unicode="r" horiz-adv-x="308" 
d="M17 270q16 20 24 50.5t0 36.5q-8 -1 -16.5 -23.5t-10.5 -41.5t3 -22zM58 268h3q54 3 84 -3q18 -4 26 -13.5t3 -19.5q-32 -71 -52 -134.5t-15 -80.5q23 -1 85 69.5t128 172.5q9 14 24 5q14 -9 5 -24q-39 -60 -68.5 -101t-65 -83.5t-66 -61t-54.5 -11.5q-66 18 -66 73
q0 13 5 35q13 49 54 142q-7 0 -30 -1t-36 -1q-28 0 -49.5 15t-20.5 50q2 53 29 81t59 21q42 -9 42 -66q0 -24 -24 -64z" />
    <glyph glyph-name="s" unicode="s" horiz-adv-x="238" 
d="M-12 -36l-3 -1q-33 0 -51 21q-16 19 -16 41q0 36 37 69.5t72 49.5l-9 39t-10 46t-4 37q-2 52 37 68q11 5 25 -0.5t18 -15.5q7 -19 -4 -43q2 -13 11 -47t13 -53q84 36 146 88q8 7 17.5 2.5t11 -13t-5.5 -16.5q-66 -55 -162 -96q4 -36 4 -50q0 -63 -30 -94.5t-97 -31.5z
M-23 1q30 0 44 31.5t11 73.5q-24 -12 -56.5 -46.5t-15.5 -52.5q6 -6 17 -6z" />
    <glyph glyph-name="t" unicode="t" horiz-adv-x="226" 
d="M-35 405l-1 -1q14 6 23 -9q5 -5 60 0q53 134 110 242q11 20 51 0q13 -6 17.5 -17t-0.5 -17q-48 -91 -91 -195q45 5 63 -9q13 -11 2 -25q-11 -12 -26 -2q-1 1 -7.5 1t-19.5 -1t-27 -2q-38 -95 -64 -180q-20 -66 -27 -116t-1 -59q5 -2 16 3.5t29.5 22.5t40.5 44
q28 35 123 173q11 14 25 5q15 -9 4 -24q-96 -140 -124 -175q-67 -83 -107 -85t-63 21t-21 63q2 46 35 154q16 53 48 141q-64 -7 -77 23q-7 17 9 24z" />
    <glyph glyph-name="u" unicode="u" horiz-adv-x="458" 
d="M287 316l5 -1q14 -4 21.5 -12.5t4.5 -15.5q-26 -54 -49.5 -121t-26.5 -100q-5 -50 11 -50q11 -1 34.5 16.5t49.5 48.5q52 62 136 177q11 15 25 4q15 -11 4 -25q-110 -149 -137 -180q-69 -83 -129 -80q-40 2 -58 30t-15 62v3q-73 -102 -141 -94q-40 5 -58.5 32t-15.5 60
q3 38 27 107t52 126q11 25 48 13q14 -4 21.5 -12.5t4.5 -15.5q-26 -54 -49.5 -121t-26.5 -100q-5 -51 11 -51q68 -4 166 203q17 41 37 84q11 25 48 13z" />
    <glyph glyph-name="v" unicode="v" horiz-adv-x="422" 
d="M255 211l3 -1q14 -3 30 -3q38 0 80 14.5t70 38.5q13 11 24 -2t-2 -24q-33 -28 -80 -45.5t-91 -17.5q-28 0 -49 7q-35 -62 -81 -120t-75 -74q-14 -7 -33 -5q-31 2 -51 38q-12 21 -12 79q0 98 24 204q1 5 7 9.5t18.5 6.5t31.5 -4q16 -5 13 -21q-23 -105 -23 -215
q0 -47 7 -61q21 12 66 68.5t77 112.5q-30 25 -25 70q3 30 22 51t43 18q18 -2 25.5 -18t4.5 -37q-3 -12 -4 -17q-6 -24 -20 -52zM219 263q-3 -21 6 -33q13 26 17 42q6 21 2 29q-6 -1 -14.5 -11.5t-10.5 -26.5z" />
    <glyph glyph-name="w" unicode="w" horiz-adv-x="529" 
d="M377 195q64 -2 163 71q14 11 25 -4q11 -14 -4 -25q-120 -87 -198 -77q-67 -176 -153 -176q-72 0 -75 76q0 12 1 22q-23 -45 -46 -71.5t-52 -26.5q-31 0 -56 20.5t-26 55.5q-2 54 19 128t52 121q12 20 49 10q14 -3 19 -12.5t1 -16.5q-28 -42 -45.5 -114.5t-17.5 -121.5
q0 -27 6 -33q25 1 64.5 77.5t68.5 154.5q0 1 1.5 4l2 4t2.5 3.5t4 3.5t5.5 2t9 0.5t11.5 -1.5q19 -3 25.5 -12t4.5 -16q-32 -98 -32 -186q0 -28 6 -34q26 0 59.5 42.5t59.5 110.5q-32 21 -32 70q-1 40 12.5 66.5t38.5 26.5q21 0 32 -19t11 -45q0 -25 -8 -52zM344 206l1 2
l6 21q6 20 6 41q0 26 -7 29q-16 -11 -16 -58q0 -23 10 -35z" />
    <glyph glyph-name="x" unicode="x" horiz-adv-x="439" 
d="M21 313l2 -1q20 6 31 6q32 0 35 -19q13 -60 34 -122q30 33 46.5 50.5t42.5 41t47.5 34t41.5 10.5q7 0 12.5 -5.5t5.5 -12.5t-5.5 -12.5t-12.5 -5.5q-39 0 -164 -138q35 -85 65 -103q20 -12 93 52t158 170q11 13 24 2t2 -24q-48 -59 -75 -91t-72.5 -79t-82 -69.5
t-66.5 -22.5q-18 0 -33 9q-35 22 -70 94q-87 -96 -136 -96q-8 0 -13 5.5t-5 12.5t5 12.5t13 5.5q28 0 120 97q-32 76 -56 178q-3 16 13 21z" />
    <glyph glyph-name="y" unicode="y" horiz-adv-x="438" 
d="M235 310l3 4q4 10 19.5 10t33.5 -9t17 -20q-9 -110 -43 -229q88 80 186 199q7 8 16.5 5.5t13 -10.5t-2.5 -17q-106 -130 -233 -242q-68 -203 -130 -282q-47 -59 -92 -95q-46 -37 -106 -37q-51 0 -71 26q-14 17 -14 40q0 73 111 161q119 93 227 189q26 77 44 161
q-101 -193 -193 -183q-40 5 -58.5 32t-15.5 60q3 38 27 107t52 126q11 25 48 13q14 -4 21.5 -12.5t4.5 -15.5q-26 -54 -49.5 -121t-26.5 -100q-5 -51 11 -51q24 -1 52.5 24.5t55.5 70.5t49 88.5t43 93.5v14zM142 -67l1 2q-80 -69 -182 -150q-28 -22 -48 -44t-29.5 -39
t-14 -32t-4 -24t4.5 -14t13.5 -6.5t31 7.5t48.5 30q42 34 85 89q50 63 94 181z" />
    <glyph glyph-name="z" unicode="z" horiz-adv-x="368" 
d="M38 -113l1 2q-35 -24 -92 -58q-79 -47 -108 -100.5t-14 -78.5q15 -24 63 5q61 37 101 100.5t49 129.5zM41 -67l1 2q-2 42 -17.5 65t-42.5 18q-16 -3 -19.5 13.5t12.5 20.5q44 10 102.5 55.5t97 94.5t33.5 71q-2 6 -11 10q-22 9 -72.5 -9t-88.5 -50q-8 -7 -21 4.5
t-18 26.5t2 24q56 46 143 46q41 0 68 -11q15 -6 27 -23q16 -23 16 -49q0 -60 -71 -121.5t-144 -81.5q28 -1 47.5 -22.5t23.5 -45.5q193 142 274 289q6 9 15 9t15 -8.5t1 -17.5q-89 -161 -302 -314q0 -96 -41 -177.5t-120 -125.5q-41 -22 -82 -22q-53 0 -73 31q-11 19 -11 41
q0 44 38 94t107 91q58 36 111 72z" />
    <glyph glyph-name="braceleft" unicode="{" horiz-adv-x="411" 
d="M370 717q-7 -16 -23 -9q-25 11 -41.5 -13.5t-27.5 -69.5t-23 -93.5t-34.5 -90.5t-55.5 -56q18 -22 18 -61q0 -52 -38 -161.5t-36 -132.5q1 -13 6 -17t23 -3q7 1 12.5 -3.5t6.5 -11.5t-3.5 -12.5t-11.5 -6.5q-88 -9 -100 58q-8 42 10 104.5t40.5 121t22.5 83.5t-20 31
q-12 4 -14 15q-1 8 4.5 13.5t12.5 5.5q26 1 44.5 36.5t32.5 86t29.5 100.5t44 85t67.5 35q21 0 45 -10q16 -7 9 -24z" />
    <glyph glyph-name="bar" unicode="|" horiz-adv-x="224" 
d="M121 722l1 -1q2 23 34 9q26 -12 29 -25v-3l-79 -741q-4 -11 -19 -11t-31.5 10.5t-15.5 21.5z" />
    <glyph glyph-name="braceright" unicode="}" horiz-adv-x="411" 
d="M41 6q7 16 23 9q25 -11 41.5 13.5t27.5 69.5t23 93.5t34.5 90.5t55.5 56q-18 22 -18 61q0 52 38 161.5t36 132.5q-1 13 -6 17t-23 3q-7 -1 -12.5 3.5t-6.5 11.5t3.5 12.5t11.5 6.5q88 9 100 -58q8 -42 -10 -104.5t-40.5 -121t-22.5 -83.5t20 -31q12 -4 14 -15
q1 -8 -4.5 -13.5t-12.5 -5.5q-26 -1 -44.5 -36.5t-32.5 -86t-29.5 -100.5t-44 -85t-67.5 -35q-21 0 -45 10q-16 7 -9 24z" />
    <glyph glyph-name="asciitilde" unicode="~" horiz-adv-x="365" 
d="M45 273l-1 1q-10 8 -2 24q26 48 88 48q34 0 68 -17q11 -6 27 -15.5t25.5 -14t17.5 -4.5q14 0 25 15q10 14 25 3q12 -9 4 -24q-22 -44 -81 -44q-40 0 -73 23q-34 23 -62 23q-22 0 -37 -16q-11 -13 -24 -2z" />
    <glyph glyph-name="exclamdown" unicode="&#xa1;" horiz-adv-x="374" 
d="M66 -228v-1q-17 5 -23 17.5t-2 20.5q29 70 57 148.5t80 230t79 229.5q5 16 21 13q7 -1 11 -7.5t2 -13.5q-111 -437 -179 -627q-7 -22 -46 -10zM335 496q0 -16 -11.5 -28t-28.5 -12t-28.5 12t-11.5 28t11.5 28t28.5 12t28.5 -12t11.5 -28z" />
    <glyph glyph-name="cent" unicode="&#xa2;" horiz-adv-x="506" 
d="M442 478h-1q-7 1 -11 7.5t-2 13.5q8 33 -7.5 65t-46.5 48q-6 3 -18 7l-157 -505q15 -5 28 -5q61 0 127 84q11 13 24 2t2 -24q-92 -117 -195 -97l-25 -80q-6 -16 -22 -11q-16 6 -11 22l25 80q-21 10 -38 24q-74 60 -74 193q0 105 52 206q43 83 109.5 120.5t130.5 32.5
l19 60q6 17 22 11t11 -22l-17 -56q16 -5 24 -10q34 -17 55 -51t21 -72q0 -10 -4 -30q-1 -7 -7.5 -11t-13.5 -2zM320 624v2q-89 -6 -159 -141q-48 -93 -48 -189q0 -109 55 -161z" />
    <glyph glyph-name="sterling" unicode="&#xa3;" horiz-adv-x="615" 
d="M572 611h3q-3 -10 -12.5 -12t-17 4.5t-4.5 16.5q7 25 -4 47t-30 28q-13 4 -30 -1.5t-38 -23t-44.5 -59.5t-43.5 -103q-29 -90 -48 -154h63q8 0 13 -5t5 -13t-5 -13t-13 -5h-73q-27 -92 -39 -131.5t-33 -87t-44 -73.5q37 5 80 5q35 0 80.5 -5t58.5 -5q41 0 66 31
q7 8 16.5 6t13 -10.5t-2.5 -17.5q-53 -68 -132 -68q-30 0 -101.5 14t-113.5 14q-25 0 -38 -2q-17 -2 -43 -8q-10 -2 -16 6t-3 17t13 11q20 5 34 13q19 12 34.5 32.5t32.5 66t27.5 78.5t34.5 114h-51q-7 0 -12.5 5t-5.5 13t5.5 13t12.5 5h61q30 96 52 165q39 118 90.5 167
t105.5 49q22 0 40 -6q27 -9 43.5 -33.5t16.5 -55.5q0 -16 -4 -29z" />
    <glyph glyph-name="currency" unicode="&#xa4;" horiz-adv-x="404" 
d="M123 293h4q-8 -33 6.5 -57.5t45.5 -31.5q11 -3 22 -3q15 0 33 5q1 6 8 9q7 4 16 1q58 31 70 86q9 40 -14 66q-12 -3 -20 5q-4 5 -4 12q-10 4 -16 5q-10 3 -22 3q-43 0 -81 -29.5t-48 -70.5zM124 441l-1 -2q15 9 24 -6l7 -13q40 16 81 16q20 0 47 -5q20 -5 36 -15l22 19
q13 11 24 -2t-2 -24l-19 -17q33 -43 21 -97q-17 -69 -85 -109l9 -17q9 -15 -6 -24t-24 6l-10 19q-24 -8 -47 -8q-58 0 -95 23l-33 -29q-13 -11 -24 2t2 24l29 25q-29 36 -22 94q9 64 67 103l-7 13q-9 15 6 24z" />
    <glyph glyph-name="yen" unicode="&#xa5;" horiz-adv-x="507" 
d="M159 730v-1q13 -3 21 -10.5t5 -13.5q-26 -50 -47 -126.5t-21 -133.5q0 -29 6 -48q7 -23 18.5 -30t33.5 0q42 12 116 128t97 205q8 30 37 30q19 -1 29.5 -8t12 -13.5t0.5 -11.5q-63 -248 -124 -402l62 2q7 0 12.5 -5.5t5.5 -12.5t-5.5 -12.5t-12.5 -5.5l-78 -3
q-10 -25 -26 -57l57 2q8 0 13 -5.5t5 -12.5t-5 -12.5t-13 -5.5l-77 -3q-85 -161 -174 -183q-22 -5 -43.5 1.5t-26.5 19.5q-4 12 12 17q78 24 149 143l-77 -3q-7 0 -12.5 5.5t-5.5 12.5t5.5 12.5t12.5 5.5l99 4q12 22 28 57l-80 -3q-8 0 -13 5.5t-5 12.5t5 12.5t13 5.5l97 4
q43 102 77 227q-41 -75 -78.5 -123.5t-77.5 -61.5q-20 -6 -40 -6q-33 0 -58.5 16.5t-33.5 43.5q-8 24 -8 63q0 63 21.5 140t49.5 131q7 13 42 7z" />
    <glyph glyph-name="section" unicode="&#xa7;" horiz-adv-x="523" 
d="M456 650l1 -2q-16 7 -9 24q6 13 -5 18q-9 6 -28 6q-32 0 -67 -19t-56 -58q-21 -38 -21 -72q0 -30 17.5 -61.5t38 -53.5t38 -53t17.5 -61q0 -58 -65 -131q6 -13 9 -27q13 -72 -37 -126.5t-131 -58.5q-100 -4 -117 83q-4 16 13 20q16 4 20 -13q6 -33 26 -42t54 -7
q42 2 66.5 30t24.5 72q0 14 -3 31q-5 29 -26 59t-31.5 46t-20.5 41.5t-10 48.5q0 56 55 119q-14 31 -14 66q0 51 32 109q25 46 77 70.5t103 24.5q33 0 53 -11q17 -9 23 -26t-3 -37q-7 -16 -24 -9zM301 222v-2q22 29 22 58q0 23 -12 44t-39.5 52t-37.5 45q-18 -33 -18 -56
q0 -16 7.5 -32.5t16.5 -28.5t26.5 -34t28.5 -37z" />
    <glyph glyph-name="dieresis" unicode="&#xa8;" horiz-adv-x="235" 
d="M40 671q0 12 8.5 20.5t20.5 8.5t20.5 -8.5t8.5 -20.5t-8.5 -20.5t-20.5 -8.5t-20.5 8.5t-8.5 20.5zM137 671q0 12 8.5 20.5t20.5 8.5t20.5 -8.5t8.5 -20.5t-8.5 -20.5t-20.5 -8.5t-20.5 8.5t-8.5 20.5z" />
    <glyph glyph-name="copyright" unicode="&#xa9;" horiz-adv-x="627" 
d="M43 431h1q17 104 105 176.5t209 74.5q99 2 165 -63t66 -158q0 -17 -3 -35q-16 -103 -104.5 -177t-193.5 -75q-116 -1 -182 61.5t-66 156.5q0 20 3 39zM111 426q-3 -16 -3 -33q0 -77 52 -128t135 -51q92 0 167 63.5t89 152.5q3 16 3 33q0 77 -52 128t-135 51
q-92 0 -167 -63.5t-89 -152.5zM411 482l-1 4q-15 9 -6 24q5 5 -11 13q-14 7 -31 7q-63 0 -101 -76q-14 -28 -14 -53q0 -42 34 -62q15 -9 35 -9q45 0 74 50q9 15 24 6t6 -24q-19 -33 -51.5 -51t-68.5 -18q-37 0 -66 19q-51 32 -51 93q0 32 17 66q23 47 65 69t87 22
q34 0 56 -11q19 -10 27.5 -25.5t-0.5 -37.5q-9 -15 -24 -6z" />
    <glyph glyph-name="guillemotleft" unicode="&#xab;" horiz-adv-x="519" 
d="M314 329l-202 -125l163 -92q14 -9 5 -24q-9 -14 -24 -5l-186 106q-10 6 -23 26t-3 27l225 139q17 11 41 -13q22 -22 8 -36zM473 312l-202 -125l163 -92q14 -9 5 -24q-9 -14 -24 -5l-186 106q-10 6 -23 26t-3 27l225 139q17 11 41 -13q22 -22 8 -36z" />
    <glyph glyph-name="registered" unicode="&#xae;" horiz-adv-x="627" 
d="M43 431h1q17 104 105 176.5t209 74.5q99 2 165 -63t66 -158q0 -17 -3 -35q-16 -103 -104.5 -177t-193.5 -75q-116 -1 -182 61.5t-66 156.5q0 20 3 39zM111 426q-3 -16 -3 -33q0 -77 52 -128t135 -51q92 0 167 63.5t89 152.5q3 16 3 33q0 77 -52 128t-135 51
q-92 0 -167 -63.5t-89 -152.5zM207 491l2 -2q-9 15 5 24q61 41 126 41q52 0 79 -33q12 -15 13 -29q4 -39 -40.5 -63t-89.5 -28q16 -27 43 -39.5t54 -4.5q6 2 10.5 -5.5t2.5 -14.5q-2 -8 -16 -17.5t-30 -8.5q-50 3 -84 56l-20 -56q-3 -8 -15 -11t-32 2q-17 6 -11 22l64 183
q-22 -11 -37 -21q-15 -9 -24 5zM338 519v-1l-28 -80q20 6 39 19t24 26q5 10 -3 19q-11 14 -32 17z" />
    <glyph glyph-name="degree" unicode="&#xb0;" horiz-adv-x="304" 
d="M167 573q-33 0 -56 22t-23 54q0 39 30 63.5t66 24.5q32 0 55.5 -22.5t23.5 -54.5q0 -33 -28.5 -60t-67.5 -27zM140 658q0 -17 13 -30t32 -13t32 13t13 30t-13 30t-32 13t-32 -13t-13 -30z" />
    <glyph glyph-name="plusminus" unicode="&#xb1;" horiz-adv-x="465" 
d="M78 231l-1 1q0 8 5.5 13t12.5 5h124l42 133q4 15 30 15q19 0 33.5 -8.5t10.5 -20.5l-38 -120h111q8 0 13 -5.5t5 -12.5t-5 -12.5t-13 -5.5h-122l-47 -148q-6 -17 -30 -17q-18 0 -32.5 9.5t-10.5 21.5l43 134h-113q-8 0 -13 5.5t-5 12.5zM33 18q0 8 5.5 13t12.5 5h312
q7 0 12.5 -5t5.5 -13t-5.5 -13t-12.5 -5h-312q-7 0 -12.5 5t-5.5 13z" />
    <glyph glyph-name="acute" unicode="&#xb4;" horiz-adv-x="190" 
d="M134 727q26 -15 14 -27l-78 -64q-13 -12 -25 0q-13 12 0 25l64 66q10 10 25 0z" />
    <glyph glyph-name="mu" unicode="&#xb5;" horiz-adv-x="569" 
d="M271 324v1q13 -6 18.5 -16t3.5 -17l-12 -41q0 -6 -1 -9l-6 -18l-25 -84q-10 -38 -10 -65q0 -31 10 -44.5t34 -13.5q19 0 36 8t32 26.5t26 35t24 48.5t20 51t20.5 58.5t19.5 56.5q4 11 23 11q20 0 31.5 -4t14.5 -9t1 -10q-4 -12 -19.5 -60.5t-28 -82t-27.5 -61.5
q-4 -32 7 -56.5t29 -26.5q7 -1 11.5 -6.5t3.5 -12.5t-6.5 -11.5t-12.5 -3.5q-49 5 -64 67q-44 -54 -105 -54q-85 0 -106 43q-73 -229 -108 -316q-3 -8 -15.5 -9t-29.5 9q-26 17 -20 31q33 83 98 287t90 292q3 8 14 10.5t29 -4.5z" />
    <glyph glyph-name="periodcentered" unicode="&#xb7;" horiz-adv-x="160" 
d="M40 336q0 16 12 28t28 12t28 -12t12 -28t-12 -28t-28 -12t-28 12t-12 28z" />
    <glyph glyph-name="cedilla" unicode="&#xb8;" horiz-adv-x="173" 
d="M107 18h2q18 -5 10 -18l-13 -22q13 -4 21 -17q9 -15 9 -30q0 -28 -19 -41q-15 -10 -34 -10q-23 0 -36 16q-11 13 2 24t24 -2q8 -9 21 -2q7 4 7.5 13t-6.5 17q-5 5 -14 2q-9 -4 -17 1q-15 8 -6 25l24 38q7 12 25 6z" />
    <glyph glyph-name="guillemotright" unicode="&#xbb;" horiz-adv-x="519" 
d="M206 120l202 125l-163 92q-14 9 -5 24q9 14 24 5l186 -106q10 -6 23 -26t3 -27l-225 -139q-17 -11 -41 13q-22 22 -8 36q2 2 4 3zM47 137l202 125l-163 92q-14 9 -5 24q9 14 24 5l186 -106q10 -6 23 -26t3 -27l-225 -139q-17 -11 -41 13q-22 22 -8 36q2 2 4 3z" />
    <glyph glyph-name="questiondown" unicode="&#xbf;" horiz-adv-x="492" 
d="M371 410h3q3 10 12.5 11.5t16 -5.5t4.5 -17q-14 -67 -38.5 -112t-54 -69.5t-59 -44t-61.5 -51t-54 -74.5q-27 -53 -27 -110q0 -50 22 -86t65 -45q64 -13 102 30.5t38 106.5q0 69 -42 106q-15 14 -6.5 23.5t28.5 9.5q19 0 31 -9q48 -35 48 -109q0 -58 -29 -111
q-55 -98 -167 -85q-74 9 -118.5 65t-44.5 130q0 50 21 96q24 53 59 88.5t68.5 55.5t67 41.5t64.5 62t51 102.5zM456 496q0 -16 -12 -28t-28 -12t-28 12t-12 28t12 28t28 12t28 -12t12 -28z" />
    <glyph glyph-name="Agrave" unicode="&#xc0;" 
d="M-28 -30l1 -4q1 7 7.5 11t13.5 2q57 -14 150 72.5t200 239.5q-28 -3 -54 -3q-94 0 -112 50q-6 16 11 22q17 5 22 -11q10 -24 81 -24q31 0 79 5q128 191 227 399q6 14 30 12q18 -1 29 -6t13.5 -10t1.5 -9q-36 -160 -62 -360q40 -2 58 -18q12 -12 0 -25t-25 0q-7 7 -39 7
q-18 -154 -18 -240q0 -77 14 -90q16 -3 14 -19q-1 -7 -17.5 -10t-40.5 0q-29 5 -38 37q-13 42 -13 112q0 84 17 206l-77 -10l-47 -6q-255 -415 -385 -372q-20 7 -31.5 20.5t-9.5 21.5zM527 352q8 52 43 248q-83 -155 -148 -264l18 3zM608 900q18 4 24 -6l40 -66
q9 -15 -6 -24q-12 -8 -24 6l-57 64q-4 6 2.5 14.5t20.5 11.5z" />
    <glyph glyph-name="Aacute" unicode="&#xc1;" 
d="M-28 -30l1 -4q1 7 7.5 11t13.5 2q57 -14 150 72.5t200 239.5q-28 -3 -54 -3q-94 0 -112 50q-6 16 11 22q17 5 22 -11q10 -24 81 -24q31 0 79 5q128 191 227 399q6 14 30 12q18 -1 29 -6t13.5 -10t1.5 -9q-36 -160 -62 -360q40 -2 58 -18q12 -12 0 -25t-25 0q-7 7 -39 7
q-18 -154 -18 -240q0 -77 14 -90q16 -3 14 -19q-1 -7 -17.5 -10t-40.5 0q-29 5 -38 37q-13 42 -13 112q0 84 17 206l-77 -10l-47 -6q-255 -415 -385 -372q-20 7 -31.5 20.5t-9.5 21.5zM528 352q8 52 43 248q-83 -155 -148 -264l18 3zM736 898q26 -15 14 -27l-78 -64
q-13 -12 -25 0q-13 13 0 25l64 66q10 10 25 0z" />
    <glyph glyph-name="Acircumflex" unicode="&#xc2;" 
d="M-28 -30l1 -4q1 7 7.5 11t13.5 2q57 -14 150 72.5t200 239.5q-28 -3 -54 -3q-94 0 -112 50q-6 16 11 22q17 5 22 -11q10 -24 81 -24q31 0 79 5q128 191 227 399q6 14 30 12q18 -1 29 -6t13.5 -10t1.5 -9q-36 -160 -62 -360q40 -2 58 -18q12 -12 0 -25t-25 0q-7 7 -39 7
q-18 -154 -18 -240q0 -77 14 -90q16 -3 14 -19q-1 -7 -17.5 -10t-40.5 0q-29 5 -38 37q-13 42 -13 112q0 84 17 206l-77 -10l-47 -6q-255 -415 -385 -372q-20 7 -31.5 20.5t-9.5 21.5zM530 352q8 52 43 248q-83 -155 -148 -264l18 3zM588 808h2q-12 12 0 25l64 66
q6 6 19.5 9t17.5 -2l52 -71q11 -14 -4 -25q-7 -5 -18.5 -7.5t-17.5 2.5l-40 54l-50 -51q-13 -12 -25 0z" />
    <glyph glyph-name="Atilde" unicode="&#xc3;" 
d="M-28 -30l1 -4q1 7 7.5 11t13.5 2q57 -14 150 72.5t200 239.5q-28 -3 -54 -3q-94 0 -112 50q-6 16 11 22q17 5 22 -11q10 -24 81 -24q31 0 79 5q128 191 227 399q6 14 30 12q18 -1 29 -6t13.5 -10t1.5 -9q-36 -160 -62 -360q40 -2 58 -18q12 -12 0 -25t-25 0q-7 7 -39 7
q-18 -154 -18 -240q0 -77 14 -90q16 -3 14 -19q-1 -7 -17.5 -10t-40.5 0q-29 5 -38 37q-13 42 -13 112q0 84 17 206l-77 -10l-47 -6q-255 -415 -385 -372q-20 7 -31.5 20.5t-9.5 21.5zM526 351q8 52 43 248q-83 -155 -148 -264l18 3zM580 817l-2 -1q-7 2 -11 7.5t-3 12.5
q4 25 29 41q14 10 31 10q33 0 48 -32q6 -13 15 -13q12 0 13 17q2 18 20 16t16 -20q-1 -22 -21.5 -39.5t-40.5 -15.5q-29 3 -43 33q-8 18 -21 13q-8 -4 -10 -15q-2 -7 -7.5 -11t-12.5 -3z" />
    <glyph glyph-name="Adieresis" unicode="&#xc4;" 
d="M-28 -30l1 -4q1 7 7.5 11t13.5 2q57 -14 150 72.5t200 239.5q-28 -3 -54 -3q-94 0 -112 50q-6 16 11 22q17 5 22 -11q10 -24 81 -24q31 0 79 5q128 191 227 399q6 14 30 12q18 -1 29 -6t13.5 -10t1.5 -9q-36 -160 -62 -360q40 -2 58 -18q12 -12 0 -25t-25 0q-7 7 -39 7
q-18 -154 -18 -240q0 -77 14 -90q16 -3 14 -19q-1 -7 -17.5 -10t-40.5 0q-29 5 -38 37q-13 42 -13 112q0 84 17 206l-77 -10l-47 -6q-255 -415 -385 -372q-20 7 -31.5 20.5t-9.5 21.5zM528 351q8 52 43 248q-83 -155 -148 -264l18 3zM674 831q0 12 8.5 20.5t20.5 8.5
t20.5 -8.5t8.5 -20.5t-8.5 -20.5t-20.5 -8.5t-20.5 8.5t-8.5 20.5zM577 831q0 12 8.5 20.5t20.5 8.5t20.5 -8.5t8.5 -20.5t-8.5 -20.5t-20.5 -8.5t-20.5 8.5t-8.5 20.5z" />
    <glyph glyph-name="Aring" unicode="&#xc5;" 
d="M-29 -37l1 7v-4q7 13 20 10q57 -14 150 72.5t200 239.5q-28 -3 -54 -3q-94 0 -112 50q-6 16 11 22q16 5 22 -11q10 -24 81 -24q31 0 79 5q128 191 227 399q6 13 28 13q-17 7 -28 23t-11 36q0 26 18.5 44.5t44.5 18.5t44.5 -18.5t18.5 -44.5q0 -25 -17 -42.5t-42 -19.5
q23 -8 20 -20q-36 -160 -62 -360q40 -2 58 -18q12 -12 0 -25t-25 0q-7 7 -39 7q-18 -154 -18 -240q0 -77 14 -90q16 -3 14 -19q-1 -7 -17.5 -10t-40.5 0q-29 5 -38 37q-13 42 -13 112q0 84 17 206l-77 -10l-47 -6q-255 -415 -385 -372q-18 6 -28.5 17.5t-12.5 20.5v-1
q-1 -1 -1 -2zM526 349q8 52 43 248q-83 -155 -148 -264l18 3zM620 797q0 -11 8 -19t19 -8t19 8t8 19t-8 19t-19 8t-19 -8t-8 -19z" />
    <glyph glyph-name="AE" unicode="&#xc6;" horiz-adv-x="1027" 
d="M845 446l1 -1q3 14 21 12q49 -3 99 63t50 126q0 58 -57 67q-95 13 -159 -51.5t-80 -150.5q-4 -19 -4 -42q0 -47 20.5 -79t58.5 -39q18 -4 13 -22q-3 -13 -17 -13q-82 0 -132.5 -63t-50.5 -141q0 -53 25.5 -86t74.5 -33q154 0 332 264q9 14 24 5q14 -9 5 -24
q-193 -287 -371 -287q-43 0 -76 13q-19 -5 -45 -1q-29 5 -38 37q-13 42 -13 112q0 84 17 206l-77 -10l-47 -6q-255 -415 -385 -372q-20 7 -31.5 20.5t-9.5 21.5q1 7 7.5 11t13.5 2q57 -14 150 72.5t200 239.5q-28 -3 -54 -3q-94 0 -112 50q-6 16 11 22q16 5 22 -11
q10 -24 81 -24q31 0 79 5q128 191 227 399q6 14 30 12q18 -1 29 -6t13.5 -10t1.5 -9q-14 -63 -23 -111q9 19 26 43q40 54 95.5 82t112.5 28q19 0 37 -3q59 -10 88.5 -49.5t29.5 -92.5q0 -74 -48.5 -136t-118.5 -62q-18 0 -33 4q-7 1 -11 7.5t-2 13.5zM551 355q8 52 43 248
q-83 -155 -148 -264l18 3zM733 344q-36 12 -58 42.5t-29 72.5q-4 -28 -13 -98q40 -2 58 -18l3 -5q18 4 39 6zM624 306l1 1q8 6 26 16q-6 1 -24 1z" />
    <glyph glyph-name="Ccedilla" unicode="&#xc7;" horiz-adv-x="548" 
d="M375 508h3q5 -3 5.5 -13t1.5 -12q7 -19 26 -19q36 0 78 49.5t42 104.5q0 92 -72 95q-37 2 -77 -12t-84.5 -46.5t-88 -97.5t-76.5 -155q-52 -143 -52 -239q0 -101 56 -137q25 -17 66 -17q82 0 184.5 68.5t174.5 181.5q9 14 24 5q14 -9 5 -24q-64 -100 -160.5 -175.5
t-188.5 -99.5q0 -2 -2 -6l-13 -22q13 -4 21 -17q9 -15 9 -30q0 -28 -19 -41q-15 -10 -34 -10q-23 0 -36 16q-11 13 2 24t24 -2q8 -9 21 -2q7 4 7.5 13t-6.5 17q-5 5 -14 2q-9 -4 -17 1q-15 8 -6 25l15 24q-60 -5 -100 21q-94 60 -94 213q0 104 49 241q27 75 65.5 134.5
t78 95.5t82.5 59t81 30.5t72 4.5q135 -13 135 -140q0 -81 -49.5 -151t-103.5 -70q-18 0 -33 9q-35 20 -35 61q0 20 8 38q3 6 11 7.5t14 -2.5z" />
    <glyph glyph-name="Egrave" unicode="&#xc8;" horiz-adv-x="499" 
d="M317 446l2 1q3 14 21 12q49 -3 99 63t50 126q0 58 -57 67q-95 13 -159 -51.5t-80 -150.5q-4 -19 -4 -42q0 -47 20.5 -79t58.5 -39q18 -4 13 -22q-3 -13 -17 -13q-82 0 -132.5 -63t-50.5 -141q0 -53 25.5 -86t74.5 -33q154 0 332 264q9 14 24 5q14 -9 5 -24
q-193 -287 -371 -287q-75 0 -122.5 40.5t-47.5 122.5q0 81 50 150.5t152 79.5q-43 15 -66 55t-23 94q0 88 53 159q40 54 95.5 82t112.5 28q19 0 37 -3q59 -10 88.5 -49.5t29.5 -92.5q0 -74 -48.5 -136t-118.5 -62q-18 0 -33 4q-7 1 -11 7.5t-2 13.5zM388 922q18 4 24 -6
l40 -66q9 -15 -6 -24q-12 -8 -24 6l-57 64q-4 6 2.5 14.5t20.5 11.5z" />
    <glyph glyph-name="Eacute" unicode="&#xc9;" horiz-adv-x="499" 
d="M317 446l2 1q3 14 21 12q49 -3 99 63t50 126q0 58 -57 67q-95 13 -159 -51.5t-80 -150.5q-4 -19 -4 -42q0 -47 20.5 -79t58.5 -39q18 -4 13 -22q-3 -13 -17 -13q-82 0 -132.5 -63t-50.5 -141q0 -53 25.5 -86t74.5 -33q154 0 332 264q9 14 24 5q14 -9 5 -24
q-193 -287 -371 -287q-75 0 -122.5 40.5t-47.5 122.5q0 81 50 150.5t152 79.5q-43 15 -66 55t-23 94q0 88 53 159q40 54 95.5 82t112.5 28q19 0 37 -3q59 -10 88.5 -49.5t29.5 -92.5q0 -74 -48.5 -136t-118.5 -62q-18 0 -33 4q-7 1 -11 7.5t-2 13.5zM503 920q26 -15 14 -27
l-78 -64q-13 -12 -25 0q-12 13 0 25l64 66q10 10 25 0z" />
    <glyph glyph-name="Ecircumflex" unicode="&#xca;" horiz-adv-x="499" 
d="M317 446l2 1q3 14 21 12q49 -3 99 63t50 126q0 58 -57 67q-95 13 -159 -51.5t-80 -150.5q-4 -19 -4 -42q0 -47 20.5 -79t58.5 -39q18 -4 13 -22q-3 -13 -17 -13q-82 0 -132.5 -63t-50.5 -141q0 -53 25.5 -86t74.5 -33q154 0 332 264q9 14 24 5q14 -9 5 -24
q-193 -287 -371 -287q-75 0 -122.5 40.5t-47.5 122.5q0 81 50 150.5t152 79.5q-43 15 -66 55t-23 94q0 88 53 159q40 54 95.5 82t112.5 28q19 0 37 -3q59 -10 88.5 -49.5t29.5 -92.5q0 -74 -48.5 -136t-118.5 -62q-18 0 -33 4q-7 1 -11 7.5t-2 13.5zM357 830h2q-13 12 0 25
l64 66q6 6 19.5 9t17.5 -2l52 -71q11 -14 -4 -25q-7 -5 -18.5 -7.5t-17.5 2.5l-40 54l-50 -51q-12 -12 -25 0z" />
    <glyph glyph-name="Edieresis" unicode="&#xcb;" horiz-adv-x="499" 
d="M317 446l2 1q3 14 21 12q49 -3 99 63t50 126q0 58 -57 67q-95 13 -159 -51.5t-80 -150.5q-4 -19 -4 -42q0 -47 20.5 -79t58.5 -39q18 -4 13 -22q-3 -13 -17 -13q-82 0 -132.5 -63t-50.5 -141q0 -53 25.5 -86t74.5 -33q154 0 332 264q9 14 24 5q14 -9 5 -24
q-193 -287 -371 -287q-75 0 -122.5 40.5t-47.5 122.5q0 81 50 150.5t152 79.5q-43 15 -66 55t-23 94q0 88 53 159q40 54 95.5 82t112.5 28q19 0 37 -3q59 -10 88.5 -49.5t29.5 -92.5q0 -74 -48.5 -136t-118.5 -62q-18 0 -33 4q-7 1 -11 7.5t-2 13.5zM345 854q0 12 8.5 20.5
t20.5 8.5t20.5 -8.5t8.5 -20.5t-8.5 -20.5t-20.5 -8.5t-20.5 8.5t-8.5 20.5zM442 854q0 12 8.5 20.5t20.5 8.5t20.5 -8.5t8.5 -20.5t-8.5 -20.5t-20.5 -8.5t-20.5 8.5t-8.5 20.5z" />
    <glyph glyph-name="Igrave" unicode="&#xcc;" horiz-adv-x="411" 
d="M48 390l1 -3q-16 4 -32 24.5t-16 34.5q-2 77 66.5 150.5t151 111t132.5 30.5q31 -5 57.5 -24.5t25.5 -54.5q-5 -132 -124 -442q-43 -113 -80.5 -176.5t-79.5 -75.5q-21 -6 -37 -6q-29 0 -31 11q-2 7 2 13.5t11 7.5q24 6 63.5 72.5t77.5 166.5q117 305 125 451
q1 13 -2.5 17t-14.5 6q-27 4 -76 -20.5t-96 -65t-79.5 -99t-26.5 -113.5q1 -7 -5 -12t-13 -4zM370 896q18 4 24 -6l40 -66q9 -15 -6 -24q-12 -8 -24 6l-57 64q-4 6 2.5 14.5t20.5 11.5z" />
    <glyph glyph-name="Iacute" unicode="&#xcd;" horiz-adv-x="411" 
d="M48 390l1 -3q-16 4 -32 24.5t-16 34.5q-2 77 66.5 150.5t151 111t132.5 30.5q31 -5 57.5 -24.5t25.5 -54.5q-5 -132 -124 -442q-43 -113 -80.5 -176.5t-79.5 -75.5q-21 -6 -37 -6q-29 0 -31 11q-2 7 2 13.5t11 7.5q24 6 63.5 72.5t77.5 166.5q117 305 125 451
q1 13 -2.5 17t-14.5 6q-27 4 -76 -20.5t-96 -65t-79.5 -99t-26.5 -113.5q1 -7 -5 -12t-13 -4zM478 894q26 -15 14 -27l-78 -64q-13 -12 -25 0q-13 13 0 25l64 66q10 10 25 0z" />
    <glyph glyph-name="Icircumflex" unicode="&#xce;" horiz-adv-x="411" 
d="M48 390l1 -3q-16 4 -32 24.5t-16 34.5q-2 77 66.5 150.5t151 111t132.5 30.5q31 -5 57.5 -24.5t25.5 -54.5q-5 -132 -124 -442q-43 -113 -80.5 -176.5t-79.5 -75.5q-21 -6 -37 -6q-29 0 -31 11q-2 7 2 13.5t11 7.5q24 6 63.5 72.5t77.5 166.5q117 305 125 451
q1 13 -2.5 17t-14.5 6q-27 4 -76 -20.5t-96 -65t-79.5 -99t-26.5 -113.5q1 -7 -5 -12t-13 -4zM334 804h2q-12 12 0 25l64 66q6 6 19.5 9t17.5 -2l52 -71q11 -14 -4 -25q-7 -5 -18.5 -7.5t-17.5 2.5l-40 54l-50 -51q-13 -12 -25 0z" />
    <glyph glyph-name="Idieresis" unicode="&#xcf;" horiz-adv-x="411" 
d="M48 390l1 -3q-16 4 -32 24.5t-16 34.5q-2 77 66.5 150.5t151 111t132.5 30.5q31 -5 57.5 -24.5t25.5 -54.5q-5 -132 -124 -442q-43 -113 -80.5 -176.5t-79.5 -75.5q-21 -6 -37 -6q-29 0 -31 11q-2 7 2 13.5t11 7.5q24 6 63.5 72.5t77.5 166.5q117 305 125 451
q1 13 -2.5 17t-14.5 6q-27 4 -76 -20.5t-96 -65t-79.5 -99t-26.5 -113.5q1 -7 -5 -12t-13 -4zM324 828q0 12 8.5 20.5t20.5 8.5t20.5 -8.5t8.5 -20.5t-8.5 -20.5t-20.5 -8.5t-20.5 8.5t-8.5 20.5zM421 828q0 12 8.5 20.5t20.5 8.5t20.5 -8.5t8.5 -20.5t-8.5 -20.5
t-20.5 -8.5t-20.5 8.5t-8.5 20.5z" />
    <glyph glyph-name="Eth" unicode="&#xd0;" horiz-adv-x="590" 
d="M339 5l1 4q-72 -56 -193 -56q-72 0 -135 22q-14 5 -18 15t1.5 17.5t14.5 6.5q14 -1 29 20t30.5 61.5t27.5 75.5t27 86h-86q-8 0 -10.5 7.5t2.5 17.5t15 17.5t18 7.5h77l18 58q98 287 158 331q5 6 24.5 2.5t33.5 -17.5q5 -5 3.5 -12.5t-7.5 -12.5q-19 -14 -66 -117.5
t-78 -194.5q-5 -15 -12 -38h157q8 0 10.5 -7t-2.5 -18q-13 -25 -33 -25h-147q-50 -174 -78 -223q-23 -37 -44 -41q20 -5 44 -5q89 0 148 48q97 77 161.5 220.5t64.5 289.5q0 21 -1 31q-5 114 -84 132q-15 3 -33 3q-65 1 -125 -33t-99 -84.5t-62 -106.5t-23 -102q0 -16 3 -29
q4 -16 -13 -20q-8 -2 -26.5 12.5t-24.5 32.5q-7 23 -7 41q0 50 31.5 107.5t82 105.5t122 80t144.5 31q75 -1 126 -54t56 -121q2 -32 2 -48q0 -163 -70.5 -307t-154.5 -211z" />
    <glyph glyph-name="Ntilde" unicode="&#xd1;" horiz-adv-x="650" 
d="M87 400v1q4 -19 -12 -18q-24 2 -42 31q-10 18 -12 37q-4 59 40 118t107 97.5t126.5 59.5t98.5 13q14 -1 46 -17.5t31 -33.5q-1 -42 -6.5 -94t-15 -125.5t-13.5 -110.5q-18 -153 -18 -231q0 -38 3 -64.5t6 -36t6 -9.5q32 0 151 491q32 129 75.5 186.5t113.5 53.5
q19 -2 21 -16q1 -7 -4 -12.5t-12 -6.5q-79 -10 -170 -330q-106 -375 -159 -413q-19 -14 -49 2t-38 44q-13 45 -13 111q0 80 18 235l16 140q-43 -128 -95.5 -245.5t-114 -206.5t-106.5 -91q-24 -1 -43.5 9t-21.5 19q-2 7 2 13.5t11 7.5q66 11 149 133.5t145.5 272.5t88.5 269
q2 13 0 16.5t-11 5.5q-48 8 -125.5 -39.5t-132.5 -125t-41 -140.5zM527 825l-2 -1q-7 2 -11 7.5t-3 12.5q4 25 29 41q14 10 31 10q33 0 48 -32q7 -13 15 -13q12 0 13 17q2 18 20 16t16 -20q-1 -22 -21.5 -39.5t-40.5 -15.5q-29 3 -43 33q-8 18 -21 13q-7 -4 -10 -15
q-2 -7 -7.5 -11t-12.5 -3z" />
    <glyph glyph-name="Ograve" unicode="&#xd2;" horiz-adv-x="528" 
d="M371 900q18 4 24 -6l40 -66q9 -15 -6 -24q-12 -8 -24 6l-57 64q-4 6 2.5 14.5t20.5 11.5zM218 625v-1q65 117 175 117q65 0 95.5 -51.5t30.5 -132.5q0 -111 -45.5 -246t-126.5 -236t-168 -101q-178 1 -178 200q0 120 63 284q43 113 91 170q5 7 28 7q21 0 35 -10zM189 558
l-1 1q-29 -46 -55 -113q-56 -148 -56 -273q0 -132 66 -157q18 -6 36 -6q68 0 140.5 91.5t118 220t45.5 235.5q0 149 -91 149q-53 0 -91 -47t-54.5 -109.5t-16.5 -129.5q0 -91 29 -125q14 -17 1 -25q-17 -6 -33.5 -0.5t-24.5 12.5q-37 33 -37 129q0 73 24 147z" />
    <glyph glyph-name="Oacute" unicode="&#xd3;" horiz-adv-x="528" 
d="M490 897q26 -15 14 -27l-78 -64q-13 -12 -25 0q-13 12 0 25l64 66q10 10 25 0zM217 624v-1q65 117 175 117q65 0 95.5 -51.5t30.5 -132.5q0 -111 -45.5 -246t-126.5 -236t-168 -101q-178 1 -178 200q0 120 63 284q43 113 91 170q5 7 28 7q21 0 35 -10zM188 557l-1 1
q-29 -46 -55 -113q-56 -148 -56 -273q0 -132 66 -157q18 -6 36 -6q68 0 140.5 91.5t118 220t45.5 235.5q0 149 -91 149q-53 0 -91 -47t-54.5 -109.5t-16.5 -129.5q0 -91 29 -125q14 -17 1 -25q-17 -6 -33.5 -0.5t-24.5 12.5q-37 33 -37 129q0 74 24 147z" />
    <glyph glyph-name="Ocircumflex" unicode="&#xd4;" horiz-adv-x="528" 
d="M341 808h2q-13 12 0 25l64 66q6 6 19.5 9t17.5 -2l52 -71q11 -14 -4 -25q-7 -5 -18.5 -7.5t-17.5 2.5l-40 54l-50 -51q-12 -12 -25 0zM219 625v-1q65 117 175 117q65 0 95.5 -51.5t30.5 -132.5q0 -111 -45.5 -246t-126.5 -236t-168 -101q-178 1 -178 200q0 120 63 284
q43 113 91 170q5 7 28 7q21 0 35 -10zM190 558l-1 1q-29 -46 -55 -113q-56 -148 -56 -273q0 -132 66 -157q18 -6 36 -6q68 0 140.5 91.5t118 220t45.5 235.5q0 149 -91 149q-53 0 -91 -47t-54.5 -109.5t-16.5 -129.5q0 -91 29 -125q14 -17 1 -25q-17 -6 -33.5 -0.5
t-24.5 12.5q-37 33 -37 129q0 73 24 147z" />
    <glyph glyph-name="Otilde" unicode="&#xd5;" horiz-adv-x="528" 
d="M336 816l-2 -1q-7 2 -11 7.5t-3 12.5q4 25 29 41q14 10 31 10q33 0 48 -32q6 -13 15 -13q12 0 13 17q2 18 20 16t16 -20q-1 -22 -21.5 -39.5t-40.5 -15.5q-29 3 -43 33q-8 18 -21 13q-8 -4 -10 -15q-2 -7 -7.5 -11t-12.5 -3zM215 623v-1q65 117 175 117q65 0 95.5 -51.5
t30.5 -132.5q0 -111 -45.5 -246t-126.5 -236t-168 -101q-178 1 -178 200q0 120 63 284q43 113 91 170q5 7 28 7q21 0 35 -10zM186 556l-1 1q-29 -46 -55 -113q-56 -148 -56 -273q0 -132 66 -157q18 -6 36 -6q68 0 140.5 91.5t118 220t45.5 235.5q0 149 -91 149
q-53 0 -91 -47t-54.5 -109.5t-16.5 -129.5q0 -91 29 -125q14 -17 1 -25q-17 -6 -33.5 -0.5t-24.5 12.5q-37 33 -37 129q0 73 24 147z" />
    <glyph glyph-name="Odieresis" unicode="&#xd6;" horiz-adv-x="528" 
d="M339 831q0 12 8.5 20.5t20.5 8.5t20.5 -8.5t8.5 -20.5t-8.5 -20.5t-20.5 -8.5t-20.5 8.5t-8.5 20.5zM436 831q0 12 8.5 20.5t20.5 8.5t20.5 -8.5t8.5 -20.5t-8.5 -20.5t-20.5 -8.5t-20.5 8.5t-8.5 20.5zM218 625v-1q65 117 175 117q65 0 95.5 -51.5t30.5 -132.5
q0 -111 -45.5 -246t-126.5 -236t-168 -101q-178 1 -178 200q0 120 63 284q43 113 91 170q5 7 28 7q21 0 35 -10zM189 558l-1 1q-29 -46 -55 -113q-56 -148 -56 -273q0 -132 66 -157q18 -6 36 -6q68 0 140.5 91.5t118 220t45.5 235.5q0 149 -91 149q-53 0 -91 -47
t-54.5 -109.5t-16.5 -129.5q0 -91 29 -125q14 -17 1 -25q-17 -6 -33.5 -0.5t-24.5 12.5q-37 33 -37 129q0 73 24 147z" />
    <glyph glyph-name="multiply" unicode="&#xd7;" horiz-adv-x="422" 
d="M97 362v1q33 5 49 -9l82 -77l126 89q7 5 12.5 -0.5t5.5 -19.5q0 -33 -18 -46l-85 -60l114 -106q7 -6 2 -12t-19 -8q-33 -5 -49 9l-93 86l-134 -95q-7 -5 -12.5 0.5t-5.5 19.5q0 33 18 46l93 66l-103 96q-7 6 -2 12t19 8z" />
    <glyph glyph-name="Oslash" unicode="&#xd8;" horiz-adv-x="528" 
d="M512 755q14 -9 5 -24l-28 -43q29 -49 29 -130q0 -111 -45.5 -246t-126.5 -236t-168 -101q-82 0 -126 44l-19 -29q-9 -14 -24 -5q-14 9 -5 24l25 39q-29 49 -29 126q0 120 63 284q43 113 91 170q5 7 28 7q21 0 35 -10q65 117 175 117q43 0 74 -26l22 34q9 14 24 5z
M189 559q-29 -46 -55 -113q-56 -148 -56 -273q0 -25 3 -47l111 170q-27 39 -27 118q0 73 24 145zM446 686v1q-22 20 -54 20q-52 0 -90 -46.5t-54.5 -109.5t-16.5 -129q0 -35 4 -59zM90 79h-1q18 -48 53 -62q18 -6 36 -6q68 0 140.5 91.5t118 220t45.5 235.5q0 61 -15 97
l-220 -337q6 -14 13 -22q14 -17 1 -25q-16 -9 -43 3z" />
    <glyph glyph-name="Ugrave" unicode="&#xd9;" horiz-adv-x="715" 
d="M582 -77l-1 2q-12 -17 -56 16q-31 24 -31 85q0 60 35 187q-53 -109 -107 -168.5t-120 -59.5q-49 0 -81 30t-32 84q0 61 43 174t86 229t43 185v5.5v5v4t-1.5 3.5l-3 2t-5 1.5t-7.5 0.5q-30 2 -79.5 -24t-96.5 -66.5t-78.5 -99.5t-25.5 -115q1 -7 -5 -12t-14 -5
q-10 0 -27 20t-18 43q-2 56 37.5 113t96 95.5t115.5 62.5t96 22q28 -2 57.5 -22t29.5 -50q0 -62 -27 -154t-59.5 -169.5t-59.5 -157.5t-27 -120q0 -51 42 -51q166 0 400 712q4 14 18 10q28 -5 39.5 -20t8.5 -26q-8 -26 -74 -213.5t-99 -304.5t-33 -181q0 -35 11 -49
q14 -18 10 -24zM530 902q18 4 24 -6l40 -66q9 -15 -6 -24q-12 -8 -24 6l-57 64q-4 6 2.5 14.5t20.5 11.5z" />
    <glyph glyph-name="Uacute" unicode="&#xda;" horiz-adv-x="715" 
d="M582 -77l-1 2q-12 -17 -56 16q-31 24 -31 85q0 60 35 187q-53 -109 -107 -168.5t-120 -59.5q-49 0 -81 30t-32 84q0 61 43 174t86 229t43 185v5.5v5v4t-1.5 3.5l-3 2t-5 1.5t-7.5 0.5q-30 2 -79.5 -24t-96.5 -66.5t-78.5 -99.5t-25.5 -115q1 -7 -5 -12t-14 -5
q-10 0 -27 20t-18 43q-2 56 37.5 113t96 95.5t115.5 62.5t96 22q28 -2 57.5 -22t29.5 -50q0 -62 -27 -154t-59.5 -169.5t-59.5 -157.5t-27 -120q0 -51 42 -51q166 0 400 712q4 14 18 10q28 -5 39.5 -20t8.5 -26q-8 -26 -74 -213.5t-99 -304.5t-33 -181q0 -35 11 -49
q14 -18 10 -24zM657 899q26 -15 14 -27l-78 -64q-13 -12 -25 0t0 25l64 66q10 10 25 0z" />
    <glyph glyph-name="Ucircumflex" unicode="&#xdb;" horiz-adv-x="715" 
d="M582 -77l-1 2q-12 -17 -56 16q-31 24 -31 85q0 60 35 187q-53 -109 -107 -168.5t-120 -59.5q-49 0 -81 30t-32 84q0 61 43 174t86 229t43 185v5.5v5v4t-1.5 3.5l-3 2t-5 1.5t-7.5 0.5q-30 2 -79.5 -24t-96.5 -66.5t-78.5 -99.5t-25.5 -115q1 -7 -5 -12t-14 -5
q-10 0 -27 20t-18 43q-2 56 37.5 113t96 95.5t115.5 62.5t96 22q28 -2 57.5 -22t29.5 -50q0 -62 -27 -154t-59.5 -169.5t-59.5 -157.5t-27 -120q0 -51 42 -51q166 0 400 712q4 14 18 10q28 -5 39.5 -20t8.5 -26q-8 -26 -74 -213.5t-99 -304.5t-33 -181q0 -35 11 -49
q14 -18 10 -24zM510 810h2q-12 12 0 25l64 66q6 6 19.5 9t17.5 -2l52 -71q11 -14 -4 -25q-7 -5 -18.5 -7.5t-17.5 2.5l-40 54l-50 -51q-13 -12 -25 0z" />
    <glyph glyph-name="Udieresis" unicode="&#xdc;" horiz-adv-x="715" 
d="M582 -77l-1 2q-12 -17 -56 16q-31 24 -31 85q0 60 35 187q-53 -109 -107 -168.5t-120 -59.5q-49 0 -81 30t-32 84q0 61 43 174t86 229t43 185v5.5v5v4t-1.5 3.5l-3 2t-5 1.5t-7.5 0.5q-30 2 -79.5 -24t-96.5 -66.5t-78.5 -99.5t-25.5 -115q1 -7 -5 -12t-14 -5
q-10 0 -27 20t-18 43q-2 56 37.5 113t96 95.5t115.5 62.5t96 22q28 -2 57.5 -22t29.5 -50q0 -62 -27 -154t-59.5 -169.5t-59.5 -157.5t-27 -120q0 -51 42 -51q166 0 400 712q4 14 18 10q28 -5 39.5 -20t8.5 -26q-8 -26 -74 -213.5t-99 -304.5t-33 -181q0 -35 11 -49
q14 -18 10 -24zM499 833q0 12 8.5 20.5t20.5 8.5t20.5 -8.5t8.5 -20.5t-8.5 -20.5t-20.5 -8.5t-20.5 8.5t-8.5 20.5zM596 833q0 12 8.5 20.5t20.5 8.5t20.5 -8.5t8.5 -20.5t-8.5 -20.5t-20.5 -8.5t-20.5 8.5t-8.5 20.5z" />
    <glyph glyph-name="Yacute" unicode="&#xdd;" horiz-adv-x="693" 
d="M60 398l-2 1q2 -19 -13 -18q-20 3 -36 30q-10 17 -10 34q1 83 78.5 160t168.5 114q46 18 96 18q41 0 65 -17t19 -56q-14 -102 -63.5 -245.5t-48.5 -169.5q1 -39 31 -39q28 0 60 27q70 59 147 216t112 282q5 9 22 8.5t35 -10t16 -19.5q-6 -32 -11.5 -61t-19 -88.5
t-27.5 -110.5t-36 -117.5t-45 -120t-55 -108t-65.5 -91t-76 -59.5t-87.5 -23q-50 0 -81 31.5t-25 66.5q2 10 11.5 13t17.5 -3t6 -16q-1 -6 1.5 -14.5t12.5 -17.5t27 -9q56 -1 108 44t93 123t72 162t56 180q-98 -217 -181 -285q-49 -39 -104 -39q-35 0 -57.5 20.5t-23.5 62.5
q-1 48 53 200t59 226q1 27 -27 27q-24 0 -73 -21q-82 -34 -144.5 -116t-54.5 -172zM635 900q26 -15 14 -27l-78 -64q-13 -12 -25 0q-12 13 0 25l64 66q10 10 25 0z" />
    <glyph glyph-name="germandbls" unicode="&#xdf;" horiz-adv-x="490" 
d="M-8 -71v3q-17 -2 -31 1t-21 7.5t-6 9.5q8 93 45 239.5t99 296t124 207.5q15 14 51.5 23.5t57.5 9.5q32 0 65 -19.5t47 -45.5q25 -47 25 -100q0 -61 -37 -113t-114 -80l-29 -11q61 -37 84 -103q16 -45 16 -87q0 -59 -29 -104.5t-74 -68.5q-39 -21 -95 -21q-43 0 -78.5 15
t-51.5 45q-3 6 -1 13t8 10t13 1t10 -8q23 -41 76 -41q34 0 65 17q37 20 60.5 56.5t23.5 85.5q0 34 -14 76q-8 24 -21.5 42.5t-31 30t-27.5 16.5t-27 12l-5 2.5t-7 8t3 15.5q5 8 25 11.5t48 7t44 10.5q42 17 68.5 73.5t26.5 115.5q0 36 -10 60q-17 40 -56 40
q-50 0 -119.5 -142t-120.5 -317.5t-60 -283.5q-2 -14 -19 -16z" />
    <glyph glyph-name="agrave" unicode="&#xe0;" horiz-adv-x="424" 
d="M211 234v-1q19 -2 35 -9.5t13 -14.5q-47 -115 -54 -154t5 -39q41 -6 223 242q11 15 25 4q15 -11 4 -25q-49 -67 -78.5 -104.5t-67.5 -80t-66.5 -60t-51.5 -14.5q-37 6 -54 30.5t-13 51.5l3 12q-73 -103 -120 -88q-81 26 -81 98q0 20 8 50q20 73 75.5 137t125.5 64
q25 0 53 -11q23 -8 38 -26q11 -13 -2 -24t-24 2t-23 16q-36 12 -90 -45.5t-78 -131.5q-10 -31 -10 -55q0 -33 19 -39q27 -9 160 196l3 9q5 12 23 10zM164 493q18 4 24 -6l40 -66q9 -15 -6 -24q-12 -8 -24 6l-57 64q-4 6 2.5 14.5t20.5 11.5z" />
    <glyph glyph-name="aacute" unicode="&#xe1;" horiz-adv-x="424" 
d="M211 234v-1q19 -2 35 -9.5t13 -14.5q-47 -115 -54 -154t5 -39q41 -6 223 242q11 15 25 4q15 -11 4 -25q-49 -67 -78.5 -104.5t-67.5 -80t-66.5 -60t-51.5 -14.5q-37 6 -54 30.5t-13 51.5l3 12q-73 -103 -120 -88q-81 26 -81 98q0 20 8 50q20 73 75.5 137t125.5 64
q25 0 53 -11q23 -8 38 -26q11 -13 -2 -24t-24 2t-23 16q-36 12 -90 -45.5t-78 -131.5q-10 -31 -10 -55q0 -33 19 -39q27 -9 160 196l3 9q5 12 23 10zM268 490q26 -15 14 -27l-78 -64q-13 -12 -25 0q-13 13 0 25l64 66q10 10 25 0z" />
    <glyph glyph-name="acircumflex" unicode="&#xe2;" horiz-adv-x="424" 
d="M211 234v-1q19 -2 35 -9.5t13 -14.5q-47 -115 -54 -154t5 -39q41 -6 223 242q11 15 25 4q15 -11 4 -25q-49 -67 -78.5 -104.5t-67.5 -80t-66.5 -60t-51.5 -14.5q-37 6 -54 30.5t-13 51.5l3 12q-73 -103 -120 -88q-81 26 -81 98q0 20 8 50q20 73 75.5 137t125.5 64
q25 0 53 -11q23 -8 38 -26q11 -13 -2 -24t-24 2t-23 16q-36 12 -90 -45.5t-78 -131.5q-10 -31 -10 -55q0 -33 19 -39q27 -9 160 196l3 9q5 12 23 10zM102 401h2q-12 13 0 25l64 66q6 6 19.5 9t17.5 -2l52 -71q11 -14 -4 -25q-7 -5 -18.5 -7.5t-17.5 2.5l-40 54l-50 -51
q-13 -13 -25 0z" />
    <glyph glyph-name="atilde" unicode="&#xe3;" horiz-adv-x="424" 
d="M211 234v-1q19 -2 35 -9.5t13 -14.5q-47 -115 -54 -154t5 -39q41 -6 223 242q11 15 25 4q15 -11 4 -25q-49 -67 -78.5 -104.5t-67.5 -80t-66.5 -60t-51.5 -14.5q-37 6 -54 30.5t-13 51.5l3 12q-73 -103 -120 -88q-81 26 -81 98q0 20 8 50q20 73 75.5 137t125.5 64
q25 0 53 -11q23 -8 38 -26q11 -13 -2 -24t-24 2t-23 16q-36 12 -90 -45.5t-78 -131.5q-10 -31 -10 -55q0 -33 19 -39q27 -9 160 196l3 9q5 12 23 10zM101 410l-2 -1q-7 2 -11 7.5t-3 12.5q4 25 29 41q14 10 31 10q33 0 48 -32q7 -13 15 -13q12 0 13 17q2 18 20 16t16 -20
q-1 -22 -21.5 -39.5t-40.5 -15.5q-29 3 -43 33q-8 18 -21 13q-7 -4 -10 -15q-2 -7 -7.5 -11t-12.5 -3z" />
    <glyph glyph-name="adieresis" unicode="&#xe4;" horiz-adv-x="424" 
d="M211 234v-1q19 -2 35 -9.5t13 -14.5q-47 -115 -54 -154t5 -39q41 -6 223 242q11 15 25 4q15 -11 4 -25q-49 -67 -78.5 -104.5t-67.5 -80t-66.5 -60t-51.5 -14.5q-37 6 -54 30.5t-13 51.5l3 12q-73 -103 -120 -88q-81 26 -81 98q0 20 8 50q20 73 75.5 137t125.5 64
q25 0 53 -11q23 -8 38 -26q11 -13 -2 -24t-24 2t-23 16q-36 12 -90 -45.5t-78 -131.5q-10 -31 -10 -55q0 -33 19 -39q27 -9 160 196l3 9q5 12 23 10zM179 424q0 12 8.5 20.5t20.5 8.5t20.5 -8.5t8.5 -20.5t-8.5 -20.5t-20.5 -8.5t-20.5 8.5t-8.5 20.5zM82 424q0 12 8.5 20.5
t20.5 8.5t20.5 -8.5t8.5 -20.5t-8.5 -20.5t-20.5 -8.5t-20.5 8.5t-8.5 20.5z" />
    <glyph glyph-name="aring" unicode="&#xe5;" horiz-adv-x="424" 
d="M211 234v-1q19 -2 35 -9.5t13 -14.5q-47 -115 -54 -154t5 -39q41 -6 223 242q11 15 25 4q15 -11 4 -25q-49 -67 -78.5 -104.5t-67.5 -80t-66.5 -60t-51.5 -14.5q-37 6 -54 30.5t-13 51.5l3 12q-73 -103 -120 -88q-81 26 -81 98q0 20 8 50q20 73 75.5 137t125.5 64
q25 0 53 -11q23 -8 38 -26q11 -13 -2 -24t-24 2t-23 16q-36 12 -90 -45.5t-78 -131.5q-10 -31 -10 -55q0 -33 19 -39q27 -9 160 196l3 9q5 12 23 10zM114 457q0 26 18.5 44.5t44.5 18.5t44.5 -18.5t18.5 -44.5t-18.5 -44.5t-44.5 -18.5t-44.5 18.5t-18.5 44.5zM149 457
q0 -11 8 -19t19 -8t19 8t8 19t-8 19t-19 8t-19 -8t-8 -19z" />
    <glyph glyph-name="ae" unicode="&#xe6;" horiz-adv-x="582" 
d="M197 3l-2 1q0 -2 3 -17q5 -20 -14 -24q-26 -4 -44.5 22.5t-14.5 51.5q4 22 10 40q-76 -107 -123 -91q-81 26 -81 98q0 20 8 50q20 73 75.5 137t125.5 64q25 0 53 -11q23 -8 38 -26q4 -4 4 -11q42 36 87 37q52 2 80 -21q23 -20 23 -54q0 -33 -19 -53q-56 -62 -133 -62
q-20 0 -41 7q-6 -24 -6 -46q0 -63 51 -76q12 -2 19 -2q69 -5 137 57t157 186q11 15 25 4q15 -11 4 -25q-44 -62 -78 -102.5t-77.5 -82.5t-88 -61.5t-89.5 -16.5q-54 3 -89 27zM159 184v-1q18 49 54 86q-7 2 -11 6q-11 13 -23 16q-36 12 -90 -45.5t-78 -131.5
q-10 -31 -10 -55q0 -33 19 -39q25 -8 139 164zM243 176h-1q9 -4 28 -4q63 0 108 49q13 14 13 29.5t-8 21.5q-7 7 -22 7q-32 0 -63.5 -27.5t-51.5 -69.5z" />
    <glyph glyph-name="ccedilla" unicode="&#xe7;" horiz-adv-x="398" 
d="M217 185l1 -1q-15 9 -6 24q8 15 8 29q0 18 -13.5 29.5t-36.5 11.5q-47 0 -88.5 -54.5t-46.5 -116.5q-7 -85 69 -91q69 -5 140 57.5t166 185.5q10 14 25 3q14 -10 3 -25q-88 -113 -156 -179t-141 -82q0 -2 -1 -3l-13 -22q13 -4 21 -17q9 -15 9 -30q0 -28 -19 -41
q-15 -10 -34 -10q-23 0 -36 16q-11 13 2 24t24 -2q8 -9 21 -2q7 4 7.5 13t-6.5 17q-5 5 -14 2q-9 -4 -17 1q-15 8 -6 25l16 25q-70 2 -109.5 37t-35.5 100q5 83 51 145t111 68q67 6 104 -20.5t37 -64.5q0 -23 -12 -46q-9 -15 -24 -6z" />
    <glyph glyph-name="egrave" unicode="&#xe8;" horiz-adv-x="381" 
d="M44 176h-2q9 -4 28 -4q63 0 108 49q13 14 13 29.5t-8 21.5q-7 7 -22 7q-33 0 -65.5 -29t-51.5 -74zM30 143q-6 -25 -6 -47q0 -63 51 -76q12 -2 19 -2q69 -5 137 57t157 186q11 15 25 4q15 -11 4 -25q-44 -62 -78 -102.5t-77.5 -82.5t-88 -61.5t-89.5 -16.5
q-71 4 -105 40.5t-34 91.5q0 76 53.5 146t121.5 71q52 2 80 -21q23 -20 23 -54q0 -33 -19 -53q-56 -62 -133 -62q-20 0 -41 7zM95 484q18 4 24 -6l40 -66q9 -15 -6 -24q-12 -8 -24 6l-57 64q-4 6 2.5 14.5t20.5 11.5z" />
    <glyph glyph-name="eacute" unicode="&#xe9;" horiz-adv-x="381" 
d="M44 176h-2q9 -4 28 -4q63 0 108 49q13 14 13 29.5t-8 21.5q-7 7 -22 7q-33 0 -65.5 -29t-51.5 -74zM30 143q-6 -25 -6 -47q0 -63 51 -76q12 -2 19 -2q69 -5 137 57t157 186q11 15 25 4q15 -11 4 -25q-44 -62 -78 -102.5t-77.5 -82.5t-88 -61.5t-89.5 -16.5
q-71 4 -105 40.5t-34 91.5q0 76 53.5 146t121.5 71q52 2 80 -21q23 -20 23 -54q0 -33 -19 -53q-56 -62 -133 -62q-20 0 -41 7zM212 481q26 -15 14 -27l-78 -64q-13 -12 -25 0q-13 12 0 25l64 66q10 10 25 0z" />
    <glyph glyph-name="ecircumflex" unicode="&#xea;" horiz-adv-x="381" 
d="M44 176h-2q9 -4 28 -4q63 0 108 49q13 14 13 29.5t-8 21.5q-7 7 -22 7q-33 0 -65.5 -29t-51.5 -74zM30 143q-6 -25 -6 -47q0 -63 51 -76q12 -2 19 -2q69 -5 137 57t157 186q11 15 25 4q15 -11 4 -25q-44 -62 -78 -102.5t-77.5 -82.5t-88 -61.5t-89.5 -16.5
q-71 4 -105 40.5t-34 91.5q0 76 53.5 146t121.5 71q52 2 80 -21q23 -20 23 -54q0 -33 -19 -53q-56 -62 -133 -62q-20 0 -41 7zM63 392h2q-13 12 0 25l64 66q6 6 19.5 9t17.5 -2l52 -71q11 -14 -4 -25q-7 -5 -18.5 -7.5t-17.5 2.5l-40 54l-50 -51q-12 -12 -25 0z" />
    <glyph glyph-name="edieresis" unicode="&#xeb;" horiz-adv-x="381" 
d="M44 176h-2q9 -4 28 -4q63 0 108 49q13 14 13 29.5t-8 21.5q-7 7 -22 7q-33 0 -65.5 -29t-51.5 -74zM30 143q-6 -25 -6 -47q0 -63 51 -76q12 -2 19 -2q69 -5 137 57t157 186q11 15 25 4q15 -11 4 -25q-44 -62 -78 -102.5t-77.5 -82.5t-88 -61.5t-89.5 -16.5
q-71 4 -105 40.5t-34 91.5q0 76 53.5 146t121.5 71q52 2 80 -21q23 -20 23 -54q0 -33 -19 -53q-56 -62 -133 -62q-20 0 -41 7zM63 415q0 12 8.5 20.5t20.5 8.5t20.5 -8.5t8.5 -20.5t-8.5 -20.5t-20.5 -8.5t-20.5 8.5t-8.5 20.5zM160 415q0 12 8.5 20.5t20.5 8.5t20.5 -8.5
t8.5 -20.5t-8.5 -20.5t-20.5 -8.5t-20.5 8.5t-8.5 20.5z" />
    <glyph glyph-name="igrave" unicode="&#xec;" horiz-adv-x="243" 
d="M70 316h2q14 -4 21.5 -12.5t4.5 -15.5q-26 -54 -49.5 -121t-26.5 -100q-5 -50 11 -50q22 -2 78 65q102 122 142 177q11 15 25 4q15 -11 4 -25q-68 -92 -143 -180q-69 -83 -123 -80q-40 2 -58 30t-15 62q3 38 27 107t52 126q11 25 48 13zM33 478q18 4 24 -6l40 -66
q9 -15 -6 -24q-12 -8 -24 6l-57 64q-4 6 2.5 14.5t20.5 11.5z" />
    <glyph glyph-name="iacute" unicode="&#xed;" horiz-adv-x="243" 
d="M70 316h2q14 -4 21.5 -12.5t4.5 -15.5q-26 -54 -49.5 -121t-26.5 -100q-5 -50 11 -50q22 -2 78 65q102 122 142 177q11 15 25 4q15 -11 4 -25q-68 -92 -143 -180q-69 -83 -123 -80q-40 2 -58 30t-15 62q3 38 27 107t52 126q11 25 48 13zM166 475q26 -15 14 -27l-78 -64
q-13 -12 -25 0q-13 12 0 25l64 66q10 10 25 0z" />
    <glyph glyph-name="icircumflex" unicode="&#xee;" horiz-adv-x="243" 
d="M70 316h2q14 -4 21.5 -12.5t4.5 -15.5q-26 -54 -49.5 -121t-26.5 -100q-5 -50 11 -50q22 -2 78 65q102 122 142 177q11 15 25 4q15 -11 4 -25q-68 -92 -143 -180q-69 -83 -123 -80q-40 2 -58 30t-15 62q3 38 27 107t52 126q11 25 48 13zM16 386h2q-12 12 0 25l64 66
q6 6 19.5 9t17.5 -2l52 -71q11 -14 -4 -25q-7 -5 -18.5 -7.5t-17.5 2.5l-40 54l-50 -51q-13 -12 -25 0z" />
    <glyph glyph-name="idieresis" unicode="&#xef;" horiz-adv-x="243" 
d="M70 316h2q14 -4 21.5 -12.5t4.5 -15.5q-26 -54 -49.5 -121t-26.5 -100q-5 -50 11 -50q22 -2 78 65q102 122 142 177q11 15 25 4q15 -11 4 -25q-68 -92 -143 -180q-69 -83 -123 -80q-40 2 -58 30t-15 62q3 38 27 107t52 126q11 25 48 13zM4 409q0 12 8.5 20.5t20.5 8.5
t20.5 -8.5t8.5 -20.5t-8.5 -20.5t-20.5 -8.5t-20.5 8.5t-8.5 20.5zM101 409q0 12 8.5 20.5t20.5 8.5t20.5 -8.5t8.5 -20.5t-8.5 -20.5t-20.5 -8.5t-20.5 8.5t-8.5 20.5z" />
    <glyph glyph-name="ntilde" unicode="&#xf1;" horiz-adv-x="453" 
d="M45 317q19 -3 30.5 -10t14.5 -13.5t1 -11.5q-16 -40 -44 -131q110 178 191 163q30 -6 55.5 -26.5t25.5 -49.5q0 -28 -19 -83t-32.5 -95.5t-4.5 -44.5q3 -2 16.5 8t38.5 36t51 62q27 37 93 137q9 14 24 5q14 -9 5 -24q-66 -99 -96 -139q-22 -30 -35 -46.5t-37 -39.5
t-44 -33q-14 -7 -31 -7q-26 0 -45 15.5t-18 40.5q1 35 30.5 118t29.5 101q0 27 -16 30q-37 7 -102.5 -77t-126.5 -207v-6q-7 -22 -46 -12q-13 3 -21 11t-6 15q57 211 95 304q5 12 23 10zM133 392l-2 -1q-7 2 -11 7.5t-3 12.5q4 25 29 41q14 10 31 10q33 0 48 -32
q7 -13 15 -13q12 0 13 17q2 18 20 16t16 -20q-1 -22 -21.5 -39.5t-40.5 -15.5q-29 3 -43 33q-8 18 -21 13q-7 -4 -10 -15q-2 -7 -7.5 -11t-12.5 -3z" />
    <glyph glyph-name="ograve" unicode="&#xf2;" horiz-adv-x="352" 
d="M226 165l2 1q48 7 76 28.5t61 66.5q11 14 25 2q12 -10 1 -25q-38 -51 -75.5 -76.5t-94.5 -31.5q-17 -69 -67.5 -119t-111.5 -35q-94 24 -94 122q0 36 13 74q16 47 42 81q6 38 38 60q26 18 59 18q49 0 90 -38q45 -41 36 -128zM46 168h-1q-8 -16 -11 -24q-13 -35 -13 -65
q0 -49 31 -60q41 -15 78 17.5t55 92.5q-86 0 -139 39zM96 237q-9 -9 -32 -39l3 -3q47 -35 127 -32q10 74 -24 105q-44 39 -89 24l-9 -3q14 -7 25 -27q8 -16 -1 -25zM113 490q18 4 24 -6l40 -66q9 -15 -6 -24q-12 -8 -24 6l-57 64q-4 6 2.5 14.5t20.5 11.5z" />
    <glyph glyph-name="oacute" unicode="&#xf3;" horiz-adv-x="352" 
d="M226 165l2 1q48 7 76 28.5t61 66.5q11 14 25 2q12 -10 1 -25q-38 -51 -75.5 -76.5t-94.5 -31.5q-17 -69 -67.5 -119t-111.5 -35q-94 24 -94 122q0 36 13 74q16 47 42 81q6 38 38 60q26 18 59 18q49 0 90 -38q45 -41 36 -128zM46 168h-1q-8 -16 -11 -24q-13 -35 -13 -65
q0 -49 31 -60q41 -15 78 17.5t55 92.5q-86 0 -139 39zM96 237q-9 -9 -32 -39l3 -3q47 -35 127 -32q10 74 -24 105q-44 39 -89 24l-9 -3q14 -7 25 -27q8 -16 -1 -25zM224 488q26 -15 14 -27l-78 -64q-13 -12 -25 0q-13 13 0 25l64 66q10 10 25 0z" />
    <glyph glyph-name="ocircumflex" unicode="&#xf4;" horiz-adv-x="352" 
d="M226 165l2 1q48 7 76 28.5t61 66.5q11 14 25 2q12 -10 1 -25q-38 -51 -75.5 -76.5t-94.5 -31.5q-17 -69 -67.5 -119t-111.5 -35q-94 24 -94 122q0 36 13 74q16 47 42 81q6 38 38 60q26 18 59 18q49 0 90 -38q45 -41 36 -128zM46 168h-1q-8 -16 -11 -24q-13 -35 -13 -65
q0 -49 31 -60q41 -15 78 17.5t55 92.5q-86 0 -139 39zM96 237q-9 -9 -32 -39l3 -3q47 -35 127 -32q10 74 -24 105q-44 39 -89 24l-9 -3q14 -7 25 -27q8 -16 -1 -25zM68 398h2q-12 12 0 25l64 66q6 6 19.5 9t17.5 -2l52 -71q11 -14 -4 -25q-7 -5 -18.5 -7.5t-17.5 2.5l-40 54
l-50 -51q-13 -12 -25 0z" />
    <glyph glyph-name="otilde" unicode="&#xf5;" horiz-adv-x="352" 
d="M226 165l2 1q48 7 76 28.5t61 66.5q11 14 25 2q12 -10 1 -25q-38 -51 -75.5 -76.5t-94.5 -31.5q-17 -69 -67.5 -119t-111.5 -35q-94 24 -94 122q0 36 13 74q16 47 42 81q6 38 38 60q26 18 59 18q49 0 90 -38q45 -41 36 -128zM46 168h-1q-8 -16 -11 -24q-13 -35 -13 -65
q0 -49 31 -60q41 -15 78 17.5t55 92.5q-86 0 -139 39zM96 237q-9 -9 -32 -39l3 -3q47 -35 127 -32q10 74 -24 105q-44 39 -89 24l-9 -3q14 -7 25 -27q8 -16 -1 -25zM83 407l-2 -1q-7 2 -11 7.5t-3 12.5q4 25 29 41q14 10 31 10q33 0 48 -32q7 -13 15 -13q12 0 13 17
q2 18 20 16t16 -20q-1 -22 -21.5 -39.5t-40.5 -15.5q-29 3 -43 33q-8 18 -21 13q-7 -4 -10 -15q-2 -7 -7.5 -11t-12.5 -3z" />
    <glyph glyph-name="odieresis" unicode="&#xf6;" horiz-adv-x="352" 
d="M226 165l2 1q48 7 76 28.5t61 66.5q11 14 25 2q12 -10 1 -25q-38 -51 -75.5 -76.5t-94.5 -31.5q-17 -69 -67.5 -119t-111.5 -35q-94 24 -94 122q0 36 13 74q16 47 42 81q6 38 38 60q26 18 59 18q49 0 90 -38q45 -41 36 -128zM46 168h-1q-8 -16 -11 -24q-13 -35 -13 -65
q0 -49 31 -60q41 -15 78 17.5t55 92.5q-86 0 -139 39zM96 237q-9 -9 -32 -39l3 -3q47 -35 127 -32q10 74 -24 105q-44 39 -89 24l-9 -3q14 -7 25 -27q8 -16 -1 -25zM169 421q0 12 8.5 20.5t20.5 8.5t20.5 -8.5t8.5 -20.5t-8.5 -20.5t-20.5 -8.5t-20.5 8.5t-8.5 20.5zM72 421
q0 12 8.5 20.5t20.5 8.5t20.5 -8.5t8.5 -20.5t-8.5 -20.5t-20.5 -8.5t-20.5 8.5t-8.5 20.5z" />
    <glyph glyph-name="divide" unicode="&#xf7;" horiz-adv-x="422" 
d="M82 242q5 14 13.5 23.5t15.5 9.5h263q7 0 9.5 -9.5t-2.5 -23.5t-13.5 -23.5t-15.5 -9.5h-263q-7 0 -9.5 9.5t2.5 23.5zM154 97q0 17 12 28.5t28 11.5t28 -11.5t12 -28.5t-12 -28.5t-28 -11.5t-28 11.5t-12 28.5zM227 393q0 17 11.5 28.5t28.5 11.5t28.5 -11.5t11.5 -28.5
t-11.5 -28.5t-28.5 -11.5t-28.5 11.5t-11.5 28.5z" />
    <glyph glyph-name="oslash" unicode="&#xf8;" horiz-adv-x="352" 
d="M226 165l4 -2q48 7 76 28.5t61 66.5q11 14 25 2q12 -10 1 -25q-38 -51 -75.5 -76.5t-94.5 -31.5q-17 -69 -67.5 -119t-111.5 -35q-22 6 -42 17l-23 -30q-10 -14 -25 -3q-14 10 -3 25l24 32q-26 32 -26 82q0 36 13 75q16 47 42 81q6 38 38 60q26 18 59 18q47 0 86 -35
l20 26q10 14 25 3q14 -10 3 -25l-25 -32q23 -41 16 -102zM36 31v-1q8 -11 19 -15q41 -15 78 17.5t55 92.5q-38 0 -73 9zM98 234q-15 -16 -33 -40l3 -2q15 -10 33 -18l69 91q-44 39 -87 24l-9 -3q14 -7 25 -27q8 -16 -1 -25zM138 164l1 -1q27 -5 57 -3q6 42 -5 74zM79 147
q-22 10 -32 17l-10 -23q-13 -36 -13 -67z" />
    <glyph glyph-name="ugrave" unicode="&#xf9;" horiz-adv-x="458" 
d="M287 316l5 -1q14 -4 21.5 -12.5t4.5 -15.5q-26 -54 -49.5 -121t-26.5 -100q-5 -50 11 -50q11 -1 34.5 16.5t49.5 48.5q52 62 136 177q11 15 25 4q15 -11 4 -25q-110 -149 -137 -180q-69 -83 -129 -80q-40 2 -58 30t-15 62v3q-73 -102 -141 -94q-40 5 -58.5 32t-15.5 60
q3 38 27 107t52 126q11 25 48 13q14 -4 21.5 -12.5t4.5 -15.5q-26 -54 -49.5 -121t-26.5 -100q-5 -51 11 -51q68 -4 166 203q17 41 37 84q11 25 48 13zM154 477q18 4 24 -6l40 -66q9 -15 -6 -24q-12 -8 -24 6l-57 64q-4 6 2.5 14.5t20.5 11.5z" />
    <glyph glyph-name="uacute" unicode="&#xfa;" horiz-adv-x="458" 
d="M287 316l5 -1q14 -4 21.5 -12.5t4.5 -15.5q-26 -54 -49.5 -121t-26.5 -100q-5 -50 11 -50q11 -1 34.5 16.5t49.5 48.5q52 62 136 177q11 15 25 4q15 -11 4 -25q-110 -149 -137 -180q-69 -83 -129 -80q-40 2 -58 30t-15 62v3q-73 -102 -141 -94q-40 5 -58.5 32t-15.5 60
q3 38 27 107t52 126q11 25 48 13q14 -4 21.5 -12.5t4.5 -15.5q-26 -54 -49.5 -121t-26.5 -100q-5 -51 11 -51q68 -4 166 203q17 41 37 84q11 25 48 13zM272 474q26 -15 14 -27l-78 -64q-13 -12 -25 0q-13 13 0 25l64 66q10 10 25 0z" />
    <glyph glyph-name="ucircumflex" unicode="&#xfb;" horiz-adv-x="458" 
d="M287 316l5 -1q14 -4 21.5 -12.5t4.5 -15.5q-26 -54 -49.5 -121t-26.5 -100q-5 -50 11 -50q11 -1 34.5 16.5t49.5 48.5q52 62 136 177q11 15 25 4q15 -11 4 -25q-110 -149 -137 -180q-69 -83 -129 -80q-40 2 -58 30t-15 62v3q-73 -102 -141 -94q-40 5 -58.5 32t-15.5 60
q3 38 27 107t52 126q11 25 48 13q14 -4 21.5 -12.5t4.5 -15.5q-26 -54 -49.5 -121t-26.5 -100q-5 -51 11 -51q68 -4 166 203q17 41 37 84q11 25 48 13zM120 385h2q-12 13 0 25l64 66q6 6 19.5 9t17.5 -2l52 -71q11 -14 -4 -25q-7 -5 -18.5 -7.5t-17.5 2.5l-40 54l-50 -51
q-13 -13 -25 0z" />
    <glyph glyph-name="udieresis" unicode="&#xfc;" horiz-adv-x="458" 
d="M287 316l5 -1q14 -4 21.5 -12.5t4.5 -15.5q-26 -54 -49.5 -121t-26.5 -100q-5 -50 11 -50q11 -1 34.5 16.5t49.5 48.5q52 62 136 177q11 15 25 4q15 -11 4 -25q-110 -149 -137 -180q-69 -83 -129 -80q-40 2 -58 30t-15 62v3q-73 -102 -141 -94q-40 5 -58.5 32t-15.5 60
q3 38 27 107t52 126q11 25 48 13q14 -4 21.5 -12.5t4.5 -15.5q-26 -54 -49.5 -121t-26.5 -100q-5 -51 11 -51q68 -4 166 203q17 41 37 84q11 25 48 13zM207 408q0 12 8.5 20.5t20.5 8.5t20.5 -8.5t8.5 -20.5t-8.5 -20.5t-20.5 -8.5t-20.5 8.5t-8.5 20.5zM110 408
q0 12 8.5 20.5t20.5 8.5t20.5 -8.5t8.5 -20.5t-8.5 -20.5t-20.5 -8.5t-20.5 8.5t-8.5 20.5z" />
    <glyph glyph-name="yacute" unicode="&#xfd;" horiz-adv-x="438" 
d="M235 310l3 4q4 10 19.5 10t33.5 -9t17 -20q-9 -110 -43 -229q88 80 186 199q7 8 16.5 5.5t13 -10.5t-2.5 -17q-106 -130 -233 -242q-68 -203 -130 -282q-47 -59 -92 -95q-46 -37 -106 -37q-51 0 -71 26q-14 17 -14 40q0 73 111 161q119 93 227 189q26 77 44 161
q-101 -193 -193 -183q-40 5 -58.5 32t-15.5 60q3 38 27 107t52 126q11 25 48 13q14 -4 21.5 -12.5t4.5 -15.5q-26 -54 -49.5 -121t-26.5 -100q-5 -51 11 -51q24 -1 52.5 24.5t55.5 70.5t49 88.5t43 93.5v14zM142 -67l1 2q-80 -69 -182 -150q-28 -22 -48 -44t-29.5 -39
t-14 -32t-4 -24t4.5 -14t13.5 -6.5t31 7.5t48.5 30q42 34 85 89q50 63 94 181zM259 481q26 -15 14 -27l-78 -64q-13 -12 -25 0t0 25l64 66q10 10 25 0z" />
    <glyph glyph-name="ydieresis" unicode="&#xff;" horiz-adv-x="438" 
d="M235 310l3 4q4 10 19.5 10t33.5 -9t17 -20q-9 -110 -43 -229q88 80 186 199q7 8 16.5 5.5t13 -10.5t-2.5 -17q-106 -130 -233 -242q-68 -203 -130 -282q-47 -59 -92 -95q-46 -37 -106 -37q-51 0 -71 26q-14 17 -14 40q0 73 111 161q119 93 227 189q26 77 44 161
q-101 -193 -193 -183q-40 5 -58.5 32t-15.5 60q3 38 27 107t52 126q11 25 48 13q14 -4 21.5 -12.5t4.5 -15.5q-26 -54 -49.5 -121t-26.5 -100q-5 -51 11 -51q24 -1 52.5 24.5t55.5 70.5t49 88.5t43 93.5v14zM142 -67l1 2q-80 -69 -182 -150q-28 -22 -48 -44t-29.5 -39
t-14 -32t-4 -24t4.5 -14t13.5 -6.5t31 7.5t48.5 30q42 34 85 89q50 63 94 181zM112 415q0 12 8.5 20.5t20.5 8.5t20.5 -8.5t8.5 -20.5t-8.5 -20.5t-20.5 -8.5t-20.5 8.5t-8.5 20.5zM209 415q0 12 8.5 20.5t20.5 8.5t20.5 -8.5t8.5 -20.5t-8.5 -20.5t-20.5 -8.5t-20.5 8.5
t-8.5 20.5z" />
    <glyph glyph-name="Abreve" unicode="&#x102;" 
d="M-28 -30l1 -4q1 7 7.5 11t13.5 2q57 -14 150 72.5t200 239.5q-28 -3 -54 -3q-94 0 -112 50q-6 16 11 22q17 5 22 -11q10 -24 81 -24q31 0 79 5q128 191 227 399q6 14 30 12q18 -1 29 -6t13.5 -10t1.5 -9q-36 -160 -62 -360q40 -2 58 -18q12 -12 0 -25t-25 0q-7 7 -39 7
q-18 -154 -18 -240q0 -77 14 -90q16 -3 14 -19q-1 -7 -17.5 -10t-40.5 0q-29 5 -38 37q-13 42 -13 112q0 84 17 206l-77 -10l-47 -6q-255 -415 -385 -372q-20 7 -31.5 20.5t-9.5 21.5zM525 351q8 52 43 248q-83 -155 -148 -264l18 3zM710 885l-3 -1q7 0 12.5 -5t5.5 -13
q0 -28 -21 -45.5t-48 -18.5q-38 -1 -60 17t-22 48q0 19 30 18q18 -2 18 -18q0 -13 10 -21.5t25 -8.5t25 8.5t10 21.5q0 7 5 12.5t13 5.5z" />
    <glyph glyph-name="abreve" unicode="&#x103;" horiz-adv-x="424" 
d="M211 234v-1q19 -2 35 -9.5t13 -14.5q-47 -115 -54 -154t5 -39q41 -6 223 242q11 15 25 4q15 -11 4 -25q-49 -67 -78.5 -104.5t-67.5 -80t-66.5 -60t-51.5 -14.5q-37 6 -54 30.5t-13 51.5l3 12q-73 -103 -120 -88q-81 26 -81 98q0 20 8 50q20 73 75.5 137t125.5 64
q25 0 53 -11q23 -8 38 -26q11 -13 -2 -24t-24 2t-23 16q-36 12 -90 -45.5t-78 -131.5q-10 -31 -10 -55q0 -33 19 -39q27 -9 160 196l3 9q5 12 23 10zM253 477l-3 -1q8 0 13 -5t5 -13q0 -28 -21 -45.5t-48 -18.5q-38 -1 -60 17t-22 48q0 19 30 18q18 -2 18 -18
q0 -13 10 -21.5t25 -8.5t25 8.5t10 21.5q0 7 5.5 12.5t12.5 5.5z" />
    <glyph glyph-name="Aogonek" unicode="&#x104;" 
d="M13 -72q-18 6 -28.5 17.5t-12.5 20.5q1 7 7.5 11t13.5 2q57 -14 150 72.5t200 239.5q-29 -3 -54 -3q-94 0 -112 50q-6 16 11 22q16 5 22 -11q10 -24 81 -24q31 0 79 5q128 191 227 399q6 14 30 12q18 -1 29 -6t13.5 -10t1.5 -9q-36 -160 -62 -360q40 -2 58 -18
q13 -12 0 -25t-25 0q-7 7 -39 7q-18 -154 -18 -240q0 -77 14 -90q16 -3 14 -19q0 -4 -5 -7v-3l-1 -30q0 -7 -6.5 -12t-14.5 -3l-4 1q-5 0 -11.5 -7t-5.5 -20q0 -7 6 -11.5t17 0.5q15 9 24 -2q11 -13 -3 -24q-14 -10 -29 -10q-20 0 -35 15t-16 34q-1 27 13.5 42.5t31.5 18.5
v6q-6 0 -18 2q-29 5 -38 37q-13 42 -13 112q0 84 17 206l-77 -10l-47 -6q-255 -415 -385 -372zM527 352q8 52 43 248q-83 -155 -148 -264l18 3z" />
    <glyph glyph-name="aogonek" unicode="&#x105;" horiz-adv-x="424" 
d="M211 234l1 -4q19 -2 35 -9.5t13 -14.5q-47 -115 -54 -154t5 -39q41 -6 223 242q11 15 25 4q15 -11 4 -25q-57 -77 -90 -119.5t-74.5 -84t-70.5 -51.5v-3l-1 -30q0 -7 -6.5 -12t-14.5 -3l-4 1q-5 0 -11.5 -7t-5.5 -20q0 -7 6 -11.5t17 0.5q15 9 24 -2q11 -13 -3 -24
q-14 -10 -29 -10q-20 0 -35 15t-16 34q-1 27 13.5 42.5t31.5 18.5v10q-35 7 -51 31.5t-12 50.5l3 12q-73 -103 -120 -88q-81 26 -81 98q0 20 8 50q20 73 75.5 137t125.5 64q25 0 53 -11q23 -8 38 -26q11 -13 -2 -24t-24 2t-23 16q-36 12 -90 -45.5t-78 -131.5
q-10 -31 -10 -55q0 -33 19 -39q27 -9 160 196l3 9q5 12 23 10z" />
    <glyph glyph-name="Cacute" unicode="&#x106;" horiz-adv-x="548" 
d="M375 508h1q5 -3 5.5 -13t1.5 -12q7 -19 26 -19q36 0 78 49.5t42 104.5q0 92 -72 95q-37 2 -77 -12t-84.5 -46.5t-88 -97.5t-76.5 -155q-52 -143 -52 -239q0 -101 56 -137q25 -17 66 -17q82 0 184.5 68.5t174.5 181.5q9 14 24 5q14 -9 5 -24q-76 -120 -195.5 -202
t-217.5 -82q-48 0 -82 22q-94 60 -94 213q0 104 49 241q27 75 65.5 134.5t78 95.5t82.5 59t81 30.5t72 4.5q135 -13 135 -140q0 -81 -49.5 -151t-103.5 -70q-18 0 -33 9q-35 20 -35 61q0 20 8 38q3 6 11 7.5t14 -2.5zM541 912q26 -15 14 -27l-78 -64q-13 -12 -25 0
q-12 13 0 25l64 66q10 10 25 0z" />
    <glyph glyph-name="cacute" unicode="&#x107;" horiz-adv-x="398" 
d="M217 185v-1q-15 9 -6 24q8 15 8 29q0 18 -13.5 29.5t-36.5 11.5q-47 0 -88.5 -54.5t-46.5 -116.5q-7 -85 69 -91q69 -5 140 57.5t166 185.5q10 14 25 3q14 -10 3 -25q-49 -62 -82 -100.5t-79 -82t-91 -63.5t-90 -19q-70 2 -109.5 37t-35.5 100q5 83 51 145t111 68
q67 6 104 -20.5t37 -64.5q0 -23 -12 -46q-9 -15 -24 -6zM238 478q26 -15 14 -27l-78 -64q-13 -12 -25 0q-13 13 0 25l64 66q10 10 25 0z" />
    <glyph glyph-name="Ccaron" unicode="&#x10c;" horiz-adv-x="548" 
d="M375 508h1q5 -3 5.5 -13t1.5 -12q7 -19 26 -19q36 0 78 49.5t42 104.5q0 92 -72 95q-37 2 -77 -12t-84.5 -46.5t-88 -97.5t-76.5 -155q-52 -143 -52 -239q0 -101 56 -137q25 -17 66 -17q82 0 184.5 68.5t174.5 181.5q9 14 24 5q14 -9 5 -24q-76 -120 -195.5 -202
t-217.5 -82q-48 0 -82 22q-94 60 -94 213q0 104 49 241q27 75 65.5 134.5t78 95.5t82.5 59t81 30.5t72 4.5q135 -13 135 -140q0 -81 -49.5 -151t-103.5 -70q-18 0 -33 9q-35 20 -35 61q0 20 8 38q3 6 11 7.5t14 -2.5zM549 918h-2q13 -12 0 -25l-64 -66q-6 -6 -19.5 -9
t-17.5 2l-52 71q-11 14 4 25q7 5 18.5 7.5t17.5 -2.5l40 -54l50 51q12 12 25 0z" />
    <glyph glyph-name="ccaron" unicode="&#x10d;" horiz-adv-x="398" 
d="M217 185v-1q-15 9 -6 24q8 15 8 29q0 18 -13.5 29.5t-36.5 11.5q-47 0 -88.5 -54.5t-46.5 -116.5q-7 -85 69 -91q69 -5 140 57.5t166 185.5q10 14 25 3q14 -10 3 -25q-49 -62 -82 -100.5t-79 -82t-91 -63.5t-90 -19q-70 2 -109.5 37t-35.5 100q5 83 51 145t111 68
q67 6 104 -20.5t37 -64.5q0 -23 -12 -46q-9 -15 -24 -6zM247 484h-2q13 -12 0 -25l-64 -66q-6 -6 -19.5 -9t-17.5 2l-52 71q-11 14 4 25q7 5 18.5 7.5t17.5 -2.5l40 -54l50 51q12 12 25 0z" />
    <glyph glyph-name="Dcaron" unicode="&#x10e;" horiz-adv-x="590" 
d="M339 5v3q-72 -56 -193 -56q-72 0 -135 22q-14 5 -18 15t1.5 17.5t14.5 6.5q15 -1 32 25t34 71.5t31 88.5t29 94.5t22 71.5q98 287 158 331q5 6 24.5 2.5t33.5 -17.5q5 -5 3.5 -12.5t-7.5 -12.5q-19 -14 -66 -117.5t-78 -194.5q-6 -17 -37 -127t-56.5 -165t-54.5 -59
q20 -5 44 -5q89 0 148 48q97 77 161.5 220.5t64.5 289.5q0 21 -1 31q-5 114 -84 132q-15 3 -33 3q-65 1 -125 -33t-99 -84.5t-62 -106.5t-23 -102q0 -16 3 -29q4 -16 -13 -20q-8 -2 -26.5 12.5t-24.5 32.5q-7 23 -7 41q0 50 31.5 107.5t82 105.5t122 80t144.5 31
q75 -1 126 -54t56 -121q2 -32 2 -48q0 -163 -70.5 -307t-154.5 -211zM544 910h-2q12 -12 0 -25l-64 -66q-6 -6 -19.5 -9t-17.5 2l-52 71q-11 14 4 25q7 5 18.5 7.5t17.5 -2.5l40 -54l50 51q13 12 25 0z" />
    <glyph glyph-name="dcaron" unicode="&#x10f;" horiz-adv-x="503" 
d="M310 324l-2 1q-15 -45 -35.5 -130.5t-20.5 -134.5q0 -38 15 -41q25 -6 93 61t152 181q11 15 25 4q15 -11 4 -25q-93 -127 -163.5 -197.5t-120.5 -65.5q-40 3 -61 32t-22 64q-1 34 7 83q-59 -97 -96 -140q-23 -26 -38.5 -34.5t-37.5 -6.5q-38 3 -56.5 34.5t-18.5 73.5
q0 24 7 50q17 57 51.5 110t75.5 70q23 10 50 10q30 0 56.5 -11.5t38.5 -28.5q6 20 26 76q86 240 179 336q38 39 97 39q21 0 36 -5q34 -12 34 -56q0 -23 -11 -60q-28 -83 -101.5 -169t-162.5 -120zM541 696q-33 11 -97 -87t-117 -240q71 37 131 112t83 143q8 23 9 40
t-1.5 23.5t-7.5 8.5zM192 246h-1q-1 11 -11.5 20t-19.5 12q-33 10 -78.5 -40t-66.5 -119q-10 -31 -10 -56q0 -38 22 -45q18 1 67.5 70.5t97.5 157.5zM604 695l-1 2q0 17 11.5 28.5t28.5 11.5t28.5 -11.5t11.5 -28.5q0 -23 -15 -48t-34 -39q-15 -11 -25 -2q-12 11 -1 24
q12 12 22 25q-26 10 -26 38z" />
    <glyph glyph-name="Dcroat" unicode="&#x110;" horiz-adv-x="590" 
d="M339 5l1 4q-72 -56 -193 -56q-72 0 -135 22q-14 5 -18 15t1.5 17.5t14.5 6.5q14 -1 29 20t30.5 61.5t27.5 75.5t27 86h-86q-8 0 -10.5 7.5t2.5 17.5t15 17.5t18 7.5h77l18 58q98 287 158 331q5 6 24.5 2.5t33.5 -17.5q5 -5 3.5 -12.5t-7.5 -12.5q-19 -14 -66 -117.5
t-78 -194.5q-5 -15 -12 -38h157q8 0 10.5 -7t-2.5 -18q-13 -25 -33 -25h-147q-50 -174 -78 -223q-23 -37 -44 -41q20 -5 44 -5q89 0 148 48q97 77 161.5 220.5t64.5 289.5q0 21 -1 31q-5 114 -84 132q-15 3 -33 3q-65 1 -125 -33t-99 -84.5t-62 -106.5t-23 -102q0 -16 3 -29
q4 -16 -13 -20q-8 -2 -26.5 12.5t-24.5 32.5q-7 23 -7 41q0 50 31.5 107.5t82 105.5t122 80t144.5 31q75 -1 126 -54t56 -121q2 -32 2 -48q0 -163 -70.5 -307t-154.5 -211z" />
    <glyph glyph-name="dcroat" unicode="&#x111;" horiz-adv-x="503" 
d="M311 324l-2 2q-15 -45 -35.5 -130.5t-20.5 -134.5q0 -38 15 -41q25 -6 93 61t152 181q11 15 25 4q15 -11 4 -25q-93 -127 -163.5 -197.5t-120.5 -65.5q-40 3 -61 32t-22 64q-1 34 7 83q-59 -97 -96 -140q-23 -26 -38.5 -34.5t-37.5 -6.5q-38 3 -56.5 34.5t-18.5 73.5
q0 24 7 50q17 57 51.5 110t75.5 70q23 10 50 10q30 0 56.5 -11.5t38.5 -28.5q6 20 26 76q15 44 30 79h-59q-8 0 -10.5 7.5t2.5 17.5q13 25 33 25h56q63 140 128 206q38 39 97 39q21 0 36 -5q34 -12 34 -56q0 -23 -11 -60q-21 -61 -67 -125h35q8 0 10.5 -7t-2.5 -18
q-5 -10 -15 -17.5t-18 -7.5h-51q-75 -83 -157 -114zM193 247h-1q-1 11 -11.5 20t-19.5 12q-33 10 -78.5 -40t-66.5 -119q-10 -31 -10 -56q0 -38 22 -45q18 1 67.5 70.5t97.5 157.5zM538 698q-25 8 -71 -50.5t-93 -157.5h86q55 69 78 136q8 23 9 40t-1.5 23.5t-7.5 8.5z
M416 440h-64q-12 -27 -28 -69q47 24 92 69z" />
    <glyph glyph-name="Eogonek" unicode="&#x118;" horiz-adv-x="499" 
d="M317 446l3 1q3 14 21 12q49 -3 99 63t50 126q0 58 -57 67q-95 13 -159 -51.5t-80 -150.5q-4 -19 -4 -42q0 -47 20.5 -79t58.5 -39q18 -4 13 -22q-3 -13 -17 -13q-82 0 -132.5 -63t-50.5 -141q0 -53 25.5 -86t74.5 -33q154 0 332 264q9 14 24 5q14 -9 5 -24
q-127 -188 -247 -253q4 -3 3 -10l-1 -30q0 -7 -6.5 -12t-14.5 -3l-4 1q-5 0 -11.5 -7t-5.5 -20q0 -7 6 -11.5t17 0.5q15 9 24 -2q11 -13 -3 -24q-14 -10 -29 -10q-20 0 -35 15t-16 34q-1 27 13.5 42.5t31.5 18.5v4q-48 -20 -94 -20q-75 0 -122.5 40.5t-47.5 122.5
q0 81 50 150.5t152 79.5q-43 15 -66 55t-23 94q0 88 53 159q40 54 95.5 82t112.5 28q19 0 37 -3q59 -10 88.5 -49.5t29.5 -92.5q0 -74 -48.5 -136t-118.5 -62q-18 0 -33 4q-7 1 -11 7.5t-2 13.5z" />
    <glyph glyph-name="eogonek" unicode="&#x119;" horiz-adv-x="381" 
d="M204 198q-55 -62 -134 -62q-21 0 -39 6q-6 -25 -6 -46q0 -63 51 -76q12 -2 19 -2q69 -5 137 57t157 186q11 15 25 4q15 -11 4 -25q-72 -99 -131 -161.5t-121 -87.5q4 -3 3 -10l-1 -30q0 -7 -6.5 -12t-14.5 -3l-4 1q-5 0 -11.5 -7t-5.5 -20q0 -7 6 -11.5t17 0.5
q15 9 24 -2q11 -13 -3 -24q-14 -10 -29 -10q-20 0 -35 15t-16 34q-1 27 13.5 42.5t31.5 18.5v9q-27 -6 -51 -5q-71 4 -105 40.5t-34 91.5q0 76 53.5 146t121.5 71q52 2 80 -21q23 -20 23 -54q0 -33 -19 -53zM44 176h-2q9 -4 28 -4q63 0 108 49q13 14 13 29.5t-8 21.5
q-7 7 -22 7q-33 0 -65.5 -29t-51.5 -74z" />
    <glyph glyph-name="Ecaron" unicode="&#x11a;" horiz-adv-x="499" 
d="M317 446l2 1q3 14 21 12q49 -3 99 63t50 126q0 58 -57 67q-95 13 -159 -51.5t-80 -150.5q-4 -19 -4 -42q0 -47 20.5 -79t58.5 -39q18 -4 13 -22q-3 -13 -17 -13q-82 0 -132.5 -63t-50.5 -141q0 -53 25.5 -86t74.5 -33q154 0 332 264q9 14 24 5q14 -9 5 -24
q-193 -287 -371 -287q-75 0 -122.5 40.5t-47.5 122.5q0 81 50 150.5t152 79.5q-43 15 -66 55t-23 94q0 88 53 159q40 54 95.5 82t112.5 28q19 0 37 -3q59 -10 88.5 -49.5t29.5 -92.5q0 -74 -48.5 -136t-118.5 -62q-18 0 -33 4q-7 1 -11 7.5t-2 13.5zM514 925h-2
q12 -13 0 -25l-64 -66q-6 -6 -19.5 -9t-17.5 2l-52 71q-11 14 4 25q7 5 18.5 7.5t17.5 -2.5l40 -54l50 51q13 13 25 0z" />
    <glyph glyph-name="ecaron" unicode="&#x11b;" horiz-adv-x="381" 
d="M44 176h-2q9 -4 28 -4q63 0 108 49q13 14 13 29.5t-8 21.5q-7 7 -22 7q-33 0 -65.5 -29t-51.5 -74zM30 143q-6 -25 -6 -47q0 -63 51 -76q12 -2 19 -2q69 -5 137 57t157 186q11 15 25 4q15 -11 4 -25q-44 -62 -78 -102.5t-77.5 -82.5t-88 -61.5t-89.5 -16.5
q-71 4 -105 40.5t-34 91.5q0 76 53.5 146t121.5 71q52 2 80 -21q23 -20 23 -54q0 -33 -19 -53q-56 -62 -133 -62q-20 0 -41 7zM241 487h-2q13 -13 0 -25l-64 -66q-6 -6 -19.5 -9t-17.5 2l-52 71q-11 14 4 25q7 5 18.5 7.5t17.5 -2.5l40 -54l50 51q12 13 25 0z" />
    <glyph glyph-name="idotless" unicode="&#x131;" horiz-adv-x="243" 
d="M70 316h2q14 -4 21.5 -12.5t4.5 -15.5q-26 -54 -49.5 -121t-26.5 -100q-5 -50 11 -50q22 -2 78 65q102 122 142 177q11 15 25 4q15 -11 4 -25q-68 -92 -143 -180q-69 -83 -123 -80q-40 2 -58 30t-15 62q3 38 27 107t52 126q11 25 48 13z" />
    <glyph glyph-name="Lacute" unicode="&#x139;" horiz-adv-x="589" 
d="M392 373v-1q132 71 202 198q23 42 23 78q0 34 -17 47q-10 5 -23 6t-36 -14.5t-47 -47.5q-6 -8 -12 -18t-12.5 -24t-11 -24.5t-11.5 -29.5t-11 -30t-11.5 -34t-10.5 -33t-11 -37t-11 -36zM378 326q-36 -111 -75 -188t-98 -119q137 -42 217 -42q44 0 60 15q13 11 26 2
t3 -23q-40 -59 -107 -59q-49 0 -137.5 38.5t-105.5 42.5q-41 -16 -75 -20q-28 -3 -55.5 4t-28.5 27q0 5 1 9.5t4 7.5l5.5 5.5t8 4t8.5 2.5t9.5 1.5t9 0.5t8.5 0.5t7 0.5q23 1 56 -5q59 28 96.5 94t72.5 171q-50 -16 -90 -16q-74 0 -110 49q-6 9 -1.5 17.5t13.5 10t16 -6.5
q24 -34 84 -34q48 0 102 22q3 9 15.5 50t17 55t16 48.5t18.5 51.5t17.5 42t20.5 42t20 31q27 37 68 57t78 20q30 0 47 -13q31 -24 31 -73q0 -45 -27 -96q-42 -77 -107 -135.5t-139 -91.5zM667 897q26 -15 14 -27l-78 -64q-13 -12 -25 0t0 25l64 66q10 10 25 0z" />
    <glyph glyph-name="lacute" unicode="&#x13a;" horiz-adv-x="298" 
d="M106 324h-2q-15 -45 -35.5 -130.5t-20.5 -134.5q0 -38 15 -41q25 -6 93 61t152 181q11 15 25 4q15 -11 4 -25q-93 -127 -163.5 -197.5t-120.5 -65.5q-40 3 -61 32t-22 64q-2 97 65 287q86 240 179 336q38 39 97 39q21 0 36 -5q34 -12 34 -56q0 -23 -11 -60
q-28 -83 -101.5 -169t-162.5 -120zM337 696q-33 11 -97 -87t-117 -240q71 37 131 112t83 143q8 23 9 40t-1.5 23.5t-7.5 8.5zM417 889q26 -15 14 -27l-78 -64q-13 -12 -25 0t0 25l64 66q10 10 25 0z" />
    <glyph glyph-name="Lcaron" unicode="&#x13d;" horiz-adv-x="589" 
d="M392 373v-1q132 71 202 198q23 42 23 78q0 34 -17 47q-10 5 -23 6t-36 -14.5t-47 -47.5q-6 -8 -12 -18t-12.5 -24t-11 -24.5t-11.5 -29.5t-11 -30t-11.5 -34t-10.5 -33t-11 -37t-11 -36zM378 326q-36 -111 -75 -188t-98 -119q137 -42 217 -42q44 0 60 15q13 11 26 2
t3 -23q-40 -59 -107 -59q-49 0 -137.5 38.5t-105.5 42.5q-41 -16 -75 -20q-28 -3 -55.5 4t-28.5 27q0 5 1 9.5t4 7.5l5.5 5.5t8 4t8.5 2.5t9.5 1.5t9 0.5t8.5 0.5t7 0.5q23 1 56 -5q59 28 96.5 94t72.5 171q-50 -16 -90 -16q-74 0 -110 49q-6 9 -1.5 17.5t13.5 10t16 -6.5
q24 -34 84 -34q48 0 102 22q3 9 15.5 50t17 55t16 48.5t18.5 51.5t17.5 42t20.5 42t20 31q27 37 68 57t78 20q30 0 47 -13q31 -24 31 -73q0 -45 -27 -96q-42 -77 -107 -135.5t-139 -91.5zM680 701l-1 2q0 17 11.5 28.5t28.5 11.5t28.5 -11.5t11.5 -28.5q0 -23 -15 -48
t-34 -39q-15 -11 -25 -2q-12 11 -1 24q12 12 22 25q-26 10 -26 38z" />
    <glyph glyph-name="lcaron" unicode="&#x13e;" horiz-adv-x="298" 
d="M106 324h-2q-15 -45 -35.5 -130.5t-20.5 -134.5q0 -38 15 -41q25 -6 93 61t152 181q11 15 25 4q15 -11 4 -25q-93 -127 -163.5 -197.5t-120.5 -65.5q-40 3 -61 32t-22 64q-2 97 65 287q86 240 179 336q38 39 97 39q21 0 36 -5q34 -12 34 -56q0 -23 -11 -60
q-28 -83 -101.5 -169t-162.5 -120zM337 696q-33 11 -97 -87t-117 -240q71 37 131 112t83 143q8 23 9 40t-1.5 23.5t-7.5 8.5zM397 694l-1 2q0 16 12 28t28 12t28 -12t12 -28q0 -23 -15 -48t-34 -39q-15 -11 -25 -2q-12 11 -1 24q11 11 22 25q-26 10 -26 38z" />
    <glyph glyph-name="Lslash" unicode="&#x141;" horiz-adv-x="589" 
d="M101 179l-1 1q-6 16 11 22l162 55q10 26 14 39q-50 -16 -90 -16q-74 0 -110 49q-6 9 -1.5 17.5t13.5 10t16 -6.5q24 -34 84 -34q48 0 102 22q3 9 15.5 50t17 55t16 48.5t18.5 51.5t17.5 42t20.5 42t20 31q27 37 68 57t78 20q30 0 47 -13q31 -24 31 -73q0 -45 -27 -96
q-42 -77 -107 -135.5t-139 -91.5l-12 -39l110 37q16 5 22 -11q5 -17 -11 -22l-136 -46q-62 -167 -145 -226q137 -42 217 -42q44 0 60 15q13 11 26 2t3 -23q-40 -59 -107 -59q-49 0 -137.5 38.5t-105.5 42.5q-41 -16 -75 -20q-28 -3 -55.5 4t-28.5 27q0 5 1 9.5t4 7.5
l5.5 5.5t8 4t8.5 2.5t9.5 1.5t9 0.5t8.5 0.5t7 0.5q23 1 56 -5q82 38 139 183l-135 -46q-7 -2 -13.5 1t-8.5 10zM392 373v-1q132 71 202 198q23 42 23 78q0 34 -17 47q-10 5 -23 6t-36 -14.5t-47 -47.5q-6 -8 -12 -18t-12.5 -24t-11 -24.5t-11.5 -29.5t-11 -30t-11.5 -34
t-10.5 -33t-11 -37t-11 -36z" />
    <glyph glyph-name="lslash" unicode="&#x142;" horiz-adv-x="298" 
d="M107 324h-2q-15 -45 -35.5 -130.5t-20.5 -134.5q0 -38 15 -41q25 -6 93 61t152 181q11 15 25 4q15 -11 4 -25q-93 -127 -163.5 -197.5t-120.5 -65.5q-40 3 -61 32t-22 64q-2 97 65 287v3l-64 -19q-16 -5 -22 11t11 22l90 27q79 205 162 291q38 39 97 39q21 0 36 -5
q34 -12 34 -56q0 -23 -11 -60q-23 -68 -75 -137l63 19q7 2 13.5 -1t8.5 -10q5 -17 -11 -22l-114 -34q-70 -75 -147 -103zM234 458q75 85 103 166q8 23 9 40t-1.5 23.5t-7.5 8.5q-28 10 -83 -67t-106 -197zM175 404l-44 -13l-9 -21q25 12 53 34z" />
    <glyph glyph-name="Nacute" unicode="&#x143;" horiz-adv-x="650" 
d="M87 400v1q4 -19 -12 -18q-24 2 -42 31q-10 18 -12 37q-4 59 40 118t107 97.5t126.5 59.5t98.5 13q14 -1 46 -17.5t31 -33.5q-1 -42 -6.5 -94t-15 -125.5t-13.5 -110.5q-18 -153 -18 -231q0 -38 3 -64.5t6 -36t6 -9.5q32 0 151 491q32 129 75.5 186.5t113.5 53.5
q19 -2 21 -16q1 -7 -4 -12.5t-12 -6.5q-79 -10 -170 -330q-106 -375 -159 -413q-19 -14 -49 2t-38 44q-13 45 -13 111q0 80 18 235l16 140q-43 -128 -95.5 -245.5t-114 -206.5t-106.5 -91q-24 -1 -43.5 9t-21.5 19q-2 7 2 13.5t11 7.5q66 11 149 133.5t145.5 272.5t88.5 269
q2 13 0 16.5t-11 5.5q-48 8 -125.5 -39.5t-132.5 -125t-41 -140.5zM675 905q26 -15 14 -27l-78 -64q-13 -12 -25 0t0 25l64 66q10 10 25 0z" />
    <glyph glyph-name="nacute" unicode="&#x144;" horiz-adv-x="453" 
d="M45 317q19 -3 30.5 -10t14.5 -13.5t1 -11.5q-16 -40 -44 -131q110 178 191 163q30 -6 55.5 -26.5t25.5 -49.5q0 -28 -19 -83t-32.5 -95.5t-4.5 -44.5q3 -2 16.5 8t38.5 36t51 62q27 37 93 137q9 14 24 5q14 -9 5 -24q-66 -99 -96 -139q-22 -30 -35 -46.5t-37 -39.5
t-44 -33q-14 -7 -31 -7q-26 0 -45 15.5t-18 40.5q1 35 30.5 118t29.5 101q0 27 -16 30q-37 7 -102.5 -77t-126.5 -207v-6q-7 -22 -46 -12q-13 3 -21 11t-6 15q57 211 95 304q5 12 23 10zM289 473q26 -15 14 -27l-78 -64q-13 -12 -25 0t0 25l64 66q10 10 25 0z" />
    <glyph glyph-name="Ncaron" unicode="&#x147;" horiz-adv-x="650" 
d="M87 400v1q4 -19 -12 -18q-24 2 -42 31q-10 18 -12 37q-4 59 40 118t107 97.5t126.5 59.5t98.5 13q14 -1 46 -17.5t31 -33.5q-1 -42 -6.5 -94t-15 -125.5t-13.5 -110.5q-18 -153 -18 -231q0 -38 3 -64.5t6 -36t6 -9.5q32 0 151 491q32 129 75.5 186.5t113.5 53.5
q19 -2 21 -16q1 -7 -4 -12.5t-12 -6.5q-79 -10 -170 -330q-106 -375 -159 -413q-19 -14 -49 2t-38 44q-13 45 -13 111q0 80 18 235l16 140q-43 -128 -95.5 -245.5t-114 -206.5t-106.5 -91q-24 -1 -43.5 9t-21.5 19q-2 7 2 13.5t11 7.5q66 11 149 133.5t145.5 272.5t88.5 269
q2 13 0 16.5t-11 5.5q-48 8 -125.5 -39.5t-132.5 -125t-41 -140.5zM673 911h-2q13 -13 0 -25l-64 -66q-6 -6 -19.5 -9t-17.5 2l-52 71q-11 14 4 25q7 5 18.5 7.5t17.5 -2.5l40 -54l50 51q12 13 25 0z" />
    <glyph glyph-name="ncaron" unicode="&#x148;" horiz-adv-x="453" 
d="M45 317q19 -3 30.5 -10t14.5 -13.5t1 -11.5q-16 -40 -44 -131q110 178 191 163q30 -6 55.5 -26.5t25.5 -49.5q0 -28 -19 -83t-32.5 -95.5t-4.5 -44.5q3 -2 16.5 8t38.5 36t51 62q27 37 93 137q9 14 24 5q14 -9 5 -24q-66 -99 -96 -139q-22 -30 -35 -46.5t-37 -39.5
t-44 -33q-14 -7 -31 -7q-26 0 -45 15.5t-18 40.5q1 35 30.5 118t29.5 101q0 27 -16 30q-37 7 -102.5 -77t-126.5 -207v-6q-7 -22 -46 -12q-13 3 -21 11t-6 15q57 211 95 304q5 12 23 10zM293 479h-2q13 -13 0 -25l-64 -66q-6 -6 -19.5 -9t-17.5 2l-52 71q-11 14 4 25
q7 5 18.5 7.5t17.5 -2.5l40 -54l50 51q12 13 25 0z" />
    <glyph glyph-name="Odoubleacute" unicode="&#x150;" horiz-adv-x="528" 
d="M504 915q7 -1 13 -7.5t6 -12.5q0 -14 -16.5 -43t-37.5 -46q-13 -11 -24 2q-9 11 2 24q27 31 27 71q0 19 30 12zM425 915q7 -1 13 -7.5t6 -12.5q0 -14 -16.5 -43t-37.5 -46q-13 -11 -24 2q-9 11 2 24q27 31 27 71q0 19 30 12zM217 625v-1q65 117 175 117q65 0 95.5 -51.5
t30.5 -132.5q0 -111 -45.5 -246t-126.5 -236t-168 -101q-178 1 -178 200q0 120 63 284q43 113 91 170q5 7 28 7q21 0 35 -10zM188 558l-1 1q-29 -46 -55 -113q-56 -148 -56 -273q0 -132 66 -157q18 -6 36 -6q68 0 140.5 91.5t118 220t45.5 235.5q0 149 -91 149
q-53 0 -91 -47t-54.5 -109.5t-16.5 -129.5q0 -91 29 -125q14 -17 1 -25q-17 -6 -33.5 -0.5t-24.5 12.5q-37 33 -37 129q0 73 24 147z" />
    <glyph glyph-name="odoubleacute" unicode="&#x151;" horiz-adv-x="352" 
d="M226 165l2 1q48 7 76 28.5t61 66.5q11 14 25 2q12 -10 1 -25q-38 -51 -75.5 -76.5t-94.5 -31.5q-17 -69 -67.5 -119t-111.5 -35q-94 24 -94 122q0 36 13 74q16 47 42 81q6 38 38 60q26 18 59 18q49 0 90 -38q45 -41 36 -128zM46 168h-1q-8 -16 -11 -24q-13 -35 -13 -65
q0 -49 31 -60q41 -15 78 17.5t55 92.5q-86 0 -139 39zM96 237q-9 -9 -32 -39l3 -3q47 -35 127 -32q10 74 -24 105q-44 39 -89 24l-9 -3q14 -7 25 -27q8 -16 -1 -25zM164 505q7 -1 13 -7.5t6 -12.5q0 -14 -16.5 -43t-37.5 -46q-13 -11 -24 2q-9 11 2 24q27 31 27 71
q0 19 30 12zM243 505q7 -1 13 -7.5t6 -12.5q0 -14 -16.5 -43t-37.5 -46q-13 -11 -24 2q-9 11 2 24q27 31 27 71q0 19 30 12z" />
    <glyph glyph-name="OE" unicode="&#x152;" horiz-adv-x="841" 
d="M659 446l2 -1q3 14 21 12q49 -3 99 63t50 126q0 58 -57 67q-95 13 -159 -51.5t-80 -150.5q-4 -19 -4 -42q0 -47 20.5 -79t58.5 -39q18 -4 13 -22q-3 -13 -17 -13q-82 0 -132.5 -63t-50.5 -141q0 -53 25.5 -86t74.5 -33q154 0 332 264q9 14 24 5q14 -9 5 -24
q-193 -287 -371 -287q-65 0 -110 31t-56 93q-83 -101 -169 -101q-178 1 -178 200q0 120 63 284q43 113 91 170q5 7 28 7q21 0 35 -10q65 117 175 117q85 0 114 -94l3 6q40 54 95.5 82t112.5 28q19 0 37 -3q59 -10 88.5 -49.5t29.5 -92.5q0 -74 -48.5 -136t-118.5 -62
q-18 0 -33 4q-7 1 -11 7.5t-2 13.5zM483 602h-1q-12 104 -88 104q-53 0 -91 -47t-54.5 -109.5t-16.5 -129.5q0 -91 29 -125q14 -17 1 -25q-17 -6 -33.5 -0.5t-24.5 12.5q-37 33 -37 129q0 73 24 147q-29 -46 -55 -113q-56 -148 -56 -273q0 -132 66 -157q18 -6 36 -6
q80 0 166 126q9 106 84 164q24 64 38 129q-10 29 -10 66q0 58 23 108zM478 327l1 1q33 13 69 16q-32 10 -54 37q-10 -36 -16 -54z" />
    <glyph glyph-name="oe" unicode="&#x153;" horiz-adv-x="609" 
d="M258 143v2q-6 -25 -6 -47q0 -63 51 -76q12 -2 19 -2q69 -5 137 57t157 186q11 15 25 4q15 -11 4 -25q-44 -62 -78 -102.5t-77.5 -82.5t-88 -61.5t-89.5 -16.5q-101 6 -130 79q-27 -45 -65.5 -69t-81.5 -13q-94 24 -94 122q0 36 13 74q16 47 42 81q6 38 38 60q26 18 59 18
q49 0 90 -38q22 -19 32 -54q58 86 133 87q52 2 80 -21q23 -20 23 -54q0 -33 -19 -53q-56 -62 -133 -62q-20 0 -41 7zM36 168q-8 -16 -11 -24q-13 -35 -13 -65q0 -49 31 -60q39 -14 74.5 15.5t55.5 85.5v9q-84 0 -137 39zM53 199l4 -4q46 -34 123 -32l6 18q3 63 -26 89
q-44 39 -89 24l-9 -3q14 -7 25 -27q8 -16 -1 -25q-16 -15 -33 -40zM272 176h-2q9 -4 28 -4q63 0 108 49q13 14 13 29.5t-8 21.5q-7 7 -22 7q-33 0 -65.5 -29t-51.5 -74z" />
    <glyph glyph-name="Racute" unicode="&#x154;" horiz-adv-x="551" 
d="M82 -14l-2 3q-21 -13 -43 -13q-18 0 -30 6q-14 6 -17 14t3 13.5t15 4.5q15 -1 32 25t34 71.5t31 88.5t29 94.5t22 71.5q98 287 158 331q5 6 24.5 2.5t33.5 -17.5q5 -5 3.5 -12.5t-7.5 -12.5q-19 -14 -65 -119.5t-82 -220.5q24 -6 47 -6q77 0 137.5 58.5t80.5 152.5
q7 29 7 61q0 49 -21 83t-64 43q-15 3 -33 3q-65 1 -125 -33t-99 -84.5t-62 -106.5t-23 -102q0 -16 3 -29q4 -16 -13 -20q-8 -2 -26.5 12.5t-24.5 32.5q-7 23 -7 41q0 50 31.5 107.5t82 105.5t122 80t144.5 31q76 -1 127.5 -54t55.5 -121q3 -51 -13.5 -104.5t-50 -100.5
t-91 -74.5t-128.5 -22.5q21 -28 44.5 -80t39.5 -91t41.5 -68t55.5 -27q7 1 12.5 -3.5t6.5 -11.5q2 -20 -59 -30q-50 -8 -86.5 38t-53 106.5t-34.5 116.5t-34 63q-9 -27 -26 -86t-27.5 -91t-31 -68t-44.5 -51zM452 900q26 -15 14 -27l-78 -64q-13 -12 -25 0q-13 13 0 25
l64 66q10 10 25 0z" />
    <glyph glyph-name="racute" unicode="&#x155;" horiz-adv-x="308" 
d="M17 270q16 20 24 50.5t0 36.5q-8 -1 -16.5 -23.5t-10.5 -41.5t3 -22zM58 268h3q54 3 84 -3q18 -4 26 -13.5t3 -19.5q-32 -71 -52 -134.5t-15 -80.5q23 -1 85 69.5t128 172.5q9 14 24 5q14 -9 5 -24q-39 -60 -68.5 -101t-65 -83.5t-66 -61t-54.5 -11.5q-66 18 -66 73
q0 13 5 35q13 49 54 142q-7 0 -30 -1t-36 -1q-28 0 -49.5 15t-20.5 50q2 53 29 81t59 21q42 -9 42 -66q0 -24 -24 -64zM163 555q26 -15 14 -27l-78 -64q-13 -12 -25 0t0 25l64 66q10 10 25 0z" />
    <glyph glyph-name="Rcaron" unicode="&#x158;" horiz-adv-x="551" 
d="M82 -14l-2 3q-21 -13 -43 -13q-18 0 -30 6q-14 6 -17 14t3 13.5t15 4.5q15 -1 32 25t34 71.5t31 88.5t29 94.5t22 71.5q98 287 158 331q5 6 24.5 2.5t33.5 -17.5q5 -5 3.5 -12.5t-7.5 -12.5q-19 -14 -65 -119.5t-82 -220.5q24 -6 47 -6q77 0 137.5 58.5t80.5 152.5
q7 29 7 61q0 49 -21 83t-64 43q-15 3 -33 3q-65 1 -125 -33t-99 -84.5t-62 -106.5t-23 -102q0 -16 3 -29q4 -16 -13 -20q-8 -2 -26.5 12.5t-24.5 32.5q-7 23 -7 41q0 50 31.5 107.5t82 105.5t122 80t144.5 31q76 -1 127.5 -54t55.5 -121q3 -51 -13.5 -104.5t-50 -100.5
t-91 -74.5t-128.5 -22.5q21 -28 44.5 -80t39.5 -91t41.5 -68t55.5 -27q7 1 12.5 -3.5t6.5 -11.5q2 -20 -59 -30q-50 -8 -86.5 38t-53 106.5t-34.5 116.5t-34 63q-9 -27 -26 -86t-27.5 -91t-31 -68t-44.5 -51zM477 909h-2q13 -13 0 -25l-64 -66q-6 -6 -19.5 -9t-17.5 2
l-52 71q-11 14 4 25q7 5 18.5 7.5t17.5 -2.5l40 -54l50 51q12 13 25 0z" />
    <glyph glyph-name="rcaron" unicode="&#x159;" horiz-adv-x="308" 
d="M17 270q16 20 24 50.5t0 36.5q-8 -1 -16.5 -23.5t-10.5 -41.5t3 -22zM58 268h3q54 3 84 -3q18 -4 26 -13.5t3 -19.5q-32 -71 -52 -134.5t-15 -80.5q23 -1 85 69.5t128 172.5q9 14 24 5q14 -9 5 -24q-39 -60 -68.5 -101t-65 -83.5t-66 -61t-54.5 -11.5q-66 18 -66 73
q0 13 5 35q13 49 54 142q-7 0 -30 -1t-36 -1q-28 0 -49.5 15t-20.5 50q2 53 29 81t59 21q42 -9 42 -66q0 -24 -24 -64zM177 561h-2q13 -13 0 -25l-64 -66q-6 -6 -19.5 -9t-17.5 2l-52 71q-11 14 4 25q7 5 18.5 7.5t17.5 -2.5l40 -54l50 51q12 13 25 0z" />
    <glyph glyph-name="Sacute" unicode="&#x15a;" horiz-adv-x="587" 
d="M516 490v-1q77 45 102 128q7 22 7 38q0 30 -19 37q-15 5 -36 -10.5t-32 -52.5q-20 -67 -22 -139zM516 449l-3 1q3 -102 3 -106q0 -87 -19 -158q-31 -119 -109.5 -183.5t-177.5 -64.5q-51 0 -102 18q-49 18 -79.5 60t-30.5 97q0 27 7 52t18 45q22 44 58 66t74 22
q28 0 54 -13q51 -27 51 -81q0 -25 -14 -53q-6 -9 -15 -9.5t-15 8t-1 17.5q10 20 10 38q0 33 -32 48q-20 9 -38 9q-65 0 -101 -70q-9 -16 -15 -39q-6 -21 -6 -42q0 -42 24 -74t65 -43q22 -6 47 -6q79 0 151 56t99 161q21 82 21 147q0 17 -2 65q-45 -15 -90 -15
q-44 0 -76.5 15.5t-42.5 45.5q-5 11 -2 23t15 13q8 0 13 -5.5t5 -12.5q0 -4 2 -10q6 -15 30.5 -25t58.5 -10q42 0 86 17q0 124 23 198q14 45 44.5 66t67.5 20q45 -1 66 -25t21 -61q0 -19 -7 -44q-34 -107 -136 -158zM673 896q26 -15 14 -27l-78 -64q-13 -12 -25 0
q-12 13 0 25l64 66q10 10 25 0z" />
    <glyph glyph-name="sacute" unicode="&#x15b;" horiz-adv-x="238" 
d="M-12 -36l-3 -1q-33 0 -51 21q-16 19 -16 41q0 36 37 69.5t72 49.5l-9 39t-10 46t-4 37q-2 52 37 68q11 5 25 -0.5t18 -15.5q7 -19 -4 -43q2 -13 11 -47t13 -53q84 36 146 88q8 7 17.5 2.5t11 -13t-5.5 -16.5q-66 -55 -162 -96q4 -36 4 -50q0 -63 -30 -94.5t-97 -31.5z
M150 490q26 -15 14 -27l-78 -64q-13 -12 -25 0q-13 13 0 25l64 66q10 10 25 0zM-23 1q30 0 44 31.5t11 73.5q-24 -12 -56.5 -46.5t-15.5 -52.5q6 -6 17 -6z" />
    <glyph glyph-name="Scedilla" unicode="&#x15e;" horiz-adv-x="587" 
d="M516 490v-1q77 45 102 128q7 22 7 38q0 30 -19 37q-15 5 -36 -10.5t-32 -52.5q-20 -67 -22 -139zM516 449h-1q3 -102 3 -106q0 -87 -19 -158q-27 -106 -93.5 -169.5t-152.5 -75.5q0 -1 -2 -3l-13 -22q13 -4 21 -17q9 -15 9 -30q0 -28 -19 -41q-15 -10 -34 -10
q-23 0 -36 16q-11 13 2 24t24 -2q8 -9 21 -2q7 4 7.5 13t-6.5 17q-5 5 -14 2q-9 -4 -17 1q-15 8 -6 25l17 27q-49 0 -99 18q-49 18 -79.5 60t-30.5 97q0 27 7 52t18 45q22 44 58 66t74 22q28 0 54 -13q51 -27 51 -81q0 -25 -14 -53q-6 -9 -15 -9.5t-15 8t-1 17.5
q10 20 10 38q0 33 -32 48q-20 9 -38 9q-65 0 -101 -70q-9 -16 -15 -39q-6 -21 -6 -42q0 -42 24 -74t65 -43q22 -6 47 -6q79 0 151 56t99 161q21 82 21 147q0 17 -2 65q-45 -15 -90 -15q-44 0 -76.5 15.5t-42.5 45.5q-5 11 -2 23t15 13q8 0 13 -5.5t5 -12.5q0 -4 2 -10
q6 -15 30.5 -25t58.5 -10q42 0 86 17q0 124 23 198q14 45 44.5 66t67.5 20q45 -1 66 -25t21 -61q0 -19 -7 -44q-34 -107 -136 -158z" />
    <glyph glyph-name="scedilla" unicode="&#x15f;" horiz-adv-x="238" 
d="M-28 -90q-15 8 -6 25l16 26q-30 2 -45 20q-16 19 -16 41q0 36 37 69.5t72 49.5l-9 39t-10 46t-4 37q-2 52 37 68q11 5 25 -0.5t18 -15.5q7 -19 -4 -43q2 -13 11 -47t13 -53q84 36 146 88q8 7 17.5 2.5t11 -13t-5.5 -16.5q-66 -55 -162 -96q4 -36 4 -50q0 -107 -89 -123
q0 -1 -2 -3l-13 -22q13 -4 21 -17q9 -15 9 -30q0 -28 -19 -41q-15 -10 -34 -10q-23 0 -36 16q-11 13 2 24t24 -2q8 -9 21 -2q7 4 7.5 13t-6.5 17q-5 5 -14 2q-9 -4 -17 1zM-20 2q30 0 44 31.5t11 73.5q-24 -12 -56.5 -46.5t-15.5 -52.5q6 -6 17 -6z" />
    <glyph glyph-name="Scaron" unicode="&#x160;" horiz-adv-x="587" 
d="M516 490v-1q77 45 102 128q7 22 7 38q0 30 -19 37q-15 5 -36 -10.5t-32 -52.5q-20 -67 -22 -139zM516 449l-3 1q3 -102 3 -106q0 -87 -19 -158q-31 -119 -109.5 -183.5t-177.5 -64.5q-51 0 -102 18q-49 18 -79.5 60t-30.5 97q0 27 7 52t18 45q22 44 58 66t74 22
q28 0 54 -13q51 -27 51 -81q0 -25 -14 -53q-6 -9 -15 -9.5t-15 8t-1 17.5q10 20 10 38q0 33 -32 48q-20 9 -38 9q-65 0 -101 -70q-9 -16 -15 -39q-6 -21 -6 -42q0 -42 24 -74t65 -43q22 -6 47 -6q79 0 151 56t99 161q21 82 21 147q0 17 -2 65q-45 -15 -90 -15
q-44 0 -76.5 15.5t-42.5 45.5q-5 11 -2 23t15 13q8 0 13 -5.5t5 -12.5q0 -4 2 -10q6 -15 30.5 -25t58.5 -10q42 0 86 17q0 124 23 198q14 45 44.5 66t67.5 20q45 -1 66 -25t21 -61q0 -19 -7 -44q-34 -107 -136 -158zM679 902h-2q13 -12 0 -25l-64 -66q-6 -6 -19.5 -9
t-17.5 2l-52 71q-11 14 4 25q7 5 18.5 7.5t17.5 -2.5l40 -54l50 51q12 12 25 0z" />
    <glyph glyph-name="scaron" unicode="&#x161;" horiz-adv-x="238" 
d="M-12 -36l-3 -1q-33 0 -51 21q-16 19 -16 41q0 36 37 69.5t72 49.5l-9 39t-10 46t-4 37q-2 52 37 68q11 5 25 -0.5t18 -15.5q7 -19 -4 -43q2 -13 11 -47t13 -53q84 36 146 88q8 7 17.5 2.5t11 -13t-5.5 -16.5q-66 -55 -162 -96q4 -36 4 -50q0 -63 -30 -94.5t-97 -31.5z
M160 495h-2q12 -13 0 -25l-64 -66q-6 -6 -19.5 -9t-17.5 2l-52 71q-11 14 4 25q7 5 18.5 7.5t17.5 -2.5l40 -54l50 51q13 13 25 0zM-23 1q30 0 44 31.5t11 73.5q-24 -12 -56.5 -46.5t-15.5 -52.5q6 -6 17 -6z" />
    <glyph glyph-name="Tcedilla" unicode="&#x162;" horiz-adv-x="395" 
d="M58 618v-3q-15 9 -6 24q68 116 303 116q59 0 165.5 -8.5t143.5 -8.5q77 0 99 22q13 12 25 0q11 -11 0 -25q-45 -59 -169 -59q-37 0 -119 8q-45 -14 -83 -84t-61 -152.5t-57.5 -191.5t-66.5 -174q-34 -69 -83 -100q0 -4 -3 -8l-13 -22q13 -4 21 -17q9 -15 9 -30
q0 -28 -19 -41q-15 -10 -34 -10q-23 0 -36 16q-11 13 2 24t24 -2q8 -9 21 -2q7 4 7.5 13t-6.5 17q-5 5 -14 2q-9 -4 -17 1q-15 8 -6 25l9 14q-46 -8 -85 21q-14 11 -8 24q7 16 24 9q18 -9 33 -9q49 0 94 92q26 53 55.5 150t51.5 177t59.5 158.5t81.5 112.5q-67 8 -122 8
q-148 0 -196 -81q-9 -15 -24 -6z" />
    <glyph glyph-name="tcedilla" unicode="&#x163;" horiz-adv-x="226" 
d="M-32 405l-3 -2q14 6 23 -9q5 -5 60 0q53 134 110 242q11 20 51 0q13 -6 17.5 -17t-0.5 -17q-48 -91 -91 -195q45 5 63 -9q13 -11 2 -25q-11 -12 -26 -2q-1 1 -7.5 1t-19.5 -1t-27 -2q-38 -95 -64 -180q-20 -66 -27 -116t-1 -59q5 -2 16 3.5t29.5 22.5t40.5 44
q28 35 123 173q11 14 25 5q15 -9 4 -24q-96 -140 -124 -175q-57 -71 -91 -82q0 -3 -3 -8l-14 -22q13 -4 21 -17q10 -22 4.5 -42t-19.5 -29q-15 -10 -35 -10q-23 0 -35 16q-11 13 3 24t25 -2q8 -9 21 -2q7 4 8 13t-5 17q-5 5 -14 2q-9 -4 -17 1q-14 9 -3 25l23 33
q-29 6 -44 28t-14 55q2 46 35 154q16 53 48 141q-64 -7 -77 23q-7 17 9 24z" />
    <glyph glyph-name="Tcaron" unicode="&#x164;" horiz-adv-x="395" 
d="M58 618l-2 -2q-15 9 -6 24q68 116 303 116q59 0 165.5 -8.5t143.5 -8.5q77 0 99 22q13 13 25 0q11 -11 0 -25q-45 -59 -169 -59q-37 0 -119 8q-45 -14 -83 -84t-61 -152.5t-57.5 -191.5t-66.5 -174q-29 -59 -70.5 -91t-83.5 -32q-35 0 -67 23q-14 11 -8 24q7 16 24 9
q18 -9 33 -9q49 0 94 92q26 53 55.5 150t51.5 177t59.5 158.5t81.5 112.5q-67 8 -122 8q-148 0 -196 -81q-9 -15 -24 -6zM560 927h-2q12 -13 0 -25l-64 -66q-6 -6 -19.5 -9t-17.5 2l-52 71q-11 14 4 25q7 5 18.5 7.5t17.5 -2.5l40 -54l50 51q13 13 25 0z" />
    <glyph glyph-name="tcaron" unicode="&#x165;" horiz-adv-x="226" 
d="M-36 405l-1 -1q14 6 23 -9q5 -5 60 0q53 134 110 242q11 20 51 0q13 -6 17.5 -17t-0.5 -17q-48 -91 -91 -195q45 5 63 -9q13 -11 2 -25q-11 -12 -26 -2q-1 1 -7.5 1t-19.5 -1t-27 -2q-38 -95 -64 -180q-20 -66 -27 -116t-1 -59q5 -2 16 3.5t29.5 22.5t40.5 44
q28 35 123 173q11 14 25 5q15 -9 4 -24q-96 -140 -124 -175q-67 -83 -107 -85t-63 21t-21 63q2 46 35 154q16 53 48 141q-64 -7 -77 23q-7 17 9 24zM235 607l1 2q1 16 13 28t29 12q16 0 27.5 -11.5t10.5 -28.5q-1 -23 -17.5 -48t-36.5 -39q-15 -11 -25 -2q-13 11 0 24
q11 12 22 25q-26 10 -24 38z" />
    <glyph glyph-name="Uring" unicode="&#x16e;" horiz-adv-x="715" 
d="M582 -77l-1 2q-12 -17 -56 16q-31 24 -31 85q0 60 35 187q-53 -109 -107 -168.5t-120 -59.5q-49 0 -81 30t-32 84q0 61 43 174t86 229t43 185v5.5v5v4t-1.5 3.5l-3 2t-5 1.5t-7.5 0.5q-30 2 -79.5 -24t-96.5 -66.5t-78.5 -99.5t-25.5 -115q1 -7 -5 -12t-14 -5
q-10 0 -27 20t-18 43q-2 56 37.5 113t96 95.5t115.5 62.5t96 22q28 -2 57.5 -22t29.5 -50q0 -62 -27 -154t-59.5 -169.5t-59.5 -157.5t-27 -120q0 -51 42 -51q166 0 400 712q4 14 18 10q28 -5 39.5 -20t8.5 -26q-8 -26 -74 -213.5t-99 -304.5t-33 -181q0 -35 11 -49
q14 -18 10 -24zM513 866q0 26 18.5 44.5t44.5 18.5t44.5 -18.5t18.5 -44.5t-18.5 -44.5t-44.5 -18.5t-44.5 18.5t-18.5 44.5zM548 866q0 -11 8 -19t19 -8t19 8t8 19t-8 19t-19 8t-19 -8t-8 -19z" />
    <glyph glyph-name="uring" unicode="&#x16f;" horiz-adv-x="458" 
d="M287 316l5 -1q14 -4 21.5 -12.5t4.5 -15.5q-26 -54 -49.5 -121t-26.5 -100q-5 -50 11 -50q11 -1 34.5 16.5t49.5 48.5q52 62 136 177q11 15 25 4q15 -11 4 -25q-110 -149 -137 -180q-69 -83 -129 -80q-40 2 -58 30t-15 62v3q-73 -102 -141 -94q-40 5 -58.5 32t-15.5 60
q3 38 27 107t52 126q11 25 48 13q14 -4 21.5 -12.5t4.5 -15.5q-26 -54 -49.5 -121t-26.5 -100q-5 -51 11 -51q68 -4 166 203q17 41 37 84q11 25 48 13zM129 441q0 26 18.5 44.5t44.5 18.5t44.5 -18.5t18.5 -44.5t-18.5 -44.5t-44.5 -18.5t-44.5 18.5t-18.5 44.5zM164 441
q0 -11 8 -19t19 -8t19 8t8 19t-8 19t-19 8t-19 -8t-8 -19z" />
    <glyph glyph-name="Udoubleacute" unicode="&#x170;" horiz-adv-x="715" 
d="M582 -77l-1 2q-12 -17 -56 16q-31 24 -31 85q0 60 35 187q-53 -109 -107 -168.5t-120 -59.5q-49 0 -81 30t-32 84q0 61 43 174t86 229t43 185v5.5v5v4t-1.5 3.5l-3 2t-5 1.5t-7.5 0.5q-30 2 -79.5 -24t-96.5 -66.5t-78.5 -99.5t-25.5 -115q1 -7 -5 -12t-14 -5
q-10 0 -27 20t-18 43q-2 56 37.5 113t96 95.5t115.5 62.5t96 22q28 -2 57.5 -22t29.5 -50q0 -62 -27 -154t-59.5 -169.5t-59.5 -157.5t-27 -120q0 -51 42 -51q166 0 400 712q4 14 18 10q28 -5 39.5 -20t8.5 -26q-8 -26 -74 -213.5t-99 -304.5t-33 -181q0 -35 11 -49
q14 -18 10 -24zM652 917q7 -1 13 -7.5t6 -12.5q0 -14 -16.5 -43t-37.5 -46q-13 -11 -24 2q-9 11 2 24q27 31 27 71q0 19 30 12zM573 917q7 -1 13 -7.5t6 -12.5q0 -14 -16.5 -43t-37.5 -46q-13 -11 -24 2q-9 11 2 24q27 31 27 71q0 19 30 12z" />
    <glyph glyph-name="udoubleacute" unicode="&#x171;" horiz-adv-x="458" 
d="M287 316l5 -1q14 -4 21.5 -12.5t4.5 -15.5q-26 -54 -49.5 -121t-26.5 -100q-5 -50 11 -50q11 -1 34.5 16.5t49.5 48.5q52 62 136 177q11 15 25 4q15 -11 4 -25q-110 -149 -137 -180q-69 -83 -129 -80q-40 2 -58 30t-15 62v3q-73 -102 -141 -94q-40 5 -58.5 32t-15.5 60
q3 38 27 107t52 126q11 25 48 13q14 -4 21.5 -12.5t4.5 -15.5q-26 -54 -49.5 -121t-26.5 -100q-5 -51 11 -51q68 -4 166 203q17 41 37 84q11 25 48 13zM198 492q7 -1 13 -7.5t6 -12.5q0 -14 -16.5 -43t-37.5 -46q-13 -11 -24 2q-9 11 2 24q27 31 27 71q0 19 30 12zM277 492
q7 -1 13 -7.5t6 -12.5q0 -14 -16.5 -43t-37.5 -46q-13 -11 -24 2q-9 11 2 24q27 31 27 71q0 19 30 12z" />
    <glyph glyph-name="Ydieresis" unicode="&#x178;" horiz-adv-x="693" 
d="M60 398l-2 1q2 -19 -13 -18q-20 3 -36 30q-10 17 -10 34q1 83 78.5 160t168.5 114q46 18 96 18q41 0 65 -17t19 -56q-14 -102 -63.5 -245.5t-48.5 -169.5q1 -39 31 -39q28 0 60 27q70 59 147 216t112 282q5 9 22 8.5t35 -10t16 -19.5q-6 -32 -11.5 -61t-19 -88.5
t-27.5 -110.5t-36 -117.5t-45 -120t-55 -108t-65.5 -91t-76 -59.5t-87.5 -23q-50 0 -81 31.5t-25 66.5q2 10 11.5 13t17.5 -3t6 -16q-1 -6 1.5 -14.5t12.5 -17.5t27 -9q56 -1 108 44t93 123t72 162t56 180q-98 -217 -181 -285q-49 -39 -104 -39q-35 0 -57.5 20.5t-23.5 62.5
q-1 48 53 200t59 226q1 27 -27 27q-24 0 -73 -21q-82 -34 -144.5 -116t-54.5 -172zM471 834q0 12 8.5 20.5t20.5 8.5t20.5 -8.5t8.5 -20.5t-8.5 -20.5t-20.5 -8.5t-20.5 8.5t-8.5 20.5zM568 834q0 12 8.5 20.5t20.5 8.5t20.5 -8.5t8.5 -20.5t-8.5 -20.5t-20.5 -8.5
t-20.5 8.5t-8.5 20.5z" />
    <glyph glyph-name="Zacute" unicode="&#x179;" horiz-adv-x="722" 
d="M220 558l-1 2q-12 1 -14 19q-7 48 7.5 81.5t48 51t73.5 24.5t94 7t161 -9t148 -9q45 0 72 7q21 6 39.5 -21.5t-2.5 -45.5q-109 -90 -304 -283q40 2 57 7q16 5 22 -11q5 -16 -11 -22q-31 -10 -105 -10q-107 -105 -195 -179.5t-191 -137.5q6 0 18 0.5t18 0.5q45 0 132 -4.5
t124 -4.5q144 0 171 52q9 15 24 6q14 -9 7 -25q-45 -99 -172 -99q-43 0 -153 16.5t-172 16.5q-40 0 -79 -6q-20 -3 -33 22t6 36q164 91 390 306q-73 4 -94 3q-7 -1 -12.5 4t-6.5 13q-1 7 4 12.5t13 6.5q9 1 32 1q17 0 55.5 -1.5t44.5 -1.5q250 243 322 306q-43 -3 -109 -4
t-114.5 -1t-104.5 -5t-93 -15.5t-64 -33.5t-33 -57q-4 -17 -20 -15zM641 900q26 -15 14 -27l-78 -64q-13 -12 -25 0q-12 13 0 25l64 66q10 10 25 0z" />
    <glyph glyph-name="zacute" unicode="&#x17a;" horiz-adv-x="368" 
d="M38 -113l1 2q-35 -24 -92 -58q-79 -47 -108 -100.5t-14 -78.5q15 -24 63 5q61 37 101 100.5t49 129.5zM41 -67l1 2q-2 42 -17.5 65t-42.5 18q-16 -3 -19.5 13.5t12.5 20.5q44 10 102.5 55.5t97 94.5t33.5 71q-2 6 -11 10q-22 9 -72.5 -9t-88.5 -50q-8 -7 -21 4.5
t-18 26.5t2 24q56 46 143 46q41 0 68 -11q15 -6 27 -23q16 -23 16 -49q0 -60 -71 -121.5t-144 -81.5q28 -1 47.5 -22.5t23.5 -45.5q193 142 274 289q6 9 15 9t15 -8.5t1 -17.5q-89 -161 -302 -314q0 -96 -41 -177.5t-120 -125.5q-41 -22 -82 -22q-53 0 -73 31q-11 19 -11 41
q0 44 38 94t107 91q58 36 111 72zM234 483q26 -15 14 -27l-78 -64q-13 -12 -25 0q-13 12 0 25l64 66q10 10 25 0z" />
    <glyph glyph-name="Zdotaccent" unicode="&#x17b;" horiz-adv-x="722" 
d="M220 558l-1 2q-12 1 -14 19q-7 48 7.5 81.5t48 51t73.5 24.5t94 7t161 -9t148 -9q45 0 72 7q21 6 39.5 -21.5t-2.5 -45.5q-109 -90 -304 -283q40 2 57 7q16 5 22 -11q5 -16 -11 -22q-31 -10 -105 -10q-107 -105 -195 -179.5t-191 -137.5q6 0 18 0.5t18 0.5q45 0 132 -4.5
t124 -4.5q144 0 171 52q9 15 24 6q14 -9 7 -25q-45 -99 -172 -99q-43 0 -153 16.5t-172 16.5q-40 0 -79 -6q-20 -3 -33 22t6 36q164 91 390 306q-73 4 -94 3q-7 -1 -12.5 4t-6.5 13q-1 7 4 12.5t13 6.5q9 1 32 1q17 0 55.5 -1.5t44.5 -1.5q250 243 322 306q-43 -3 -109 -4
t-114.5 -1t-104.5 -5t-93 -15.5t-64 -33.5t-33 -57q-4 -17 -20 -15zM540 834q0 12 8.5 20.5t20.5 8.5t20.5 -8.5t8.5 -20.5t-8.5 -20.5t-20.5 -8.5t-20.5 8.5t-8.5 20.5z" />
    <glyph glyph-name="zdotaccent" unicode="&#x17c;" horiz-adv-x="368" 
d="M38 -113l1 2q-35 -24 -92 -58q-79 -47 -108 -100.5t-14 -78.5q15 -24 63 5q61 37 101 100.5t49 129.5zM41 -67l1 2q-2 42 -17.5 65t-42.5 18q-16 -3 -19.5 13.5t12.5 20.5q44 10 102.5 55.5t97 94.5t33.5 71q-2 6 -11 10q-22 9 -72.5 -9t-88.5 -50q-8 -7 -21 4.5
t-18 26.5t2 24q56 46 143 46q41 0 68 -11q15 -6 27 -23q16 -23 16 -49q0 -60 -71 -121.5t-144 -81.5q28 -1 47.5 -22.5t23.5 -45.5q193 142 274 289q6 9 15 9t15 -8.5t1 -17.5q-89 -161 -302 -314q0 -96 -41 -177.5t-120 -125.5q-41 -22 -82 -22q-53 0 -73 31q-11 19 -11 41
q0 44 38 94t107 91q58 36 111 72zM116 416q0 12 8.5 20.5t20.5 8.5t20.5 -8.5t8.5 -20.5t-8.5 -20.5t-20.5 -8.5t-20.5 8.5t-8.5 20.5z" />
    <glyph glyph-name="Zcaron" unicode="&#x17d;" horiz-adv-x="722" 
d="M220 558l-1 2q-12 1 -14 19q-7 48 7.5 81.5t48 51t73.5 24.5t94 7t161 -9t148 -9q45 0 72 7q21 6 39.5 -21.5t-2.5 -45.5q-109 -90 -304 -283q40 2 57 7q16 5 22 -11q5 -16 -11 -22q-31 -10 -105 -10q-107 -105 -195 -179.5t-191 -137.5q6 0 18 0.5t18 0.5q45 0 132 -4.5
t124 -4.5q144 0 171 52q9 15 24 6q14 -9 7 -25q-45 -99 -172 -99q-43 0 -153 16.5t-172 16.5q-40 0 -79 -6q-20 -3 -33 22t6 36q164 91 390 306q-73 4 -94 3q-7 -1 -12.5 4t-6.5 13q-1 7 4 12.5t13 6.5q9 1 32 1q17 0 55.5 -1.5t44.5 -1.5q250 243 322 306q-43 -3 -109 -4
t-114.5 -1t-104.5 -5t-93 -15.5t-64 -33.5t-33 -57q-4 -17 -20 -15zM648 905h-2q12 -13 0 -25l-64 -66q-6 -6 -19.5 -9t-17.5 2l-52 71q-11 14 4 25q7 5 18.5 7.5t17.5 -2.5l40 -54l50 51q13 13 25 0z" />
    <glyph glyph-name="zcaron" unicode="&#x17e;" horiz-adv-x="368" 
d="M38 -113l1 2q-35 -24 -92 -58q-79 -47 -108 -100.5t-14 -78.5q15 -24 63 5q61 37 101 100.5t49 129.5zM41 -67l1 2q-2 42 -17.5 65t-42.5 18q-16 -3 -19.5 13.5t12.5 20.5q44 10 102.5 55.5t97 94.5t33.5 71q-2 6 -11 10q-22 9 -72.5 -9t-88.5 -50q-8 -7 -21 4.5
t-18 26.5t2 24q56 46 143 46q41 0 68 -11q15 -6 27 -23q16 -23 16 -49q0 -60 -71 -121.5t-144 -81.5q28 -1 47.5 -22.5t23.5 -45.5q193 142 274 289q6 9 15 9t15 -8.5t1 -17.5q-89 -161 -302 -314q0 -96 -41 -177.5t-120 -125.5q-41 -22 -82 -22q-53 0 -73 31q-11 19 -11 41
q0 44 38 94t107 91q58 36 111 72zM231 488h-2q13 -12 0 -25l-64 -66q-6 -6 -19.5 -9t-17.5 2l-52 71q-11 14 4 25q7 5 18.5 7.5t17.5 -2.5l40 -54l50 51q12 12 25 0z" />
    <glyph glyph-name="circumflexmod" unicode="&#x2c6;" horiz-adv-x="241" 
d="M45 635h2q-13 13 0 25l64 66q6 6 19.5 9t17.5 -2l52 -71q11 -14 -4 -25q-7 -5 -18.5 -7.5t-17.5 2.5l-40 54l-50 -51q-12 -13 -25 0z" />
    <glyph glyph-name="caronmod" unicode="&#x2c7;" horiz-adv-x="241" 
d="M196 731h-2q12 -13 0 -25l-64 -66q-6 -6 -19.5 -9t-17.5 2l-52 71q-11 14 4 25q7 5 18.5 7.5t17.5 -2.5l40 -54l50 51q13 13 25 0z" />
    <glyph glyph-name="brevemod" unicode="&#x2d8;" horiz-adv-x="231" 
d="M174 702l-3 -1q7 0 12.5 -5.5t5.5 -12.5q0 -28 -21 -45.5t-48 -18.5q-38 -1 -60 17t-22 48q0 19 30 18q18 -2 18 -18q0 -13 10 -21.5t25 -8.5t25 8.5t10 21.5q0 8 5 13t13 5z" />
    <glyph glyph-name="dotaccentmod" unicode="&#x2d9;" horiz-adv-x="139" 
d="M40 671q0 12 8.5 20.5t20.5 8.5t20.5 -8.5t8.5 -20.5t-8.5 -20.5t-20.5 -8.5t-20.5 8.5t-8.5 20.5z" />
    <glyph glyph-name="ringmod" unicode="&#x2da;" horiz-adv-x="204" 
d="M40 676q0 26 18.5 44.5t44.5 18.5t44.5 -18.5t18.5 -44.5t-18.5 -44.5t-44.5 -18.5t-44.5 18.5t-18.5 44.5zM75 676q0 -11 8 -19t19 -8t19 8t8 19t-8 19t-19 8t-19 -8t-8 -19z" />
    <glyph glyph-name="ogonekmod" unicode="&#x2db;" horiz-adv-x="166" 
d="M105 18v-2q7 -1 11 -4t3 -9l-1 -30q0 -7 -6.5 -12t-14.5 -3l-4 1q-5 0 -11.5 -7t-5.5 -20q0 -7 6 -11.5t17 0.5q15 9 24 -2q11 -13 -3 -24q-14 -10 -29 -10q-20 0 -35 15t-16 34q-1 27 13.5 42.5t31.5 18.5l1 16q1 9 19 7z" />
    <glyph glyph-name="tildemod" unicode="&#x2dc;" horiz-adv-x="250" 
d="M55 645l-2 -1q-7 2 -11 7.5t-3 12.5q4 25 29 41q14 10 31 10q33 0 48 -32q7 -13 15 -13q12 0 13 17q2 18 20 16t16 -20q-1 -22 -21.5 -39.5t-40.5 -15.5q-29 3 -43 33q-8 18 -21 13q-7 -4 -10 -15q-2 -7 -7.5 -11t-12.5 -3z" />
    <glyph glyph-name="doubleacutemod" unicode="&#x2dd;" horiz-adv-x="241" 
d="M182 746q7 -1 13 -7.5t6 -12.5q0 -14 -16.5 -43t-37.5 -46q-13 -11 -24 2q-9 11 2 24q27 31 27 71q0 19 30 12zM103 746q7 -1 13 -7.5t6 -12.5q0 -14 -16.5 -43t-37.5 -46q-13 -11 -24 2q-9 11 2 24q27 31 27 71q0 19 30 12z" />
    <glyph glyph-name="quoteleft" unicode="&#x2018;" horiz-adv-x="228" 
d="M133 580v1q-20 -5 -30 -1.5t-13 8t-2 10.5q3 53 61 124q17 19 33 8q14 -9 5 -24q-11 -17 -22.5 -51t-12.5 -58q-1 -13 -19 -17z" />
    <glyph glyph-name="quoteright" unicode="&#x2019;" horiz-adv-x="228" 
d="M144 731v-1q20 5 30 1.5t13 -8t2 -10.5q-3 -53 -61 -124q-17 -19 -33 -8q-14 9 -5 24q11 17 22.5 51t12.5 58q1 13 19 17z" />
    <glyph glyph-name="quotesinglbase" unicode="&#x201a;" horiz-adv-x="179" 
d="M69 87v-1q20 5 30 1.5t13 -8t2 -10.5q-3 -53 -61 -124q-17 -19 -33 -8q-14 9 -5 24q11 17 22.5 51t12.5 58q1 13 19 17z" />
    <glyph glyph-name="quotereversed" unicode="&#x201b;" horiz-adv-x="228" 
d="M133 731v1q18 -4 19 -17q1 -24 12.5 -58t22.5 -51q9 -15 -5 -24q-16 -11 -33 8q-58 71 -61 124q-1 6 2 10.5t13 8t30 -1.5z" />
    <glyph glyph-name="quotedblleft" unicode="&#x201c;" horiz-adv-x="329" 
d="M234 580v1q-20 -5 -30 -1.5t-13 8t-2 10.5q3 53 61 124q17 19 33 8q14 -9 5 -24q-11 -17 -22.5 -51t-12.5 -58q-1 -13 -19 -17zM133 581v1q-20 -5 -30 -1.5t-13 8t-2 10.5q3 53 61 124q17 19 33 8q14 -9 5 -24q-11 -17 -22.5 -51t-12.5 -58q-1 -13 -19 -17z" />
    <glyph glyph-name="quotedblright" unicode="&#x201d;" horiz-adv-x="329" 
d="M144 731v-1q20 5 30 1.5t13 -8t2 -10.5q-3 -53 -61 -124q-17 -19 -33 -8q-14 9 -5 24q11 17 22.5 51t12.5 58q1 13 19 17zM245 730v-1q20 5 30 1.5t13 -8t2 -10.5q-3 -53 -61 -124q-17 -19 -33 -8q-14 9 -5 24q11 17 22.5 51t12.5 58q1 13 19 17z" />
    <glyph glyph-name="quotedblbase" unicode="&#x201e;" horiz-adv-x="280" 
d="M69 87v-1q20 5 30 1.5t13 -8t2 -10.5q-3 -53 -61 -124q-17 -19 -33 -8q-14 9 -5 24q11 17 22.5 51t12.5 58q1 13 19 17zM170 86v-1q20 5 30 1.5t13 -8t2 -10.5q-3 -53 -61 -124q-17 -19 -33 -8q-14 9 -5 24q11 17 22.5 51t12.5 58q1 13 19 17z" />
    <glyph glyph-name="quotedblreversed" unicode="&#x201f;" horiz-adv-x="329" 
d="M234 731v1q18 -4 19 -17q1 -24 12.5 -58t22.5 -51q9 -15 -5 -24q-16 -11 -33 8q-58 71 -61 124q-1 6 2 10.5t13 8t30 -1.5zM133 732v1q18 -4 19 -17q1 -24 12.5 -58t22.5 -51q9 -15 -5 -24q-16 -11 -33 8q-58 71 -61 124q-1 6 2 10.5t13 8t30 -1.5z" />
    <glyph glyph-name="bullet" unicode="&#x2022;" horiz-adv-x="192" 
d="M40 284q0 23 16.5 39.5t39.5 16.5t39.5 -16.5t16.5 -39.5t-16.5 -39.5t-39.5 -16.5t-39.5 16.5t-16.5 39.5z" />
    <glyph glyph-name="ellipsis" unicode="&#x2026;" horiz-adv-x="423" 
d="M13 8q0 16 11.5 28t28.5 12t28.5 -12t11.5 -28t-11.5 -28t-28.5 -12t-28.5 12t-11.5 28zM145 8q0 16 11.5 28t28.5 12t28.5 -12t11.5 -28t-11.5 -28t-28.5 -12t-28.5 12t-11.5 28zM278 8q0 16 12 28t28 12t28 -12t12 -28t-12 -28t-28 -12t-28 12t-12 28z" />
    <glyph glyph-name="perthousand" unicode="&#x2030;" horiz-adv-x="845" 
d="M654 726v-1q20 -15 7 -33l-554 -714q-14 -17 -45 -2q-34 17 -17 40l554 714q6 8 18.5 9.5t36.5 -13.5zM179 625q6 43 41 72.5t92 29.5q44 0 74.5 -33.5t24.5 -74.5t-41 -69t-86 -32q-53 -4 -82 30t-23 77zM214 620q-4 -27 11.5 -45.5t42.5 -18.5q28 0 51.5 20.5
t28.5 48.5q4 27 -11.5 45.5t-42.5 18.5q-28 0 -51.5 -20.5t-28.5 -48.5zM289 87q6 43 41 72.5t92 29.5q44 0 74.5 -33.5t24.5 -74.5t-41 -69t-86 -32q-53 -4 -82 30t-23 77zM324 82q-4 -27 11.5 -45.5t42.5 -18.5q28 0 51.5 20.5t28.5 48.5q4 27 -11.5 45.5t-42.5 18.5
q-28 0 -51.5 -20.5t-28.5 -48.5zM562 87q6 43 41 72.5t92 29.5q44 0 74.5 -33.5t24.5 -74.5t-41 -69t-86 -32q-53 -4 -82 30t-23 77zM597 82q-4 -27 11.5 -45.5t42.5 -18.5q28 0 51.5 20.5t28.5 48.5q4 27 -11.5 45.5t-42.5 18.5q-28 0 -51.5 -20.5t-28.5 -48.5z" />
    <glyph glyph-name="guilsinglleft" unicode="&#x2039;" horiz-adv-x="399" 
d="M352 329l-202 -125l163 -92q14 -9 5 -24q-9 -14 -24 -5l-186 106q-10 6 -23 26t-3 27l225 139q17 11 41 -13q22 -22 8 -36z" />
    <glyph glyph-name="guilsinglright" unicode="&#x203a;" horiz-adv-x="361" 
d="M48 136l202 125l-163 92q-14 9 -5 24q9 14 24 5l186 -106q10 -6 23 -26t3 -27l-225 -139q-17 -11 -41 13q-22 22 -8 36q2 2 4 3z" />
    <glyph glyph-name="euro" unicode="&#x20ac;" horiz-adv-x="583" 
d="M533 662l-2 -3q-16 -7 -23 9t-25 22q-22 7 -54 -3t-70.5 -37.5t-80 -86t-73.5 -138.5h78q7 0 12.5 -5.5t5.5 -12.5t-5.5 -12.5t-12.5 -5.5h-91q-5 -13 -13 -41l-11 -38h63q7 0 12.5 -5t5.5 -13t-5.5 -13t-12.5 -5h-71q-12 -60 -12 -105q0 -95 45 -135q24 -21 57 -21
q41 0 69 31q11 13 24 2q14 -12 1 -25q-42 -39 -102 -39q-61 0 -104 38q-56 51 -56 160q0 44 9 96h-34q-7 0 -12.5 5t-5.5 13t5.5 13t12.5 5h41q6 30 15 59l6 21h-51q-8 0 -13 5t-5 13t5 13t13 5h63q57 153 141.5 229.5t170.5 76.5q28 0 50 -7q35 -10 49 -42q7 -16 -9 -23z
" />
    <glyph glyph-name="a.1" unicode="&#xe009;" horiz-adv-x="360" 
d="M211 234l1 -2q19 -2 35 -9.5t13 -14.5q-47 -115 -54 -154t4 -39q11 -3 14.5 -13.5t-4 -18.5t-22.5 -5q-38 8 -54.5 32t-12.5 50l3 12q-73 -103 -120 -88q-81 26 -81 98q0 20 8 50q20 73 75.5 137t125.5 64q25 0 53 -11q23 -8 38 -26q11 -13 -2 -24t-24 2t-23 16
q-36 12 -90 -45.5t-78 -131.5q-10 -31 -10 -55q0 -33 19 -39q27 -9 160 196l3 9q5 12 23 10z" />
    <glyph glyph-name="b.1" unicode="&#xe00a;" horiz-adv-x="439" 
d="M120 368q95 62 168 161.5t73 148.5q0 10 -2.5 13t-11.5 3q-51 0 -114 -93.5t-113 -232.5zM57 25l-1 -2q24 -11 44 -11q39 0 73.5 31t59.5 82q28 56 28 108q0 37 -13 42q-74 28 -191 -250zM41 -9h-2q-11 -10 -38.5 0t-28.5 31q-4 61 14 157t53 198q122 360 277 360
q30 0 54 -20.5t24 -42.5q0 -70 -89.5 -184.5t-203.5 -175.5q-37 -117 -51 -215q43 97 86.5 154.5t92.5 57.5q14 0 29 -6q74 -29 74 -102q0 -44 -24 -102q-54 -136 -166 -136q-46 0 -101 26z" />
    <glyph glyph-name="c.1" unicode="&#xe00b;" horiz-adv-x="370" 
d="M217 185l-3 -2q-15 9 -6 24q8 15 8 29q0 18 -13.5 29.5t-36.5 11.5q-47 0 -88.5 -54.5t-46.5 -116.5q-3 -41 14 -66t56 -25q72 0 126 61q11 13 25 3q15 -12 4 -25q-20 -22 -35 -36t-50.5 -30t-75.5 -16q-69 0 -109 36t-36 101q5 83 51 145t111 68q67 6 104 -20.5
t37 -64.5q0 -23 -12 -46q-9 -15 -24 -6z" />
    <glyph glyph-name="d.1" unicode="&#xe00c;" horiz-adv-x="440" 
d="M574 613q-28 -83 -101.5 -169t-162.5 -120q-15 -44 -35 -135.5t-20 -142.5q0 -41 15 -42q15 -2 13 -19q-4 -20 -26 -20q-3 0 -7 1q-39 6 -57 38t-19 69q-1 34 7 83q-59 -97 -96 -140q-23 -26 -38.5 -34.5t-37.5 -6.5q-38 3 -56.5 34.5t-18.5 73.5q0 24 7 50
q17 57 51.5 110t75.5 70q23 10 50 10q30 0 56.5 -11.5t38.5 -28.5q6 20 26 76q86 240 179 336q38 39 97 39q21 0 36 -5q34 -12 34 -56q0 -23 -11 -60zM541 696q-33 11 -97 -87t-117 -240q71 37 131 112t83 143q8 23 9 40t-1.5 23.5t-7.5 8.5zM195 246h-1q-1 11 -11.5 20
t-19.5 12q-33 10 -78.5 -40t-66.5 -119q-10 -31 -10 -56q0 -38 22 -45q18 1 67.5 70.5t97.5 157.5z" />
    <glyph glyph-name="e.1" unicode="&#xe00d;" horiz-adv-x="337" 
d="M30 143q-6 -24 -6 -44q0 -76 70 -79q62 -3 109 54q11 13 25 3q15 -12 4 -25q-24 -29 -64 -52.5t-84 -21.5q-71 3 -105 39t-34 91q0 76 53.5 146.5t121.5 71.5q52 2 80 -21q23 -20 23 -54q0 -33 -19 -53q-56 -62 -133 -62q-20 0 -41 7zM44 176h-2q9 -4 28 -4q63 0 108 49
q13 14 13 29.5t-8 21.5q-7 7 -22 7q-33 0 -65.5 -29t-51.5 -74z" />
    <glyph glyph-name="f.1" unicode="&#xe00e;" horiz-adv-x="277" 
d="M56 117l2 1q69 22 113 12q12 -3 22 -13.5t13 -19.5q3 -13 -3 -18t-13 0q-19 14 -60 14q-26 0 -53 -5q27 -67 27 -168q0 -67 -15 -116.5t-45 -61.5q-7 -5 -32.5 -3t-44.5 14q-42 28 -42 136q0 86 26 188l8 28q-9 7 -6 21q3 12 16 19q44 158 110 293t121 147q25 6 39 2.5
t19 -9t5 -11.5q0 -7 -5.5 -12.5t-12.5 -5.5q-27 -1 -91 -132.5t-109 -287.5zM30 80l1 -1q-34 -133 -34 -223q0 -71 22 -82q5 -2 9 0q15 7 25 53.5t10 104.5q0 95 -26 148h-7z" />
    <glyph glyph-name="g.1" unicode="&#xe00f;" horiz-adv-x="385" 
d="M-152 -347v3q26 -24 86 14t97 84q42 53 82 151q53 131 86 288q-74 -125 -117 -175q-23 -26 -38.5 -34.5t-37.5 -6.5q-38 3 -56.5 34.5t-18.5 73.5q0 24 7 50q17 57 51.5 110t75.5 70q24 9 49 9q31 0 58.5 -12t38.5 -30l3 6l3 22q4 10 19.5 10t33.5 -9t17 -20
q-11 -145 -72 -319q-64 -183 -122 -257q-33 -43 -87.5 -80t-105.5 -37q-45 0 -79 34q-18 18 0 29q12 7 27 -8zM191 245h-1q-1 11 -11.5 20t-19.5 12q-33 10 -78.5 -40t-66.5 -119q-10 -31 -10 -56q0 -38 22 -45q18 1 67.5 70.5t97.5 157.5z" />
    <glyph glyph-name="h.1" unicode="&#xe010;" horiz-adv-x="462" 
d="M42 -1v-5q1 -14 -26 -12q-34 4 -43 28q-2 4 -2 8q-4 61 14.5 161t53.5 202q122 360 277 360q30 0 54 -20.5t24 -42.5q0 -70 -89.5 -184.5t-203.5 -175.5q-39 -124 -54 -235q60 111 118.5 176t111.5 55q30 -6 55.5 -26.5t25.5 -49.5q0 -32 -28 -119t-29 -105q0 -7 8 -12
q13 -7 8 -19.5t-21 -10.5q-25 3 -48 20t-22 38q1 35 30.5 118t29.5 101q0 27 -16 30q-37 7 -101.5 -75.5t-126.5 -204.5zM117 368q95 62 168 161.5t73 148.5q0 10 -2.5 13t-11.5 3q-51 0 -114 -93.5t-113 -232.5z" />
    <glyph glyph-name="i.1" unicode="&#xe011;" horiz-adv-x="181" 
d="M70 316h2q14 -4 21.5 -12.5t4.5 -15.5q-26 -54 -49.5 -121t-26.5 -100q-5 -48 11 -51q14 -1 12 -17q-6 -19 -29 -21q-40 0 -58 29t-15 63q3 38 27 107t52 126q11 25 48 13zM67 424q0 18 12.5 30.5t30.5 12.5t30.5 -12.5t12.5 -30.5t-12.5 -30.5t-30.5 -12.5t-30.5 12.5
t-12.5 30.5z" />
    <glyph glyph-name="j.1" unicode="&#xe012;" horiz-adv-x="178" 
d="M27 424q0 18 12.5 30.5t30.5 12.5t30.5 -12.5t12.5 -30.5t-12.5 -30.5t-30.5 -12.5t-30.5 12.5t-12.5 30.5zM-356 -348v1q16 -14 40 -14q34 0 72.5 28.5t69.5 83.5q48 86 84 183.5t54.5 168.5t48.5 205q5 10 22 9t35 -11t16 -20q-41 -193 -84 -326t-110 -250
q-34 -58 -80 -91.5t-94 -33.5q-56 0 -101 46q-18 18 0 29q12 7 27 -8z" />
    <glyph glyph-name="k.1" unicode="&#xe013;" horiz-adv-x="448" 
d="M39 -2l-1 -2v-3q1 -14 -26 -12q-34 4 -43 28q-2 4 -2 8q-4 61 14.5 161t53.5 202q122 360 277 360q30 0 54 -20.5t24 -42.5q0 -70 -89.5 -184.5t-203.5 -175.5q-40 -128 -53 -237q38 66 87 125q40 46 76 76q23 18 56.5 30.5t62.5 12.5q33 0 47 -17q7 -9 9 -20
q6 -42 -58.5 -85t-116.5 -50q15 -15 27 -41t18 -47.5t18 -39t29 -20.5q10 -1 15 -10.5t-1 -18.5t-22 -9q-56 -2 -90 35q-25 27 -38.5 88.5t-21.5 74.5q-60 -76 -102 -166zM114 368q95 62 168 161.5t73 148.5q0 10 -2.5 13t-11.5 3q-51 0 -114 -93.5t-113 -232.5zM175 201
q41 6 87.5 36t44.5 44q0 2 -1 4q-4 2 -11 3.5t-25 -7.5t-40 -27q-28 -23 -55 -53z" />
    <glyph glyph-name="l.1" unicode="&#xe014;" horiz-adv-x="236" 
d="M106 324h1q-14 -42 -35 -135t-21 -144q0 -41 15 -42q15 -2 13 -19q-4 -20 -26 -20q-3 0 -7 1q-39 6 -57 38t-19 69q-2 97 65 287q86 240 179 336q38 39 97 39q21 0 36 -5q34 -12 34 -56q0 -23 -11 -60q-28 -83 -101.5 -169t-162.5 -120zM337 696q-33 11 -97 -87
t-117 -240q71 37 131 112t83 143q8 23 9 40t-1.5 23.5t-7.5 8.5z" />
    <glyph glyph-name="m.1" unicode="&#xe015;" horiz-adv-x="584" 
d="M48 317l1 -3q19 -3 30.5 -10t14.5 -13.5t1 -11.5q-11 -27 -20 -56q62 98 112 91q37 -5 57.5 -25t27.5 -62q2 -9 0 -21l12 19q28 45 51.5 66t50.5 20q37 -2 59.5 -26.5t22.5 -64.5q0 -14 -3 -29q-6 -32 -19.5 -75.5t-20.5 -70t-4 -32.5q2 -6 7 -6q16 0 18 -14
q2 -16 -20 -20q-2 -1 -4 -1q-18 -2 -39.5 6t-28.5 20q-6 10 -6 28q0 20 7.5 50t19.5 68t16 55q6 24 6 42q0 19 -5.5 28.5t-12.5 7.5q-25 -6 -65 -71q-27 -45 -84 -165l-17 -47q-3 -7 -20 -5.5t-34 9.5q-10 5 -16 14.5t-3 16.5q60 151 60 199q0 50 -17 50q-28 -1 -78 -77.5
t-96 -193.5l-6 -18q-7 -22 -46 -12q-13 3 -22.5 11t-7.5 15q57 211 95 304q5 12 26 10z" />
    <glyph glyph-name="n.1" unicode="&#xe016;" horiz-adv-x="413" 
d="M45 317v-1q19 -3 30.5 -10t14.5 -13.5t1 -11.5q-13 -32 -43 -125q108 172 187 157q30 -6 55.5 -26.5t25.5 -49.5q0 -32 -28 -119t-29 -105q0 -7 8 -12q13 -7 8 -19.5t-21 -10.5q-25 3 -48 20t-22 38q1 35 30.5 118t29.5 101q0 27 -16 30q-36 7 -99.5 -74t-125.5 -203
l-3 -12q-7 -22 -46 -12q-13 3 -21 11t-6 15q57 211 95 304q5 12 23 10z" />
    <glyph glyph-name="o.1" unicode="&#xe017;" horiz-adv-x="352" 
d="M227 183h2q-2 -38 -12 -70q-21 -65 -69.5 -109t-105.5 -29q-94 24 -94 122q0 36 13 74q16 47 42 81q6 38 38 60q26 18 59 18q49 0 90 -38q40 -36 37 -109zM75 213l3 1q-28 -35 -41 -72q-13 -35 -13 -65q0 -49 31 -60q38 -14 72.5 13.5t54.5 81.5q12 37 14 66q3 63 -26 89
q-44 39 -89 24l-9 -3q14 -7 25 -27q8 -16 -1 -25z" />
    <glyph glyph-name="p.1" unicode="&#xe018;" horiz-adv-x="361" 
d="M58 324l-2 -3q13 -6 18.5 -16t3.5 -17l-14 -41q49 64 98 64q14 0 29 -6q74 -29 74 -102q0 -44 -24 -102q-54 -135 -166 -135q-46 0 -95 23l-12 -39q-60 -200 -60 -299q0 -21 3 -38q2 -8 -8 -9q-12 0 -28 9q-31 16 -34 31t-3 34q0 91 60 286q29 95 71 216.5t46 137.5
q3 8 14 10.5t29 -4.5zM-6 36l-6 -15q21 -10 43 -10q39 0 73.5 30.5t59.5 80.5q28 56 28 108q0 37 -13 42q-38 15 -85.5 -49t-99.5 -187z" />
    <glyph glyph-name="q.1" unicode="&#xe019;" horiz-adv-x="358" 
d="M122 -375q6 -2 10 -8t0 -12.5t-17 -9.5q-43 -9 -73 29q-16 20 -16 64q0 83 68 285q17 52 38 108q-27 -40 -48 -64q-23 -26 -38.5 -34.5t-37.5 -6.5q-38 3 -56.5 34.5t-18.5 73.5q0 24 7 50q17 57 51.5 110t75.5 70q24 9 49 9q31 0 58.5 -12t38.5 -30l16 35q4 8 19 9
t37 -12q15 -11 9 -24q-64 -136 -131 -330q-28 -82 -47 -166t-19 -128q0 -22 6 -31q2 -4 19 -9zM192 245h-1q-1 11 -11.5 20t-19.5 12q-33 10 -78.5 -40t-66.5 -119q-10 -31 -10 -56q0 -38 22 -45q18 1 67.5 70.5t97.5 157.5z" />
    <glyph glyph-name="r.1" unicode="&#xe01a;" horiz-adv-x="262" 
d="M17 270q16 20 24 50.5t0 36.5q-8 -1 -16.5 -23.5t-10.5 -41.5t3 -22zM58 268l1 -1q54 3 84 -3q18 -4 26 -13.5t3 -19.5q-28 -62 -49 -132t-21 -95q0 -7 8 -11q11 -5 10 -18.5t-20 -12.5q-33 2 -56 29.5t-13 79.5q10 56 57 162q-7 0 -30 -1t-36 -1q-28 0 -49.5 15
t-20.5 50q2 53 29 81t59 21q42 -9 42 -66q0 -24 -24 -64z" />
    <glyph glyph-name="s.1" unicode="&#xe01b;" horiz-adv-x="238" 
d="M26 162l-1 -1q-19 88 -20 105q-2 52 37 68q11 5 25 -0.5t18 -15.5q7 -19 -4 -43q2 -12 9 -39.5t10 -40.5q9 -35 13 -68q2 -26 2 -37q0 -63 -30 -94.5t-97 -31.5q-35 0 -50 20q-12 16 -0.5 26.5t25.5 -2.5q7 -7 17 -7q28 0 42 25.5t14 63.5q0 25 -10 72z" />
    <glyph glyph-name="t.1" unicode="&#xe01c;" horiz-adv-x="190" 
d="M-36 405h-1q14 6 23 -9q5 -5 60 0q53 134 110 242q11 20 51 0q13 -6 17.5 -17t-0.5 -17q-48 -91 -91 -195q45 5 63 -9q13 -11 2 -25q-11 -12 -26 -2q-1 1 -7.5 1t-19.5 -1t-27 -2q-38 -95 -64 -180q-20 -66 -27 -116t-1 -59q1 -2 9 -4q11 -2 14 -10.5t-3.5 -15.5
t-18.5 -7q-39 0 -59.5 22t-18.5 62q2 46 35 154q16 53 48 141q-64 -7 -77 23q-7 17 9 24z" />
    <glyph glyph-name="u.1" unicode="&#xe01d;" horiz-adv-x="382" 
d="M287 316l5 -1q14 -4 21.5 -12.5t4.5 -15.5q-26 -54 -49.5 -121t-26.5 -100q-5 -48 11 -51q19 -3 16 -19q-3 -18 -25 -19h-7q-40 5 -58.5 32t-15.5 60v3q-73 -102 -141 -94q-40 5 -58.5 32t-15.5 60q3 38 27 107t52 126q11 25 48 13q14 -4 21.5 -12.5t4.5 -15.5
q-26 -54 -49.5 -121t-26.5 -100q-5 -51 11 -51q68 -4 166 203q17 41 37 84q11 25 48 13z" />
    <glyph glyph-name="v.1" unicode="&#xe01e;" horiz-adv-x="358" 
d="M244 301l4 -2q-4 13 1.5 22.5t17.5 6.5q22 -5 15 -50q-3 -21 -17 -54q-12 -26 -31 -57q-35 -60 -78.5 -113.5t-70.5 -68.5q-14 -7 -33 -5q-31 2 -51 38q-12 21 -12 79q0 98 24 204q1 5 7 9.5t18.5 6.5t31.5 -4q16 -5 13 -21q-23 -105 -23 -215q0 -47 7 -61q19 11 61.5 64
t74.5 107q14 22 29 55q17 42 12 59z" />
    <glyph glyph-name="w.1" unicode="&#xe01f;" horiz-adv-x="483" 
d="M349 305l-3 -2q-5 12 7.5 19.5t23.5 -5.5q12 -15 12 -45q0 -53 -33 -134q-66 -158 -145 -158q-72 0 -75 76q0 12 1 22q-23 -45 -46 -71.5t-52 -26.5q-31 0 -56 20.5t-26 55.5q-2 54 19 128t52 121q12 20 49 10q14 -3 19 -12.5t1 -16.5q-28 -42 -45.5 -114.5t-17.5 -121.5
q0 -27 6 -33q25 1 64.5 77.5t68.5 154.5q0 1 1.5 4l2 4t2.5 3.5t4 3.5t5.5 2t9 0.5t11.5 -1.5q19 -3 25.5 -12t4.5 -16q-32 -98 -32 -186q0 -28 6 -34q25 0 56 38t56 99q30 69 30 115q0 19 -6 36z" />
    <glyph glyph-name="x.1" unicode="&#xe020;" horiz-adv-x="358" 
d="M21 313v-2q19 6 31 6q32 0 35 -19q14 -61 34 -122q30 33 46.5 50.5t42.5 41t47.5 34t41.5 10.5q7 0 12.5 -5t5.5 -13t-5.5 -13t-12.5 -5q-40 0 -165 -138q18 -48 35 -75.5t30 -26.5q19 1 18 -15q-1 -20 -27 -34q-20 -10 -42 -4q-34 10 -71 91q-86 -93 -134 -93
q-7 0 -12.5 5.5t-5.5 12.5t5.5 12.5t12.5 5.5q28 0 118 95q-29 76 -53 180q-3 16 13 21z" />
    <glyph glyph-name="y.1" unicode="&#xe021;" horiz-adv-x="399" 
d="M71 316l4 2q14 -4 21.5 -12.5t4.5 -15.5q-26 -54 -49.5 -121t-26.5 -100q-5 -51 11 -51q24 -1 52.5 25t56 71t49 88.5t42.5 93.5v12q4 10 19.5 10t33.5 -9t17 -20q-11 -145 -72 -319q-64 -183 -122 -257q-33 -43 -87.5 -80t-105.5 -37q-45 0 -79 34q-18 18 0 29
q12 7 27 -8q26 -24 86 14t97 84q42 53 82 151q46 112 80 262q-102 -194 -194 -184q-40 5 -58.5 32t-15.5 60q3 38 27 107t52 126q11 25 48 13z" />
    <glyph glyph-name="z.1" unicode="&#xe022;" horiz-adv-x="320" 
d="M-202 -326h2q5 4 10.5 0t7.5 -6.5t5 -9t4 -7.5q15 -24 63 5q52 32 88.5 83.5t53.5 108.5q9 32 9 76q0 32 -5 48q-15 50 -54 43q-16 -3 -19.5 13.5t12.5 20.5q44 10 102.5 55.5t97 94.5t33.5 71q-2 6 -11 10q-22 9 -72.5 -9t-88.5 -50q-8 -7 -21 4.5t-18 26.5t2 24
q56 46 143 46q41 0 68 -11q15 -6 27 -23q16 -23 16 -49q0 -60 -71 -121.5t-144 -81.5q41 -3 62 -45q12 -24 12 -65q0 -11 -2 -33q-21 -192 -160 -269q-41 -22 -82 -22q-53 0 -73 31q-20 33 3 41z" />
    <glyph glyph-name="a.2" unicode="&#xe023;" horiz-adv-x="421" 
d="M211 234l1 -2q19 -2 35 -9.5t13 -14.5q-55 -134 -64 -186q-4 -22 0 -32q3 -8 14 -8q38 0 93.5 86t55.5 136q0 9 -3 14q-12 15 2 24q12 9 28 -5q32 -27 32 -61q0 -60 -74 -144.5t-140 -84.5q-28 0 -46 11q-37 22 -35 70q0 14 6 35q-69 -94 -115 -79q-81 26 -81 98
q0 20 8 50q20 73 75.5 137t125.5 64q25 0 53 -11q23 -8 38 -26q11 -13 -2 -24t-24 2t-23 16q-36 12 -90 -45.5t-78 -131.5q-10 -31 -10 -55q0 -33 19 -39q27 -9 160 196l3 9q5 12 23 10z" />
    <glyph glyph-name="c.2" unicode="&#xe024;" horiz-adv-x="415" 
d="M217 185v-1q-15 9 -6 24q8 15 8 29q0 18 -13.5 29.5t-36.5 11.5q-47 0 -88.5 -54.5t-46.5 -116.5q-3 -44 13.5 -78.5t54.5 -34.5q94 0 172.5 76t78.5 132q0 10 -3 14q-12 15 2 24q12 9 28 -5q32 -27 32 -61q0 -29 -25 -65.5t-66.5 -70t-102 -56.5t-123.5 -23
q-68 0 -108.5 41.5t-36.5 108.5q5 83 51 145t111 68q67 6 104 -20.5t37 -64.5q0 -23 -12 -46q-9 -15 -24 -6z" />
    <glyph glyph-name="d.2" unicode="&#xe025;" horiz-adv-x="589" 
d="M311 324h-1q-14 -41 -36 -142.5t-22 -155.5q0 -41 14 -42q51 0 115 81.5t64 132.5q0 9 -3 14q-12 15 2 24q12 9 28 -5q32 -27 32 -61q0 -61 -82 -142.5t-161 -81.5q-39 0 -63.5 35.5t-25.5 71.5q-1 38 11 103q-59 -97 -96 -140q-23 -26 -38.5 -34.5t-37.5 -6.5
q-38 3 -56.5 34.5t-18.5 73.5q0 24 7 50q17 57 51.5 110t75.5 70q23 10 49 10q30 0 57.5 -12t38.5 -29q16 54 25 77q86 240 179 336q38 39 97 39q21 0 36 -5q34 -12 34 -56q0 -23 -11 -60q-28 -83 -101.5 -169t-162.5 -120zM539 696q-33 11 -97 -87t-117 -240q71 37 131 112
t83 143q8 23 9 40t-1.5 23.5t-7.5 8.5zM194 245h-1q-1 11 -11.5 20t-19.5 12q-33 10 -78.5 -40t-66.5 -119q-10 -31 -10 -56q0 -38 22 -45q18 1 67.5 70.5t97.5 157.5z" />
    <glyph glyph-name="e.2" unicode="&#xe026;" horiz-adv-x="415" 
d="M39 138v-1q-4 -20 -5 -30q-3 -44 13.5 -79t54.5 -35q94 0 172.5 76.5t78.5 132.5q0 10 -3 14q-12 15 2 24q12 9 28 -5q32 -27 32 -61q0 -39 -41 -88.5t-117 -88.5t-159 -39q-68 0 -108.5 42t-36.5 109q5 83 51 145t111 68q67 6 104 -20.5t37 -64.5q0 -46 -52.5 -75
t-116.5 -29q-22 0 -45 5zM218 236q0 18 -13 29.5t-36 11.5q-34 0 -67 -31t-52 -76q15 -3 31 -3q50 0 93.5 21t43.5 48z" />
    <glyph glyph-name="f.2" unicode="&#xe027;" horiz-adv-x="338" 
d="M56 117l3 3q126 42 193 42q38 0 55 -14q20 -17 31 -50q7 -24 -8 -28q-7 -2 -10 2q-23 32 -104 32q-35 0 -139 -16q27 -67 27 -168q0 -67 -15 -116.5t-45 -61.5q-7 -5 -32.5 -3t-44.5 14q-42 28 -42 136q0 86 26 188l8 28q-9 7 -6 21q3 12 16 19q44 158 110 293t121 147
q25 6 39 2.5t19 -9t5 -11.5q0 -7 -5.5 -12.5t-12.5 -5.5q-27 -1 -91 -132.5t-109 -287.5zM30 80l1 -1q-34 -133 -34 -223q0 -71 22 -82q5 -2 9 0q15 7 25 53.5t10 104.5q0 95 -26 148h-7z" />
    <glyph glyph-name="g.2" unicode="&#xe028;" horiz-adv-x="385" 
d="M174 -137q-42 -98 -79 -147q-34 -44 -83 -79.5t-98 -35.5q-20 0 -34 5q-46 15 -46 51q0 29 57 81t111 88.5t108 69.5q54 128 90 297q-74 -125 -117 -175q-23 -26 -38.5 -34.5t-37.5 -6.5q-38 3 -56.5 34.5t-18.5 73.5q0 24 7 50q17 57 51.5 110t75.5 70q24 9 49 9
q31 0 58.5 -12t38.5 -30l3 6l3 22q4 10 19.5 10t33.5 -9t17 -20q-12 -154 -81 -344q71 30 119 30q73 0 100 -60q4 -9 -2 -17t-16 -7.5t-14 10.5q-8 15 -37 15q-60 0 -183 -55zM192 247h-1q-1 11 -11.5 20t-19.5 12q-33 10 -78.5 -40t-66.5 -119q-10 -31 -10 -56
q0 -38 22 -45q18 1 67.5 70.5t97.5 157.5zM-126 -353q23 -6 76.5 32t81.5 74q21 26 38 57q-66 -38 -134 -85t-68 -70q0 -7 6 -8z" />
    <glyph glyph-name="h.2" unicode="&#xe029;" horiz-adv-x="530" 
d="M42 -1l-1 2v-6q1 -14 -26 -12q-34 4 -43 28q-2 4 -2 8q-4 61 14.5 161t53.5 202q122 360 277 360q30 0 54 -20.5t24 -42.5q0 -70 -89.5 -184.5t-203.5 -175.5q-39 -124 -54 -235q60 111 118.5 176t111.5 55q30 -6 55.5 -26.5t25.5 -49.5q0 -32 -29.5 -128t-30.5 -114
q0 -9 8 -9q42 9 103 87t61 122q0 9 -3 14q-12 15 2 24q12 9 28 -5q32 -27 32 -61q0 -58 -81.5 -137.5t-148.5 -79.5q-29 0 -52.5 17.5t-22.5 42.5q1 35 32 127t31 110q0 27 -16 30q-37 7 -101.5 -75.5t-126.5 -204.5zM117 368q95 62 168 161.5t73 148.5q0 10 -2.5 13
t-11.5 3q-51 0 -114 -93.5t-113 -232.5z" />
    <glyph glyph-name="i.2" unicode="&#xe02a;" horiz-adv-x="251" 
d="M65 424q0 18 12.5 30.5t30.5 12.5t30.5 -12.5t12.5 -30.5t-12.5 -30.5t-30.5 -12.5t-30.5 12.5t-12.5 30.5zM70 316h1q14 -4 21.5 -12.5t4.5 -15.5q-25 -51 -50.5 -130t-28.5 -113q-5 -48 11 -51q39 0 100 80.5t61 128.5q0 9 -3 14q-12 15 2 24q12 9 28 -5q32 -27 32 -61
q0 -58 -84.5 -139t-151.5 -81q-40 0 -58 29t-15 63q3 40 29 121t53 135q11 25 48 13z" />
    <glyph glyph-name="j.2" unicode="&#xe02b;" horiz-adv-x="177" 
d="M186 -97q-8 15 -37 15q-59 0 -182 -54q-40 -97 -79 -147q-34 -44 -83 -79.5t-98 -35.5q-20 0 -34 5q-46 15 -46 51q0 29 57 81t111 88.5t108 69.5q36 85 68.5 208t38.5 205q4 10 19.5 10t33.5 -9t17 -20q-12 -154 -81 -344q71 30 119 30q73 0 100 -60q4 -9 -2 -17
t-16 -7.5t-14 10.5zM-333 -352q23 -6 76.5 32t81.5 74q21 26 38 57q-66 -38 -134 -85t-68 -70q0 -6 6 -8zM27 427q0 18 12.5 30.5t30.5 12.5t30.5 -12.5t12.5 -30.5t-12.5 -30.5t-30.5 -12.5t-30.5 12.5t-12.5 30.5z" />
    <glyph glyph-name="k.2" unicode="&#xe02c;" horiz-adv-x="527" 
d="M39 -3l-2 -1v-3q1 -14 -26 -12q-34 4 -43 28q-2 4 -2 8q-4 61 14.5 161t53.5 202q122 360 277 360q30 0 54 -20.5t24 -42.5q0 -70 -89.5 -184.5t-203.5 -175.5q-40 -128 -53 -237q38 66 87 125q40 46 76 76q23 18 56.5 30.5t62.5 12.5q33 0 47 -17q7 -9 9 -20
q6 -42 -58.5 -85t-116.5 -50q15 -15 27 -43t18 -52t18 -44t29 -23q40 0 103 76.5t63 123.5q0 10 -3 14q-12 15 2 24q12 9 28 -5q32 -27 32 -61q0 -59 -80 -135t-152 -76q-58 0 -90 35q-25 27 -38.5 95.5t-21.5 81.5q-60 -76 -102 -166zM115 368q95 62 168 161.5t73 148.5
q0 10 -2.5 13t-11.5 3q-51 0 -114 -93.5t-113 -232.5zM175 201q41 6 87.5 36t44.5 44q0 2 -1 4q-4 2 -11 3.5t-25 -7.5t-40 -27q-28 -23 -55 -53z" />
    <glyph glyph-name="l.2" unicode="&#xe02d;" horiz-adv-x="385" 
d="M107 324h-1q-16 -46 -38 -141.5t-22 -148.5q0 -42 19 -44q51 0 113.5 78.5t62.5 129.5q0 9 -3 14q-12 15 2 24q12 9 28 -5q32 -27 32 -61q0 -38 -36 -89t-93.5 -90t-110.5 -39q-39 0 -63.5 35.5t-25.5 71.5q-2 109 65 300q86 240 179 336q38 39 97 39q21 0 36 -5
q34 -12 34 -56q0 -23 -11 -60q-28 -83 -101.5 -169t-162.5 -120zM336 696q-33 11 -97 -87t-117 -240q71 37 131 112t83 143q8 23 9 40t-1.5 23.5t-7.5 8.5z" />
    <glyph glyph-name="m.2" unicode="&#xe02e;" horiz-adv-x="655" 
d="M48 317l-1 -3q19 -3 30.5 -10t14.5 -13.5t1 -11.5q-11 -27 -20 -56q62 98 112 91q37 -5 57.5 -25t27.5 -62q2 -9 0 -21l12 19q28 45 51.5 66t50.5 20q37 -2 59.5 -26.5t22.5 -64.5q0 -14 -3 -29q-6 -32 -20.5 -79t-22.5 -76.5t-5 -35.5q2 -6 7 -6q40 0 106 78t66 125
q0 9 -3 14q-12 15 2 24q12 9 28 -5q32 -27 32 -61q0 -58 -82 -136t-153 -78q-18 0 -39.5 9t-28.5 21q-5 15 -5.5 29.5t6 42t13 49t15 49.5t12.5 44q6 24 6 42q0 19 -5.5 28.5t-12.5 7.5q-25 -6 -65 -71q-27 -45 -84 -165l-17 -47q-3 -7 -20 -5.5t-34 9.5q-10 5 -16 14.5
t-3 16.5q60 151 60 199q0 50 -17 50q-28 -1 -78 -77.5t-96 -193.5l-6 -18q-7 -22 -46 -12q-13 3 -22.5 11t-7.5 15q57 211 95 304q5 12 26 10z" />
    <glyph glyph-name="n.2" unicode="&#xe02f;" horiz-adv-x="488" 
d="M45 317l2 1q19 -3 30.5 -10t14.5 -13.5t1 -11.5q-16 -38 -42 -122q106 170 185 154q30 -6 55.5 -26.5t25.5 -49.5q0 -32 -31 -125.5t-32 -111.5q0 -9 8 -9q42 9 104.5 84.5t62.5 119.5q0 9 -3 14q-12 15 2 24q12 9 28 -5q32 -27 32 -61q0 -37 -38.5 -87.5t-94.5 -87.5
t-100 -37q-29 0 -52.5 17.5t-22.5 42.5q1 35 33.5 124.5t32.5 107.5q0 27 -16 30q-36 7 -99 -72.5t-125 -199.5l-6 -18q-7 -22 -46 -12q-13 3 -21 11t-6 15q57 211 95 304q5 12 23 10z" />
    <glyph glyph-name="r.2" unicode="&#xe030;" horiz-adv-x="333" 
d="M58 268v-1q54 3 84 -3q18 -4 26 -13.5t3 -19.5q-28 -62 -49 -132t-21 -95q0 -7 8 -11q40 0 102 73.5t62 120.5q0 9 -3 14q-12 15 2 24q12 9 28 -5q32 -27 32 -61q0 -55 -83 -130t-147 -75q-32 0 -56.5 32.5t-14.5 84.5q10 56 57 162q-7 0 -30 -1t-36 -1q-28 0 -49.5 15
t-20.5 50q2 53 29 81t59 21q42 -9 42 -66q0 -24 -24 -64zM17 269q16 20 24 50.5t0 36.5q-8 -1 -16.5 -23.5t-10.5 -41.5t3 -22z" />
    <glyph glyph-name="t.2" unicode="&#xe031;" horiz-adv-x="279" 
d="M192 638v-1q27 -14 18 -34q-42 -89 -80 -195q45 5 63 -9q14 -10 3 -25q-9 -13 -25 -2q-1 1 -7.5 1t-19.5 -1t-27 -2q-34 -97 -55 -180q-29 -113 -29 -170q0 -23 14 -23q40 0 105.5 80t65.5 127q0 9 -3 14q-12 15 2 24q12 9 28 -5q32 -27 32 -61q0 -58 -85 -138t-152 -80
q-34 0 -58 23t-24 61q0 47 32 175q16 66 41 141q-63 -7 -79 23q-7 17 9 24q14 6 23 -9q5 -5 60 0q49 139 97 242q9 21 51 0z" />
    <glyph glyph-name="u.2" unicode="&#xe032;" horiz-adv-x="467" 
d="M287 316l4 1q14 -4 21.5 -12.5t4.5 -15.5q-25 -52 -51 -128.5t-29 -110.5q-4 -42 9 -50q41 6 102.5 82t61.5 121q0 9 -3 14q-12 15 2 24q12 9 28 -5q32 -27 32 -61q0 -61 -82 -138t-155 -77q-32 0 -54 31.5t-19 59.5q0 5 2 19q-71 -100 -138 -92q-40 5 -58.5 32t-15.5 60
q3 38 27 107t52 126q11 25 48 13q14 -4 21.5 -12.5t4.5 -15.5q-26 -54 -49.5 -121t-26.5 -100q-5 -51 11 -51q68 -4 170 210q19 49 32 77q11 25 48 13z" />
    <glyph glyph-name="y.2" unicode="&#xe033;" horiz-adv-x="399" 
d="M71 316l5 4q14 -4 21.5 -12.5t4.5 -15.5q-26 -54 -49.5 -121t-26.5 -100q-5 -51 11 -51q24 -1 52.5 24.5t55.5 70.5t49 88.5t43 93.5v12q4 10 19.5 10t33.5 -9t17 -20q-12 -154 -81 -344q70 30 119 30q73 0 100 -60q4 -9 -2 -17t-16 -7.5t-14 10.5q-7 15 -37 15
q-60 0 -183 -55q-42 -102 -80 -149q-34 -44 -83 -79.5t-98 -35.5q-20 0 -34 5q-46 15 -46 51q0 29 57 81t111 88.5t108 69.5q49 117 84 269q-102 -194 -194 -184q-40 5 -58.5 32t-15.5 60q3 38 27 107t52 126q11 25 48 13zM-105 -351q23 -6 76.5 32t81.5 74q21 26 38 57
q-66 -38 -134 -85t-68 -70q0 -7 6 -8z" />
    <glyph glyph-name="t.3" unicode="&#xe034;" horiz-adv-x="226" 
d="M-115 452l-3 2q13 4 29 -7q17 -11 53 -11q40 0 103 13q46 108 90 190q11 20 51 0q13 -6 17.5 -17t-0.5 -17q-30 -58 -65 -135q97 22 152 22q82 0 108 -54q15 -29 2 -42q-8 -7 -29 9q-25 19 -98 19q-60 0 -161 -14q-48 -117 -79 -218q-20 -66 -27 -116t-1 -59q5 -2 16 3.5
t29.5 22.5t40.5 44q28 35 123 173q11 14 25 5q15 -9 4 -24q-96 -140 -124 -175q-67 -83 -107 -85t-63 21t-21 63q2 46 35 154q27 87 64 179q-30 -3 -56 -3q-83 0 -113 30q-6 6 -4.5 15t9.5 12z" />
    <glyph glyph-name="r.3" unicode="&#xe035;" horiz-adv-x="308" 
d="M17 270q16 20 24 50.5t0 36.5q-8 -1 -16.5 -23.5t-10.5 -41.5t3 -22zM58 268l3 2q54 3 84 -3q18 -4 26 -13.5t3 -19.5q-32 -71 -52 -134.5t-15 -80.5q23 -1 85 69.5t128 172.5q9 14 24 5q14 -9 5 -24q-39 -60 -68.5 -101t-65 -83.5t-66 -61t-54.5 -11.5q-66 18 -66 73
q0 13 5 35q13 49 54 142q-12 0 -50 -2q-117 -190 -235 -228q-16 -6 -22 11q-5 16 11 22q97 32 206 197q-47 12 -46 61q2 53 29 81t59 21q42 -9 42 -66q0 -24 -24 -64z" />
    <glyph glyph-name="b.2" unicode="&#xe036;" horiz-adv-x="472" 
d="M-94 530l-1 -2q-75 28 -118 28q-39 0 -64 -22q-13 -11 -24 2q-8 9 2 24q35 60 115 60q46 0 96 -24q89 -42 197 -50q18 35 33 59q82 133 176 133q30 0 54 -20.5t24 -42.5q0 -73 -62.5 -119.5t-160.5 -59.5q-36 -71 -76 -199q-36 -113 -47 -201q96 215 182 215q14 0 29 -6
q74 -29 74 -102q0 -44 -24 -102q-10 -24 -19 -39q93 62 193 197q4 6 12 7t13 -4q13 -11 2 -25q-69 -91 -138 -154.5t-158 -97.5q-34 -18 -73 -18q-47 0 -101 26q-11 -10 -38.5 0t-28.5 31q-8 102 43 280q30 103 67 190q-94 3 -179 36zM55 23l-1 -2q24 -11 44 -11
q39 0 73.5 31t59.5 82q28 56 28 108q0 37 -13 42q-74 28 -191 -250zM198 545q72 8 116 40.5t44 88.5q0 10 -2.5 13t-11.5 3q-54 0 -123 -108z" />
    <glyph glyph-name="d.3" unicode="&#xe037;" horiz-adv-x="503" 
d="M347 607l-2 1q82 133 176 133q30 0 54 -20.5t24 -42.5q0 -73 -62.5 -119.5t-161.5 -59.5q-64 -124 -106 -318q-18 -83 -18 -123q0 -37 14 -40q25 -6 93 61t152 181q11 15 25 4q15 -11 4 -25q-93 -127 -163.5 -197.5t-120.5 -65.5q-40 3 -61 32t-22 64q-1 34 7 83
q-59 -97 -96 -140q-23 -26 -38.5 -34.5t-37.5 -6.5q-38 3 -56.5 34.5t-18.5 73.5q0 24 7 50q17 57 51.5 110t75.5 70q24 9 50 9q29 0 55 -10.5t38 -26.5q32 112 76 210q-91 3 -176 35q-75 28 -118 28q-39 0 -64 -22q-13 -11 -24 2q-8 9 2 24q35 60 115 60q46 0 96 -24
q89 -42 197 -50q19 36 34 60zM193 246h-1q-1 11 -11.5 20t-19.5 12q-33 10 -78.5 -40t-66.5 -119q-10 -31 -10 -56q0 -38 22 -45q18 1 67.5 70.5t97.5 157.5zM403 550l-1 -1q73 8 117 40.5t44 88.5q0 10 -2.5 13t-11.5 3q-54 0 -123 -108q-16 -24 -23 -36z" />
    <glyph glyph-name="h.3" unicode="&#xe038;" horiz-adv-x="491" 
d="M-94 530l1 1q-75 28 -118 28q-39 0 -64 -22q-13 -11 -24 2q-8 9 2 24q35 60 115 60q47 0 96 -24q89 -42 197 -50q18 35 33 59q82 133 176 133q30 0 54 -20.5t24 -42.5q0 -73 -62.5 -119.5t-160.5 -59.5q-36 -71 -76 -199q-36 -115 -47 -211q134 243 227 225
q30 -6 55.5 -26.5t25.5 -49.5q0 -28 -19 -83t-32.5 -95.5t-4.5 -44.5q3 -2 16.5 8t38.5 36t51 62q27 37 93 137q9 14 24 5q14 -9 5 -24q-66 -99 -96 -139q-22 -30 -35 -46.5t-37 -39.5t-44 -33q-14 -7 -31 -7q-26 0 -45 15.5t-18 40.5q1 35 30.5 118t29.5 101q0 27 -16 30
q-36 7 -99 -73t-125 -201v-12q1 -14 -26 -12q-34 4 -43 28q-2 4 -2 8q-8 108 43 287q30 103 67 190q-94 3 -179 36zM201 550q72 8 116 40.5t44 88.5q0 10 -2.5 13t-11.5 3q-54 0 -123 -108z" />
    <glyph glyph-name="k.3" unicode="&#xe039;" horiz-adv-x="512" 
d="M-95 530h1q-75 28 -118 28q-39 0 -64 -22q-13 -11 -24 2q-8 9 2 24q35 60 115 60q47 0 96 -24q89 -42 197 -50q18 35 33 59q82 133 176 133q30 0 54 -20.5t24 -42.5q0 -73 -62.5 -119.5t-160.5 -59.5q-36 -71 -76 -199q-36 -116 -47 -210q39 64 82 115q40 46 76 76
q23 18 56.5 30.5t62.5 12.5q33 0 47 -17q7 -9 9 -20q6 -42 -58.5 -85t-116.5 -50q17 -19 26 -51.5t15 -56.5t16 -27q21 -6 101.5 70.5t156.5 172.5q11 13 24 2t2 -24q-204 -260 -284 -260q-62 0 -86 36q-13 20 -20 75.5t-18 73.5q-56 -70 -97 -154v-15q1 -14 -26 -12
q-34 4 -43 28q-2 4 -2 8q-8 108 43 287q30 103 67 190q-94 3 -179 36zM200 549q72 8 116 40.5t44 88.5q0 10 -2.5 13t-11.5 3q-54 0 -123 -108zM175 201q41 6 87.5 36t44.5 44q0 2 -1 4q-4 2 -11 3.5t-25 -7.5t-40 -27q-28 -23 -55 -53z" />
    <glyph glyph-name="l.3" unicode="&#xe03a;" horiz-adv-x="303" 
d="M147 607l-2 -1q82 133 176 133q30 0 54 -20.5t24 -42.5q0 -73 -62.5 -119.5t-161.5 -59.5q-64 -124 -106 -318q-18 -83 -18 -123q0 -37 14 -40q25 -6 93 61t152 181q11 15 25 4q15 -11 4 -25q-93 -127 -163.5 -197.5t-120.5 -65.5q-40 3 -61 32t-22 64q-1 46 12 111
q36 168 101 313q-91 3 -176 35q-75 28 -118 28q-39 0 -64 -22q-13 -11 -24 2q-8 9 2 24q35 60 115 60q47 0 96 -24q89 -42 197 -50q19 36 34 60zM203 548l-1 -1q73 8 117 40.5t44 88.5q0 10 -2.5 13t-11.5 3q-54 0 -123 -108q-16 -24 -23 -36z" />
    <glyph glyph-name="g.3" unicode="&#xe03b;" horiz-adv-x="385" 
d="M160 -162l2 -1q-37 -83 -69 -124q-34 -44 -88 -81t-105 -37q-43 0 -74 25.5t-37 61.5q-11 63 55.5 123.5t197.5 81.5q33 6 67 6l3 9q53 131 86 288q-74 -125 -117 -175q-23 -26 -38.5 -34.5t-37.5 -6.5q-38 3 -56.5 34.5t-18.5 73.5q0 24 7 50q17 57 51.5 110t75.5 70
q24 9 49 9q31 0 58.5 -12t38.5 -30l3 6l3 22q4 10 19.5 10t33.5 -9t17 -20q-11 -145 -72 -319q-15 -42 -30 -80q41 -4 121.5 -17t117.5 -16q33 -3 59 -3q94 0 107 39q5 16 22 11q15 -5 11 -22q-21 -97 -159 -97q-21 0 -32 1q-44 4 -138 25.5t-133 27.5zM-127 -355l-2 1
q33 0 81.5 35t76.5 71q30 38 57 93q-30 0 -51 -4q-117 -20 -167.5 -65t-43.5 -86q3 -17 17 -31t32 -14zM189 246h-1q-1 11 -11.5 20t-19.5 12q-33 10 -78.5 -40t-66.5 -119q-10 -31 -10 -56q0 -38 22 -45q18 1 67.5 70.5t97.5 157.5z" />
    <glyph glyph-name="j.3" unicode="&#xe03c;" horiz-adv-x="178" 
d="M27 424q0 18 12.5 30.5t30.5 12.5t30.5 -12.5t12.5 -30.5t-12.5 -30.5t-30.5 -12.5t-30.5 12.5t-12.5 30.5zM-317 -362q34 0 72.5 29t69.5 84q28 50 48 94q-21 0 -41 -3q-117 -20 -167.5 -65t-43.5 -86q4 -21 21.5 -37t40.5 -16zM-44 -162v-3q-30 -70 -64 -129
q-34 -58 -80 -91.5t-94 -33.5q-47 0 -85.5 29t-45.5 71q-11 63 55.5 123.5t197.5 81.5q27 4 56 6q54 131 117 414q5 10 22 9t35 -11t16 -20q-53 -250 -108 -395q42 -4 124.5 -17t120.5 -16q33 -3 59 -3q94 0 107 39q5 16 22 11q15 -5 11 -22q-21 -97 -159 -97q-21 0 -32 1
q-44 4 -140 25.5t-135 27.5z" />
    <glyph glyph-name="y.3" unicode="&#xe03d;" horiz-adv-x="399" 
d="M71 316l5 -1q14 -4 21.5 -12.5t4.5 -15.5q-26 -54 -49.5 -121t-26.5 -100q-5 -51 11 -51q24 -1 52.5 25t56 71t49 88.5t42.5 93.5v12q4 10 19.5 10t33.5 -9t17 -20q-11 -145 -72 -319q-15 -42 -30 -80q40 -4 121.5 -17t119.5 -16q33 -3 59 -3q94 0 107 39q6 16 22 11
q15 -5 11 -22q-21 -97 -159 -97q-21 0 -32 1q-44 4 -138.5 25.5t-133.5 27.5q-37 -83 -69 -124q-34 -44 -88 -81t-105 -37q-42 0 -73 25.5t-37 61.5q-11 63 55.5 123.5t197.5 81.5q37 5 66 5l3 9q46 112 80 262q-102 -194 -194 -184q-40 5 -58.5 32t-15.5 60q3 38 27 107
t52 126q11 25 48 13zM-105 -356l-2 2q33 0 81.5 35t76.5 71q30 38 57 93q-29 0 -50 -4q-117 -20 -167.5 -65t-43.5 -86q3 -18 16.5 -32t31.5 -14z" />
    </font>
</defs>
</svg>
